<svg id="Bases" xmlns="http://www.w3.org/2000/svg" viewBox="0 0 32 32"><defs><style>.cls-1{fill:#dcdbdd;}.cls-2{fill:#2a2a2a;}.cls-3{fill:#f77737;}</style></defs><path class="cls-1" d="M26.32,3.19l.46.56-.7.15a2.87,2.87,0,0,0-1.69,1,1.78,1.78,0,0,0-.13.66,1.48,1.48,0,0,0,.06.47l.06.35h-.1a6.34,6.34,0,0,1-.1-.82,1.76,1.76,0,0,1,.14-.7,1.7,1.7,0,0,1,.38-.42,3.42,3.42,0,0,1,1.35-.66l.57-.11-.37-.44a4,4,0,0,0-4-.77,6.5,6.5,0,0,0-2.8,2.26s-.05,0-.08,0a6.6,6.6,0,0,1,2.86-2.3,4.6,4.6,0,0,1,1.39-.23A4,4,0,0,1,26.32,3.19Z"/><path class="cls-1" d="M26.25,3.25l.37.44-.57.11a3.42,3.42,0,0,0-1.35.66l-.05-.06.08-.25c.11,0,.18-.05,0-.06l.11-.34-.08,0-.18,0a4.63,4.63,0,0,1,.66-.34,3.7,3.7,0,0,0-2.69-.22,4.94,4.94,0,0,0-2.24,1.94,5.33,5.33,0,0,0-.87-.32,6.5,6.5,0,0,1,2.8-2.26A4,4,0,0,1,26.25,3.25Z"/><path class="cls-1" d="M27,14.14c0,1.29-1.3,2-2.34,2.56l-.48.27a2,2,0,0,0-.71,1.53,34.7,34.7,0,0,0,.22,3.64,2.8,2.8,0,0,1-.8.52h0a38.26,38.26,0,0,1-.2-4.43,2.46,2.46,0,0,1,1.11-2l.48-.28C25.11,15.49,26,15,26,14.17a1.16,1.16,0,0,0-.52-1.07l0,0-.12-.1c-.1-.76-.19-1.73-.19-1.73a11.84,11.84,0,0,1-.25-1.67A.27.27,0,0,1,25,9.45a2.37,2.37,0,0,0,.55-1.56.71.71,0,0,0-.39-.46,1.86,1.86,0,0,0-.88-.18,6.87,6.87,0,0,0-1.91.35,14.23,14.23,0,0,0-3.71,2.22l0,0-.32.22.2-.34A7.51,7.51,0,0,1,21.56,7c0,.06.05.1.07.13v0l0,0,1-.23-.09-.12a.72.72,0,0,0-.13-.19,3.88,3.88,0,0,1,.65-.15.68.68,0,0,1-.12.12l-.12.11L24,7.1l0,0a.81.81,0,0,0,.34-.68,2.89,2.89,0,0,1,1.13.27,1.54,1.54,0,0,1,.81,1A3.07,3.07,0,0,1,25.63,10a4.88,4.88,0,0,0,.1,2.21.84.84,0,0,0,.25.25l.13.11A1.87,1.87,0,0,1,27,14.14Z"/><path class="cls-1" d="M25.12,19.6a4.26,4.26,0,0,1,1.18,4.14,3.92,3.92,0,0,1-2.71,3.2,3,3,0,0,0,.31-1h-.07a3.38,3.38,0,0,0,1.29-1.2,4.34,4.34,0,0,0,.21-3.46c-.63,2-2.75,2.58-4.31,2.65a7,7,0,0,1-.47-.83,6.71,6.71,0,0,0,2.3-.4c0,.07,0,.15,0,.22.32-.21.54-.26.86-.46a2.89,2.89,0,0,1,0-.29A4.26,4.26,0,0,0,25.12,19.6Z"/><path class="cls-1" d="M25.33,13a5,5,0,0,0,.15.86,5.29,5.29,0,0,1-.91-2.59,6.62,6.62,0,0,1,.3-2.52,6,6,0,0,0,0,.85A4.94,4.94,0,0,0,25,12.5,1.56,1.56,0,0,0,25.33,13Z"/><path class="cls-1" d="M25.14,11.25s.09,1,.19,1.73A1.56,1.56,0,0,1,25,12.5a4.94,4.94,0,0,1-.07-2.92A11.84,11.84,0,0,0,25.14,11.25Z"/><path class="cls-1" d="M24.85,3.75l-.11.34h-.06l0,0,.1-.32a1,1,0,0,0-.26,0l.1-.07.18,0Z"/><path class="cls-1" d="M24.74,4.09c.17,0,.1,0,0,.06Z"/><path class="cls-1" d="M24.75,3.8l-.1.32-.11.06.1-.32-.24,0,.09-.07A1,1,0,0,1,24.75,3.8Z"/><path class="cls-1" d="M24.74,4.09v.06l-.09,0v0l0,0Z"/><path class="cls-1" d="M24.73,4.15l-.08.25-.09,0a2.18,2.18,0,0,0-.65-.09.7.7,0,0,1,.08-.1h0a3.22,3.22,0,0,1,.59.11l0-.12h0Z"/><path class="cls-1" d="M24.65,4.4l.05.06a1.7,1.7,0,0,0-.38.42,1.76,1.76,0,0,0-.14.7,6.34,6.34,0,0,0,.1.82h-.06a4.83,4.83,0,0,0-.94.09,2.39,2.39,0,0,0,.23-1,2.15,2.15,0,0,1,.24-1,1.82,1.82,0,0,1,.15-.23h0a2.18,2.18,0,0,1,.65.09Z"/><path class="cls-2" d="M25.05,3.34a3.91,3.91,0,0,0-.56.31,3.74,3.74,0,0,0-.54,0,2.84,2.84,0,0,0-1.66.52,3.42,3.42,0,0,0-1.2,1.31c-.13-.07-.26-.15-.41-.22L20.4,5.1a5,5,0,0,1,2.18-1.9,3.57,3.57,0,0,1,1-.16A4,4,0,0,1,25.05,3.34Z"/><path class="cls-1" d="M24.49,3.65a3.91,3.91,0,0,1,.56-.31A4,4,0,0,0,23.61,3a3.57,3.57,0,0,0-1,.16A5,5,0,0,0,20.4,5.1l-.08,0a4.94,4.94,0,0,1,2.24-1.94,3.7,3.7,0,0,1,2.69.22,4.63,4.63,0,0,0-.66.34A.54.54,0,0,1,24.49,3.65Z"/><path class="cls-1" d="M24.65,4.12v0h-.1Z"/><path class="cls-1" d="M24.64,3.86l-.1.32a3.22,3.22,0,0,0-.48-.06,2.35,2.35,0,0,1,.33-.3h0Z"/><path class="cls-1" d="M24.63,4.17l0,.12A3.22,3.22,0,0,0,24,4.18l.06-.06a3.22,3.22,0,0,1,.48.06Z"/><path class="cls-1" d="M24.59,3.68l-.1.07a.14.14,0,0,0-.09,0,.31.31,0,0,1,.09-.07A.54.54,0,0,0,24.59,3.68Z"/><path class="cls-1" d="M24.49,3.65a.31.31,0,0,0-.09.07h0a2.84,2.84,0,0,0-2.06.48,3.22,3.22,0,0,0-1.17,1.29s-.05,0-.07,0h0a3.42,3.42,0,0,1,1.2-1.31A2.84,2.84,0,0,1,24,3.61,3.74,3.74,0,0,1,24.49,3.65Z"/><path class="cls-1" d="M24.4,3.72a.14.14,0,0,1,.09,0l-.09.07h0a.22.22,0,0,0-.11,0l.11-.08Z"/><path class="cls-1" d="M24.38,6.4a.81.81,0,0,1-.34.68l0,0-1.1-.35L23,6.64a.68.68,0,0,0,.12-.12l.12,0a.92.92,0,0,1-.18.22L24,7a.66.66,0,0,0,.29-.61Z"/><path class="cls-1" d="M24.28,3.8a.22.22,0,0,1,.11,0,2.35,2.35,0,0,0-.33.3.23.23,0,0,0-.12,0A3,3,0,0,1,24.28,3.8Z"/><path class="cls-1" d="M24.39,3.72l-.11.08-.33,0a2.64,2.64,0,0,0-1.57.49,3.32,3.32,0,0,0-1.15,1.26l-.07,0A3.22,3.22,0,0,1,22.33,4.2,2.84,2.84,0,0,1,24.39,3.72Z"/><path class="cls-1" d="M24.28,6.4A.66.66,0,0,1,24,7l-.9-.3a.92.92,0,0,0,.18-.22h0a4.83,4.83,0,0,1,.94-.09Z"/><path class="cls-1" d="M24,3.78l.33,0a3,3,0,0,0-.34.3h0a2.06,2.06,0,0,0-1.33.45,2.83,2.83,0,0,0-.82,1.34,5.85,5.85,0,0,0-.52-.36,3.32,3.32,0,0,1,1.15-1.26A2.64,2.64,0,0,1,24,3.78Z"/><path class="cls-1" d="M24.06,4.12,24,4.18h-.12l.06-.08A.23.23,0,0,1,24.06,4.12Z"/><path class="cls-1" d="M24,4.18a.7.7,0,0,0-.08.1h-.09a.27.27,0,0,1,.06-.1Z"/><path class="cls-1" d="M23.94,4.1l-.06.08a2,2,0,0,0-1.26.44A2.91,2.91,0,0,0,21.82,6l-.07-.06a2.83,2.83,0,0,1,.82-1.34A2.06,2.06,0,0,1,23.9,4.1Z"/><path class="cls-1" d="M23.9,4.28a1.82,1.82,0,0,0-.15.23,2.15,2.15,0,0,0-.24,1,2.39,2.39,0,0,1-.23,1h0l-.12,0a1.9,1.9,0,0,0,.27-1,2.46,2.46,0,0,1,.25-1,1,1,0,0,1,.13-.17h.1Z"/><path class="cls-1" d="M23.83,25.91h.07a3,3,0,0,1-.31,1,6.85,6.85,0,0,1-1.12.31,4.32,4.32,0,0,0,.48-1A3.54,3.54,0,0,0,23.83,25.91Z"/><path class="cls-1" d="M23.88,4.18a.27.27,0,0,0-.06.1h0a1.82,1.82,0,0,0-1.12.4A2.82,2.82,0,0,0,21.89,6a.1.1,0,0,0-.07,0h0a2.91,2.91,0,0,1,.8-1.33A2,2,0,0,1,23.88,4.18Z"/><path class="cls-1" d="M23.05,25.91h.78a3.54,3.54,0,0,1-.88.36A1.23,1.23,0,0,0,23.05,25.91Z"/><path class="cls-2" d="M23.8,4.29a1,1,0,0,0-.13.17,2.46,2.46,0,0,0-.25,1,1.9,1.9,0,0,1-.27,1,3.88,3.88,0,0,0-.65.15A3.19,3.19,0,0,0,21.89,6a2.82,2.82,0,0,1,.79-1.32A1.82,1.82,0,0,1,23.8,4.29Z"/><path class="cls-1" d="M23.69,22.14a2.89,2.89,0,0,0,0,.29c-.32.2-.54.25-.86.46,0-.07,0-.15,0-.22h0A2.8,2.8,0,0,0,23.69,22.14Z"/><path class="cls-3" d="M23.58,12.09a1.85,1.85,0,0,1-.31,1.13,2.72,2.72,0,0,0-.24-1h0a2.77,2.77,0,0,0,0-.76l.19-.07A.86.86,0,0,1,23.58,12.09Z"/><path class="cls-3" d="M19.14,13c.56-.64,2.36-2.46,4.81-1.86a4.92,4.92,0,0,0-.77.25.39.39,0,0,0-.2-.05.37.37,0,0,1,0-.08l-1,.35-.51.15s-.4.31-.85.71a3.79,3.79,0,0,1,1.29-.56s0,0,0,.06a8.34,8.34,0,0,0-2.6,2.17.46.46,0,0,1-.13-.08.11.11,0,0,0,0,0l-.6-.1a2.65,2.65,0,0,0,.38.55,1.27,1.27,0,0,1-1.93-1A1.67,1.67,0,0,0,19.14,13Z"/><path class="cls-3" d="M23.18,11.4l-.19.07c0-.05,0-.1,0-.12A.39.39,0,0,1,23.18,11.4Z"/><path class="cls-1" d="M23.59,26.94a4.79,4.79,0,0,1-3.9,2.91A1.62,1.62,0,0,0,20,29.6a4.79,4.79,0,0,0,.7-.86,3.87,3.87,0,0,0,1.8-1.49A6.85,6.85,0,0,0,23.59,26.94Z"/><path class="cls-3" d="M23,11.47a2.77,2.77,0,0,1,0,.76c-.22-.45-.49-.52-.49-.52a.12.12,0,0,0,0-.05h0Z"/><path class="cls-3" d="M23,12.23h0a3.11,3.11,0,0,1-.73,2c-.42.46-2.18,1.44-3.3.23a1,1,0,0,0,.33-.33,1.89,1.89,0,0,0,2.19-.09A2,2,0,0,0,21.93,12c.21-.11.41-.23.63-.32a.12.12,0,0,1,0,.05S22.81,11.78,23,12.23Z"/><path class="cls-3" d="M23,11.35s0,.07,0,.12l-.43.18A.54.54,0,0,1,23,11.35Z"/><path class="cls-3" d="M23,11.27a.37.37,0,0,0,0,.08.54.54,0,0,0-.42.3h0c-.22.09-.42.21-.63.32,0,0,0,0,0-.06a3.79,3.79,0,0,0-1.29.56c.45-.4.85-.7.85-.71l.51-.15Z"/><path class="cls-1" d="M22.63,6.86l.09.12-1,.23,0,0v0s0-.07-.07-.13a4.19,4.19,0,0,1,.49-.2,4.36,4.36,0,0,1,.45-.13A.72.72,0,0,1,22.63,6.86Z"/><path class="cls-1" d="M23,26.27a4.32,4.32,0,0,1-.48,1,7.69,7.69,0,0,1-1.1.14c.13-.28.23-.57.34-.84l0-.1A5,5,0,0,0,23,26.27Z"/><path class="cls-2" d="M22.47,27.25a3.87,3.87,0,0,1-1.8,1.49,8.24,8.24,0,0,0,.7-1.35A7.69,7.69,0,0,0,22.47,27.25Z"/><path class="cls-1" d="M22.5,6.67a4.36,4.36,0,0,0-.45.13,4.19,4.19,0,0,0-.49.2,3.45,3.45,0,0,0-1.26-.89A9.62,9.62,0,0,0,16,5.19a9.62,9.62,0,0,0-4.3.92A3.45,3.45,0,0,0,10.44,7,4.19,4.19,0,0,0,10,6.8a4.36,4.36,0,0,0-.45-.13A3.19,3.19,0,0,1,10.11,6a.64.64,0,0,0,0,.12l0,.11.88-.36V5.81s0-.16-.13-.36h0c.13-.07.26-.15.41-.22l.28-.12a2.77,2.77,0,0,1,.19.3l.05.07,1-.48-.06-.08-.14-.21L13,4.6v0c0,.25,3.54-.19,5.88,0a.15.15,0,0,1,0-.08c.19,0,.38.1.55.15l-.14.21L19.17,5l1,.48.05-.07a2.77,2.77,0,0,1,.19-.3l.28.12c.15.07.28.15.41.22h0c-.09.2-.11.34-.13.36v.07l.88.36,0-.11a.64.64,0,0,0,0-.12A3.19,3.19,0,0,1,22.5,6.67Z"/><path class="cls-3" d="M21.93,12a2,2,0,0,1-.41,2.08,1.89,1.89,0,0,1-2.19.09A8.34,8.34,0,0,1,21.93,12Z"/><path class="cls-1" d="M21.82,6a.1.1,0,0,1,.07,0,.64.64,0,0,1,0,.12l0,.11L21,5.88V5.81s0-.16.13-.36c0,0,0,0,.07,0a1.08,1.08,0,0,0-.12.33l.73.3A1.66,1.66,0,0,0,21.82,6Z"/><path class="cls-1" d="M21.82,6h0a1.66,1.66,0,0,1-.05.16L21,5.82a1.08,1.08,0,0,1,.12-.33l.07,0a1,1,0,0,0-.08.25l.57.23,0-.12Z"/><path class="cls-1" d="M21.51,24.58a1.78,1.78,0,0,1,.23,1.87h-.41a2,2,0,0,1-.2,1l.24,0a8.24,8.24,0,0,1-.7,1.35,3.59,3.59,0,0,1-1.18.29l.06.84.14,0A5.49,5.49,0,0,1,16,31a5.49,5.49,0,0,1-3.69-1.15l.14,0,.06-.84a3.59,3.59,0,0,1-1.18-.29,8.24,8.24,0,0,1-.7-1.35l.24,0a2,2,0,0,1-.2-1h-.41a1.78,1.78,0,0,1,.23-1.87l.06,0-.15.19s1.26,0,1.33-.27c0-.05.09-.23.2-.53a3.56,3.56,0,0,1,.68-.05h6.78a3.56,3.56,0,0,1,.68.05c.11.3.19.48.2.53.07.22,1.33.27,1.33.27a.79.79,0,0,1-.1-.14Zm-.59,1.82c.21-.62.19-1.08-.05-1.35a1.79,1.79,0,0,0-1.42-.43h-6.9a1.79,1.79,0,0,0-1.42.43c-.24.27-.26.73-.05,1.35A5,5,0,0,0,16,30.19,5,5,0,0,0,20.92,26.4Z"/><path class="cls-1" d="M21.75,5.89l0,.12-.57-.23a1,1,0,0,1,.08-.25A5.85,5.85,0,0,1,21.75,5.89Z"/><path class="cls-1" d="M21.74,26.45l0,.1c-.11.27-.21.56-.34.84l-.24,0a2,2,0,0,0,.2-1Z"/><path class="cls-1" d="M21.5,24.58a.79.79,0,0,0,.1.14s-1.26,0-1.33-.27c0-.05-.09-.23-.2-.53a2.16,2.16,0,0,1,1.38.61S21.48,24.57,21.5,24.58Z"/><path class="cls-1" d="M21,23.9a6.47,6.47,0,0,0,.43.63,2.16,2.16,0,0,0-1.38-.61,25.65,25.65,0,0,1-1.37-5.27c.39.66,1.49,3.55,1.53,3.65a5.39,5.39,0,0,0,.32.77h-.27l0,.05a1.76,1.76,0,0,1,.19.79A4.7,4.7,0,0,0,21,23.9Z"/><path class="cls-1" d="M21,23.9a4.7,4.7,0,0,1-.52,0,1.76,1.76,0,0,0-.19-.79l0-.05h.27A7,7,0,0,0,21,23.9Z"/><path class="cls-1" d="M20.32,5.06l.08,0a2.77,2.77,0,0,0-.19.3l-.05.07-1-.48.06-.08.14-.21s.05,0,.08,0A.92.92,0,0,0,19.3,5l.84.4Z"/><path class="cls-1" d="M20.67,28.74a4.79,4.79,0,0,1-.7.86,1.62,1.62,0,0,1-.28.25l-.14,0L19.49,29A3.59,3.59,0,0,0,20.67,28.74Z"/><path class="cls-1" d="M20.12,25.69a.42.42,0,0,1,0,.46,3.15,3.15,0,0,1-.79,1.07,1.06,1.06,0,0,1-.68.24.84.84,0,0,1-.64-.26,4.22,4.22,0,0,1-.75-1.14.33.33,0,0,1,.05-.38.71.71,0,0,1,.51-.16h1.71A.75.75,0,0,1,20.12,25.69Z"/><path class="cls-1" d="M20.32,5.06l-.18.29L19.3,5a.92.92,0,0,1,.15-.21A5.33,5.33,0,0,1,20.32,5.06Z"/><path class="cls-1" d="M17.38,3.18c1.18-1.07,1.95-.89,1.95-.89a3.78,3.78,0,0,0-.51,2.26A11.12,11.12,0,0,0,16,4.21a11.82,11.82,0,0,0-3,.39A3.11,3.11,0,0,1,14.6,1.77c0,.27,0,1.3.42,1.62.12-.86.56-1.78,2.26-2.39A2.9,2.9,0,0,0,17.38,3.18Z"/><path class="cls-3" d="M18.62,13.93l.6.1a.11.11,0,0,1,0,0,.46.46,0,0,0,.13.08,1,1,0,0,1-.33.33A2.65,2.65,0,0,1,18.62,13.93Z"/><path class="cls-1" d="M18.82,4.55a.15.15,0,0,0,0,.08c-2.34-.19-5.86.25-5.88,0v0a11.82,11.82,0,0,1,3-.39A11.12,11.12,0,0,1,18.82,4.55Z"/><path class="cls-1" d="M17.57,11a3.44,3.44,0,0,1-.5.51A2.07,2.07,0,0,1,16,12c-.7,0-1.48-.92-1.57-1a3.22,3.22,0,0,0,1.57.47A3.22,3.22,0,0,0,17.57,11Z"/><path class="cls-3" d="M14.93,13.53a1.27,1.27,0,0,1-1.93,1,2.65,2.65,0,0,0,.38-.55l-.6.1a.11.11,0,0,0,0,0,.46.46,0,0,1-.13.08A8.48,8.48,0,0,0,10.07,12l0-.05a3.79,3.79,0,0,1,1.29.56c-.45-.4-.85-.7-.85-.71L10,11.62l-1-.35a.37.37,0,0,1,0,.08.36.36,0,0,0-.19.05s0,0,0,0a4.92,4.92,0,0,0-.77-.25c2.45-.6,4.25,1.22,4.82,1.86A1.66,1.66,0,0,0,14.93,13.53Z"/><path class="cls-1" d="M14.65,25.68a.33.33,0,0,1,0,.38A4.22,4.22,0,0,1,14,27.2a.84.84,0,0,1-.64.26,1.06,1.06,0,0,1-.68-.24,3.15,3.15,0,0,1-.79-1.07.42.42,0,0,1,0-.46.76.76,0,0,1,.56-.17h1.7A.71.71,0,0,1,14.65,25.68Z"/><path class="cls-1" d="M13.52,9.72l.21.34-.33-.22,0,0A14.23,14.23,0,0,0,9.67,7.6a6.87,6.87,0,0,0-1.91-.35,1.86,1.86,0,0,0-.88.18.71.71,0,0,0-.39.46A2.37,2.37,0,0,0,7,9.45a.2.2,0,0,1,.07.1h0a10.84,10.84,0,0,1-.25,1.69s-.09,1-.19,1.73l-.12.1,0,0A1.16,1.16,0,0,0,6,14.17C6,15,6.89,15.49,7.76,16l.48.28a2.46,2.46,0,0,1,1.11,2,38.26,38.26,0,0,1-.2,4.43h0a2.8,2.8,0,0,1-.8-.52,34.7,34.7,0,0,0,.22-3.64A2,2,0,0,0,7.82,17l-.48-.27C6.3,16.14,5,15.43,5,14.14a1.87,1.87,0,0,1,.89-1.62L6,12.41a.84.84,0,0,0,.25-.25A4.88,4.88,0,0,0,6.37,10a3.07,3.07,0,0,1-.69-2.29,1.54,1.54,0,0,1,.81-1A2.89,2.89,0,0,1,7.62,6.4.81.81,0,0,0,8,7.08l0,0,1.1-.35L9,6.64a.68.68,0,0,1-.12-.12,3.88,3.88,0,0,1,.65.15.72.72,0,0,0-.13.19L9.28,7l1.05.23,0,0,0,0s0-.07.07-.13A7.51,7.51,0,0,1,13.52,9.72Z"/><path class="cls-3" d="M12.78,14l.6-.1a2.65,2.65,0,0,1-.38.55,1,1,0,0,1-.33-.33.46.46,0,0,0,.13-.08A.11.11,0,0,1,12.78,14Z"/><path class="cls-3" d="M12.67,14.15a1,1,0,0,0,.33.33c-1.12,1.21-2.88.23-3.3-.23a3.11,3.11,0,0,1-.73-2H9c.22-.45.49-.52.49-.52l0-.06.63.32a2.07,2.07,0,0,0,.41,2.09A1.89,1.89,0,0,0,12.67,14.15Z"/><path class="cls-1" d="M12.77,4.91l.06.08-1,.48-.05-.07a2.77,2.77,0,0,0-.19-.3l.08,0,.18.29L12.7,5a.92.92,0,0,0-.15-.21s0,0,.08,0Z"/><path class="cls-1" d="M12.7,5l-.84.4-.18-.29a5.33,5.33,0,0,1,.87-.32A.92.92,0,0,1,12.7,5Z"/><path class="cls-1" d="M12.63,4.7s-.05,0-.08,0a6.5,6.5,0,0,0-2.8-2.26,4,4,0,0,0-4,.77l-.37.44L6,3.8a3.42,3.42,0,0,1,1.35.66,1.7,1.7,0,0,1,.38.42,1.76,1.76,0,0,1,.14.7,6.34,6.34,0,0,1-.1.82h-.1l.06-.35a1.48,1.48,0,0,0,.06-.47,1.78,1.78,0,0,0-.13-.66,3.07,3.07,0,0,0-1.67-1l-.72-.13.48-.56a3.89,3.89,0,0,1,2.68-1,4.6,4.6,0,0,1,1.39.23A6.6,6.6,0,0,1,12.63,4.7Z"/><path class="cls-1" d="M11.77,22.3c0-.1,1.14-3,1.53-3.65a25.65,25.65,0,0,1-1.37,5.27,2.16,2.16,0,0,0-1.38.61A6.47,6.47,0,0,0,11,23.9a4.7,4.7,0,0,0,.52,0,1.76,1.76,0,0,1,.19-.79l0-.05h-.27A5.39,5.39,0,0,0,11.77,22.3Z"/><path class="cls-1" d="M12.51,29l-.06.84-.14,0a4.68,4.68,0,0,1-1-1.11A3.59,3.59,0,0,0,12.51,29Z"/><path class="cls-1" d="M11.33,28.74a4.68,4.68,0,0,0,1,1.11,4.79,4.79,0,0,1-3.9-2.91,6.85,6.85,0,0,0,1.12.31A3.87,3.87,0,0,0,11.33,28.74Z"/><path class="cls-1" d="M9.75,2.48a6.5,6.5,0,0,1,2.8,2.26,5.33,5.33,0,0,0-.87.32A4.94,4.94,0,0,0,9.44,3.12a3.7,3.7,0,0,0-2.69.22,4.63,4.63,0,0,1,.66.34l-.18,0-.08,0,.11.34h0c-.17,0-.1,0,0,.05h0l.07.24,0,.06A3.42,3.42,0,0,0,6,3.8l-.57-.11.37-.44A4,4,0,0,1,9.75,2.48Z"/><path class="cls-3" d="M12.67,14.15a1.89,1.89,0,0,1-2.19-.09A2.07,2.07,0,0,1,10.07,12,8.48,8.48,0,0,1,12.67,14.15Z"/><path class="cls-1" d="M11.93,23.92c-.11.3-.19.48-.2.53-.07.22-1.33.27-1.33.27l.15-.19A2.16,2.16,0,0,1,11.93,23.92Z"/><path class="cls-1" d="M11.72,23.08l0,.05a1.76,1.76,0,0,0-.19.79,4.7,4.7,0,0,1-.52,0,7,7,0,0,0,.47-.83Z"/><path class="cls-1" d="M11.68,5.06l-.08,0A5,5,0,0,0,9.42,3.2a3.57,3.57,0,0,0-1-.16A4,4,0,0,0,7,3.34a3.91,3.91,0,0,1,.56.31.54.54,0,0,1-.1,0,4.63,4.63,0,0,0-.66-.34,3.7,3.7,0,0,1,2.69-.22A4.94,4.94,0,0,1,11.68,5.06Z"/><path class="cls-2" d="M11.6,5.1l-.28.12c-.15.07-.28.15-.41.22a3.42,3.42,0,0,0-1.2-1.31,2.84,2.84,0,0,0-1.66-.52,3.74,3.74,0,0,0-.54,0A3.91,3.91,0,0,0,7,3.34,4,4,0,0,1,8.39,3a3.57,3.57,0,0,1,1,.16A5,5,0,0,1,11.6,5.1Z"/><path class="cls-1" d="M11.45,23.07a7,7,0,0,1-.47.83c-1.56-.07-3.68-.63-4.31-2.65a4.34,4.34,0,0,0,.21,3.46,3.38,3.38,0,0,0,1.29,1.2H8.1a3,3,0,0,0,.31,1,3.92,3.92,0,0,1-2.71-3.2,4.28,4.28,0,0,1,1.18-4.15,4.21,4.21,0,0,0,1.43,2.55,2.89,2.89,0,0,1,0,.29c.32.2.54.25.86.46,0-.07,0-.15,0-.22A6.71,6.71,0,0,0,11.45,23.07Z"/><path class="cls-1" d="M11,5.81v.07l-.88.36,0-.11a.64.64,0,0,1,0-.12.1.1,0,0,1,.07,0l.05.16.73-.3a1.08,1.08,0,0,0-.12-.33s.05,0,.07,0C11,5.65,11,5.79,11,5.81Z"/><path class="cls-1" d="M11,5.82l-.73.3L10.18,6h0l.07-.06c0,.05,0,.08,0,.12l.59-.23a2.54,2.54,0,0,0-.1-.25l.07,0A1.08,1.08,0,0,1,11,5.82Z"/><path class="cls-1" d="M10.91,5.44h0s0,0-.07,0A3.22,3.22,0,0,0,9.67,4.2a2.84,2.84,0,0,0-2.06-.48h0a.31.31,0,0,0-.09-.07,3.74,3.74,0,0,1,.54,0,2.84,2.84,0,0,1,1.66.52A3.42,3.42,0,0,1,10.91,5.44Z"/><path class="cls-1" d="M10.87,5.78,10.28,6s0-.07,0-.12a5.85,5.85,0,0,1,.52-.36A2.54,2.54,0,0,1,10.87,5.78Z"/><path class="cls-1" d="M10.87,27.41l-.24,0c-.13-.28-.23-.57-.34-.84l0-.1h.41A2,2,0,0,0,10.87,27.41Z"/><path class="cls-1" d="M9.67,4.2a3.22,3.22,0,0,1,1.17,1.29l-.07,0A3.32,3.32,0,0,0,9.62,4.27a2.64,2.64,0,0,0-1.57-.49l-.33,0-.11-.08A2.84,2.84,0,0,1,9.67,4.2Z"/><path class="cls-2" d="M10.63,27.39a8.24,8.24,0,0,0,.7,1.35,3.87,3.87,0,0,1-1.8-1.49A7.69,7.69,0,0,0,10.63,27.39Z"/><path class="cls-3" d="M10.53,11.77s.4.31.85.71a3.79,3.79,0,0,0-1.29-.56l0,.05-.63-.32a.54.54,0,0,0-.42-.3.37.37,0,0,0,0-.08l1,.35Z"/><path class="cls-1" d="M10.77,5.53a5.85,5.85,0,0,0-.52.36,2.75,2.75,0,0,0-.82-1.34A2.06,2.06,0,0,0,8.1,4.1h0a3,3,0,0,0-.34-.3l.33,0a2.64,2.64,0,0,1,1.57.49A3.32,3.32,0,0,1,10.77,5.53Z"/><path class="cls-1" d="M10.29,26.55c.11.27.21.56.34.84a7.69,7.69,0,0,1-1.1-.14,4.32,4.32,0,0,1-.48-1,5,5,0,0,0,1.21.18Z"/><path class="cls-1" d="M10.44,7c0,.06,0,.1-.07.13l0,0,0,0L9.28,7l.09-.12a.72.72,0,0,1,.13-.19A4.36,4.36,0,0,1,10,6.8,4.19,4.19,0,0,1,10.44,7Z"/><path class="cls-1" d="M10.25,5.89,10.18,6a2.91,2.91,0,0,0-.8-1.33,2,2,0,0,0-1.26-.44L8.06,4.1h0a2.06,2.06,0,0,1,1.33.45A2.75,2.75,0,0,1,10.25,5.89Z"/><path class="cls-1" d="M10.18,6h0a.1.1,0,0,0-.07,0,2.82,2.82,0,0,0-.79-1.32,1.82,1.82,0,0,0-1.12-.4h0a.27.27,0,0,0-.06-.1,2,2,0,0,1,1.26.44A2.91,2.91,0,0,1,10.18,6Z"/><path class="cls-2" d="M10.11,6a3.19,3.19,0,0,0-.61.66,3.88,3.88,0,0,0-.65-.15,1.9,1.9,0,0,1-.27-1,2.46,2.46,0,0,0-.25-1,1,1,0,0,0-.13-.17,1.82,1.82,0,0,1,1.12.4A2.82,2.82,0,0,1,10.11,6Z"/><path class="cls-3" d="M9.44,11.65l0,.06s-.27.07-.49.52a2.77,2.77,0,0,1,0-.76Z"/><path class="cls-1" d="M9.15,22.67c0,.07,0,.15,0,.22-.32-.21-.54-.26-.86-.46a2.89,2.89,0,0,0,0-.29,2.8,2.8,0,0,0,.8.52Z"/><path class="cls-3" d="M9,11.35a.54.54,0,0,1,.42.3L9,11.47v0S9,11.37,9,11.35Z"/><path class="cls-1" d="M9.09,6.75,8,7.1l0,0a.81.81,0,0,1-.34-.68h.1A.66.66,0,0,0,8,7l.9-.3a.92.92,0,0,1-.18-.22l.12,0A.68.68,0,0,0,9,6.64Z"/><path class="cls-1" d="M9.05,26.27a4.32,4.32,0,0,0,.48,1,6.85,6.85,0,0,1-1.12-.31,3,3,0,0,1-.31-1h.07A3.54,3.54,0,0,0,9.05,26.27Z"/><path class="cls-3" d="M9,11.35s0,.06,0,.1l-.18,0A.36.36,0,0,1,9,11.35Z"/><path class="cls-3" d="M9,11.45v0a2.77,2.77,0,0,0,0,.76H9a2.72,2.72,0,0,0-.24,1,1.85,1.85,0,0,1-.31-1.13.86.86,0,0,1,.4-.69s0,0,0,0Z"/><path class="cls-1" d="M9,25.91a1.23,1.23,0,0,0,.1.36,3.54,3.54,0,0,1-.88-.36Z"/><path class="cls-1" d="M8.91,6.71,8,7a.66.66,0,0,1-.29-.61h.06a4.83,4.83,0,0,1,.94.09h0A.92.92,0,0,0,8.91,6.71Z"/><path class="cls-1" d="M8.85,6.52l-.12,0h0a2.39,2.39,0,0,1-.23-1,2.15,2.15,0,0,0-.24-1,1.82,1.82,0,0,0-.15-.23h.1a1,1,0,0,1,.13.17,2.46,2.46,0,0,1,.25,1A1.9,1.9,0,0,0,8.85,6.52Z"/><path class="cls-1" d="M8.49,5.52a2.39,2.39,0,0,0,.23,1,4.83,4.83,0,0,0-.94-.09H7.72a6.34,6.34,0,0,0,.1-.82,1.76,1.76,0,0,0-.14-.7,1.7,1.7,0,0,0-.38-.42l0-.06.09,0a2.18,2.18,0,0,1,.65-.09h0a1.82,1.82,0,0,1,.15.23A2.15,2.15,0,0,1,8.49,5.52Z"/><path class="cls-1" d="M8.12,4.18a.27.27,0,0,1,.06.1H8.09A.7.7,0,0,0,8,4.18Z"/><path class="cls-1" d="M8.06,4.1l.06.08H8l-.07-.06A.23.23,0,0,1,8.06,4.1Z"/><path class="cls-1" d="M8,4.18a.7.7,0,0,1,.08.1,2.18,2.18,0,0,0-.65.09l-.09,0-.07-.24h.09l0,.12A2.48,2.48,0,0,1,8,4.18Z"/><path class="cls-1" d="M8.06,4.1a.23.23,0,0,0-.12,0,2.35,2.35,0,0,0-.33-.3.22.22,0,0,1,.11,0A3,3,0,0,1,8.06,4.1Z"/><path class="cls-1" d="M7.94,4.12,8,4.18a2.48,2.48,0,0,0-.6.11l0-.12h.09A3.22,3.22,0,0,1,7.94,4.12Z"/><path class="cls-1" d="M7.61,3.82a2.35,2.35,0,0,1,.33.3,3.22,3.22,0,0,0-.48.06l-.1-.32.24,0Z"/><path class="cls-1" d="M7.61,3.72l.11.08a.22.22,0,0,0-.11,0h0l-.09-.07a.14.14,0,0,1,.09,0Z"/><path class="cls-1" d="M7.51,3.65a.31.31,0,0,1,.09.07.14.14,0,0,0-.09,0l-.1-.07A.54.54,0,0,0,7.51,3.65Z"/><path class="cls-1" d="M7.51,3.75l.09.07-.24,0,.1.32-.11-.06-.1-.32A1,1,0,0,1,7.51,3.75Z"/><path class="cls-1" d="M7.41,3.68l.1.07a1,1,0,0,0-.26,0l.1.32,0,0H7.26l-.11-.34.08,0Z"/><path class="cls-1" d="M7.35,4.12l.11.06h-.1Z"/><path class="cls-1" d="M7.13,8.73a6.62,6.62,0,0,1,.3,2.52,5.29,5.29,0,0,1-.91,2.59A5,5,0,0,0,6.67,13,1.56,1.56,0,0,0,7,12.5a4.93,4.93,0,0,0,.07-2.94h0A5.58,5.58,0,0,0,7.13,8.73Z"/><path class="cls-1" d="M7.35,4.12v0H7.27V4.1h.06Z"/><path class="cls-1" d="M7.26,4.1v.05C7.16,4.13,7.09,4.1,7.26,4.1Z"/><path class="cls-1" d="M7.11,9.56A4.93,4.93,0,0,1,7,12.5a1.56,1.56,0,0,1-.37.48c.1-.76.19-1.73.19-1.73A10.84,10.84,0,0,0,7.11,9.56Z"/></svg>