<svg id="Bases" xmlns="http://www.w3.org/2000/svg" viewBox="0 0 32 32"><defs><style>.icon-canvas-transparent{fill:#f6f6f6;opacity:0;}.cls-1{fill:#dcdbdd;}.cls-2{fill:#f05133;}</style></defs><path class="icon-canvas-transparent" d="M31,31H1V1H31Z"/><path class="cls-1" d="M16,31a3.55,3.55,0,0,1-2.52-1L2,18.5a3.58,3.58,0,0,1,0-5.05L13.45,2.05a3.56,3.56,0,0,1,5.05,0L30,13.5a3.58,3.58,0,0,1,0,5.05L18.55,30A3.57,3.57,0,0,1,16,31Z"/><path class="cls-2" d="M28.63,17.25,17.25,28.63a1.69,1.69,0,0,1-2.39,0L3.43,17.2a1.69,1.69,0,0,1,0-2.39L11.27,7l3,3a2,2,0,0,0,.43,2.19c.19.2.14.11.38.21v7.25a1.36,1.36,0,0,0-.5.4,2.09,2.09,0,0,0,1.39,3.65,2.12,2.12,0,0,0,.44,0A2,2,0,0,0,17.51,23a2,2,0,0,0,.22-2.57,2.18,2.18,0,0,0-.75-.73v-7l2.7,2.7a2,2,0,1,0,1.21-1.13L18,11.37a2,2,0,0,0-2.53-2.55l-3-3,2.38-2.37a1.68,1.68,0,0,1,2.38,0L28.63,14.86A1.69,1.69,0,0,1,28.63,17.25Z"/></svg>