<svg id="Bases" xmlns="http://www.w3.org/2000/svg" viewBox="0 0 32 32"><defs><style>.icon-canvas-transparent{fill:#f6f6f6;opacity:0;}.cls-1{fill:#3f3f40;}.cls-2{fill:#f05133;}</style></defs><path class="icon-canvas-transparent" d="M28,28H4V4H28Z"/><path class="cls-1" d="M16,28a2.88,2.88,0,0,1-2-.83L4.84,18a2.85,2.85,0,0,1,0-4L14,4.84a2.85,2.85,0,0,1,4,0L27.17,14a2.87,2.87,0,0,1,0,4L18,27.17A2.88,2.88,0,0,1,16,28Z"/><path class="cls-2" d="M26.1,17,17,26.11a1.36,1.36,0,0,1-1.91,0L5.94,17a1.35,1.35,0,0,1,0-1.91l6.27-6.27,2.38,2.37a1.61,1.61,0,0,0,.35,1.76c.15.15.11.08.3.16v5.8a1.13,1.13,0,0,0-.4.32A1.68,1.68,0,0,0,16,22.12a2,2,0,0,0,.35,0A1.68,1.68,0,0,0,16.78,19V13.36L19,15.52a1.61,1.61,0,1,0,1-.9L17.58,12.3a1.6,1.6,0,0,0-2-2.05L13.15,7.84l1.9-1.9a1.35,1.35,0,0,1,1.9,0l9.15,9.15A1.35,1.35,0,0,1,26.1,17Z"/></svg>
