<svg id="Bases" xmlns="http://www.w3.org/2000/svg" viewBox="0 0 32 32"><defs><style>.cls-1{fill:#3f3f40;}.cls-2{fill:#57aa54;}</style></defs><path class="cls-1" d="M19.3,18.68c0,.88.52.88,1.1.85.78,0,1.21-.24,1.6-.06,0,0-.13-.37-.67-.31a1.1,1.1,0,0,0,.07-.55c-.07-.89-.6-1.59-1.18-1.57s-.95.75-.92,1.64Zm.87-1.08a.3.3,0,0,1,.3.28.31.31,0,0,1-.29.3.29.29,0,1,1,0-.58Z"/><path class="cls-1" d="M11.36,19.69h.36c.58,0,1.06,0,1-.84s-.41-1.6-1-1.59-1.14.73-1.11,1.61a1.54,1.54,0,0,0,.1.52,1,1,0,0,0-.65.44,2.78,2.78,0,0,1,1.24-.14Zm.5-1.87a.29.29,0,1,1-.29.29.28.28,0,0,1,.29-.29Z"/><path class="cls-2" d="M13.22,8.4h1.63V7.75h.37v3h-.56v1.68h2.85V10.76H17v-3h.36V8.4H19V6.17H13.22Z"/><path class="cls-1" d="M28.49,12.7a5.51,5.51,0,0,0-.06-.57,2.7,2.7,0,0,0,0-.28c0-.1,0-.19-.07-.29l0-.08-.06,0a5.1,5.1,0,0,0-1-.57c-.28-.13-.57-.24-.85-.34a11.9,11.9,0,0,0-4-5.42,10.69,10.69,0,0,0-12.75,0,11.49,11.49,0,0,0-3.4,4.07h0a12.52,12.52,0,0,0-.59,1.35,8.86,8.86,0,0,0-.85.34,5.1,5.1,0,0,0-1,.57l-.06,0,0,.08c0,.1,0,.19-.07.29s0,.19-.05.28,0,.28,0,.41h0c0,.06,0,.11,0,.16a6.29,6.29,0,0,0,0,1.15A7.48,7.48,0,0,0,3.83,15c.06.18.12.36.19.55l.12.27a.83.83,0,0,1,.07.13l0,.07,0,.07,0,.06.06,0,.18.08.18.08.09,0a14.26,14.26,0,0,0-2.41,2.79L1.5,20.6l1.33-1.13a21.43,21.43,0,0,1,3-2l0,.2.07.53.34,2.68a.2.2,0,0,0,.08.12l.7.48,0,.11c0,.06,0,.11.05.16l.16.47a10.69,10.69,0,0,0,1.44,2.84l-.08,0-2.06-.92-.89-.39.53.8c0,.06,1,1.43,1.69,2.36a4.09,4.09,0,0,0,3.43,1.74l.67,0,1.24-.15a8.67,8.67,0,0,0,5.92,0,8.82,8.82,0,0,0,1.48-.71h0c.73-.17,1.56-.37,2-.48l.23-.06a2.7,2.7,0,0,0,2-1.33c.51-1,1.35-2.52,1.35-2.54l.4-.71-.77.32s-1,.43-1.5.69l-.06,0A9.68,9.68,0,0,0,25,22l.28-1.11.79-1.72s.22-1.88.23-1.88l.07-.72c.07,0,.5-.05.58-.08l.35-.14.18-.08.18-.09.06,0,0-.06.05-.07,0-.07.07-.13.12-.28c.07-.18.13-.36.19-.55a7.15,7.15,0,0,0,.22-1.12,7.37,7.37,0,0,0,0-1.15ZM10.41,17.34a20.22,20.22,0,0,1,1.89-1c1.16-.09,2.44-.14,3.81-.14h1a5.89,5.89,0,0,1-.71.48l-.82.49a6.8,6.8,0,0,0-1,.19l0,0a.22.22,0,0,0-.09.1l-.84,2.68-4.47,1-1.42-1L7.3,16.94c.8-.14,1.88-.31,3.16-.45-.13.16-.27.33-.4.51L9.3,18.07l1.11-.73Zm6.05,11.23a6.78,6.78,0,0,1-2.23-.23l.17,0a3.16,3.16,0,0,0,2-1h.2l.28,0a4.76,4.76,0,0,0,.66-.09l.07.07a2.57,2.57,0,0,0,1.61.72,9,9,0,0,1-2.73.6ZM16.53,27l.25-.56.49.5-.43,0h-.31Zm-2.2-5.53.4-.09a.2.2,0,0,0,.14-.13l.83-2.67.38,0,.38,0,.86,2.75a.21.21,0,0,0,.16.13l.32,0h.08l5.5.6a.15.15,0,0,0,.13,0l.55-.37.52-.35.18-.13c0,.13-.06.25-.1.38s-.1.32-.16.48a14.21,14.21,0,0,1-.75,1.7c-.08,0-.57.28-1,.41-.52,0-1.35-.14-1.61-.17l-1.64-1.26-.07-.05a.71.71,0,0,0-.5-.2,5.85,5.85,0,0,0-1.41.33,1,1,0,0,0,.43-.72,3.1,3.1,0,0,1-1.61.68,2.69,2.69,0,0,1-1.78-.47,1,1,0,0,0,.31.54,7.74,7.74,0,0,0-.86-.06h-.32c-.61,0-1.48.93-2.08,1.84-.3.09-1.09.25-2.16.56a14.9,14.9,0,0,1-1.51-2.6c-.14-.33-.22-.55-.24-.6h0l-.06-.17.26.18h0l.64.43.21.15a.2.2,0,0,0,.11,0h0Zm3.39-4a.2.2,0,0,0-.13-.12,6.71,6.71,0,0,0-1.17-.21h.11A18.21,18.21,0,0,0,20,16.33c2,.16,3.71.4,4.85.6l-.41,2.75-1.42,1-4.47-.49Zm9.82-3.7c-.05.35-.21,1-.21,1l-.13,0c-.07,0-.7-.17-1.78-.37l.1,0a5,5,0,0,0,.66-.2l.31-.15a1.42,1.42,0,0,0,.28-.2,17.4,17.4,0,0,1-5.32,0c-1.82-.18-3.65-.3-5.49-.3s-3.66.12-5.48.3a17.39,17.39,0,0,1-5.32,0,1.11,1.11,0,0,0,.27.2l.32.15a4.6,4.6,0,0,0,.66.2l.24.05c-1,.18-1.56.33-1.63.34s-.23,0-.28-.13a6,6,0,0,1-.21-.93,7.55,7.55,0,0,1-.07-1.06v-.18c0-.12,0-.23,0-.35a1.71,1.71,0,0,1,.63-.53,8.59,8.59,0,0,1,1-.48,14.3,14.3,0,0,1,2-.49c.64-.11,2.93-.41,3.1-.47s1.17-.8,1.34-.87c-.36.06-5.4.81-5.62.88A9.13,9.13,0,0,1,16,4.06c4.26,0,7.47,1.91,9.11,6.06a46.17,46.17,0,0,0-5.52-.88c.18.06,1.16.73,1.34.76a38.34,38.34,0,0,1,4,.76c.34.13.67.27,1,.42a8,8,0,0,1,1,.48,1.71,1.71,0,0,1,.63.53c0,.17,0,.35,0,.53a6.29,6.29,0,0,1-.07,1.06Z"/></svg>
