<svg id="Bases" xmlns="http://www.w3.org/2000/svg" viewBox="0 0 32 32"><defs><style>.cls-1{fill:#dcdbdd;}.cls-2{fill:#f77737;}</style></defs><path class="cls-1" d="M21.34,2a.78.78,0,0,1,.44.22c.21.18.32.4.26.49h0L19,5.88,18.48,8c2.12.13,3.6.43,3.6.78L20.53,22.13l-1,1.74-.26,4.32c0,.45-1.48.81-3.31.81s-3.31-.36-3.31-.81L12.39,24l-1.1-1.88L9.92,8.81C9.92,8.34,12.64,8,16,8c.49,0,1,0,1.43,0l.63-2.57L21.25,2a.1.1,0,0,1,.09,0m0-1a1.13,1.13,0,0,0-.85.38L17.33,4.72a1,1,0,0,0-.24.45L16.65,7H16C8.92,7,8.92,8.16,8.92,8.81a.34.34,0,0,0,0,.1L10.3,22.22a1,1,0,0,0,.13.4l1,1.68.27,3.93C11.72,29.69,14,30,16,30s4.27-.31,4.31-1.78l.24-4.06.87-1.55a1.15,1.15,0,0,0,.12-.37L23.07,8.92a.37.37,0,0,0,0-.11c0-1-.9-1.44-3.34-1.68l.19-.75,2.83-3A1.32,1.32,0,0,0,23,3.12a1.43,1.43,0,0,0-.52-1.66A1.78,1.78,0,0,0,21.34,1Z"/><path class="cls-2" d="M13.33,13.48c.36.09.4.71.7.69.72,0-.12-1.25-.75-1.28-1.38-.07-2.25,2-2.62,3.09l.2,2c.83.4,1.48-.42,1.83-.74,0,.22-.58,1.48-.21,1.6s.53-.92.83-1.89.67-1.86.3-2-.48.85-.65,1.18-1.65,2-1.81.85a5.45,5.45,0,0,1,1.33-3.15A1.06,1.06,0,0,1,13.33,13.48Z"/><path class="cls-2" d="M21.15,16.61a2.71,2.71,0,0,1-1.42.9c-.44,0,1.32-1.07,1-1.84s-1.28,0-1.55.32c.07-.2.11-.46-.16-.48s-.26.79-.68,1.28a1.81,1.81,0,0,1-1.07.65c-.43.15.48-1.85,1-3.06.11-.25.37-.94.06-1.05s-.72,1.25-1.17,2.33-.41,1.41-.54,1.56-.56.33-.64.26c-.42-.31.7-1.91.38-2.05s-.72,1.07-.86,1.26c0,0-.77,1-1,.81s.08-.72.29-1.19c.09-.22.45-.77.15-.89s-1.5,2.31-.74,2.6c.58.22,1.07-.32,1.28-.7-.1.91.77.72,1.18.38.25.71,1.23-.05,1.49-.25-.23.78-1.05,2.08-.69,2.28s.91-1.4,1.07-1.77c.43-1,.87-2,1.73-2,.41,0-1.17,1-1.09,1.71.09.86,1.47.1,1.91-.33Z"/></svg>