<svg id="Bases" xmlns="http://www.w3.org/2000/svg" viewBox="0 0 32 32"><defs><style>.cls-1{fill:#dcdbdd;}.cls-2{fill:#57aa54;}</style></defs><path class="cls-1" d="M20.78,19.49c0,1,.58,1,1.22,1,.87,0,1.34-.27,1.78-.07A.64.64,0,0,0,23,20a1.19,1.19,0,0,0,.08-.61c-.08-1-.66-1.77-1.31-1.75s-1.05.84-1,1.83Zm1-1.2a.31.31,0,0,1,.33.31.32.32,0,0,1-.32.33.32.32,0,0,1-.33-.32.32.32,0,0,1,.32-.32Z"/><path class="cls-1" d="M12,20.62h.39c.65,0,1.18.06,1.17-.93s-.46-1.78-1.1-1.77-1.27.81-1.23,1.79a1.56,1.56,0,0,0,.11.58,1,1,0,0,0-.72.5A2.9,2.9,0,0,1,12,20.62Zm.55-2.09a.32.32,0,0,1,.34.31.34.34,0,0,1-.32.33.33.33,0,0,1-.34-.32.32.32,0,0,1,.32-.32Z"/><path class="cls-2" d="M14,8h1.81V7.3h.41v3.35h-.62v1.88h3.17V10.65h-.61V7.3h.4V8h1.81V5.53H14Z"/><path class="cls-1" d="M31,12.82q0-.32-.06-.63a3,3,0,0,0-.06-.32c0-.11,0-.21-.07-.33l0-.08-.06-.05a5.41,5.41,0,0,0-1.09-.63c-.31-.15-.63-.27-.95-.39a13.14,13.14,0,0,0-4.44-6,11.84,11.84,0,0,0-14.16,0A12.91,12.91,0,0,0,6.29,8.89h0c-.24.49-.47,1-.66,1.5-.32.12-.63.24-.94.39a5.78,5.78,0,0,0-1.1.63l-.06.05,0,.08c0,.12-.06.22-.08.33a3.06,3.06,0,0,0,0,.32c0,.15,0,.3-.05.45h0c0,.06,0,.12,0,.18a7.79,7.79,0,0,0,0,1.28,9.31,9.31,0,0,0,.24,1.26c.06.2.13.41.21.61s.09.2.14.3l.07.15,0,.08a.35.35,0,0,0,.05.08l0,.07.07,0,.21.1.19.09.11,0A15.67,15.67,0,0,0,2.05,20L1,21.63l1.47-1.26A25.55,25.55,0,0,1,5.8,18.13l0,.23.07.58.38,3a.19.19,0,0,0,.09.14l.77.53s0,.08,0,.13,0,.12.05.18l.18.52A12,12,0,0,0,9,26.59l-.09,0-2.28-1-1-.43.58.89c0,.06,1,1.59,1.88,2.63a4.54,4.54,0,0,0,3.81,1.95,6.59,6.59,0,0,0,.75-.05c.59-.06,1-.11,1.38-.16a9.52,9.52,0,0,0,6.57,0,9.69,9.69,0,0,0,1.65-.79h0c.81-.19,1.73-.4,2.19-.53l.26-.06A3,3,0,0,0,27,27.54c.57-1.12,1.5-2.82,1.51-2.84l.43-.79-.84.36c-.05,0-1.12.47-1.68.76l-.07,0a11.89,11.89,0,0,0,.77-1.9l.3-1.22L28.31,20l.25-2.1.09-.8c.08,0,.55-.07.64-.1l.39-.16.2-.08.2-.1.07,0,0-.07a.18.18,0,0,0,0-.08l.05-.08a1,1,0,0,0,.07-.15c.05-.1.1-.2.14-.3s.15-.41.21-.61A8,8,0,0,0,31,14.1a7.79,7.79,0,0,0,0-1.28ZM10.9,18A20.4,20.4,0,0,1,13,16.87c1.28-.1,2.7-.16,4.22-.16h1.1a6.9,6.9,0,0,1-.79.54l-.92.54a7.76,7.76,0,0,0-1.1.22l0,0a.18.18,0,0,0-.1.11l-.93,3-5,1.08L7.9,21.15l-.45-3.6c.89-.16,2.08-.34,3.51-.5-.15.18-.3.37-.44.56l-.86,1.2L10.9,18Zm6.72,12.53a7.71,7.71,0,0,1-2.47-.26l.18,0a3.49,3.49,0,0,0,2.19-1.15h.54a5.84,5.84,0,0,0,.73-.11.6.6,0,0,0,.08.08,2.81,2.81,0,0,0,1.78.8,10.25,10.25,0,0,1-3,.68Zm.08-1.76c.12-.26.21-.47.28-.63l.54.56a3.93,3.93,0,0,1-.48.06H17.7ZM15.25,22.6l.45-.1a.21.21,0,0,0,.15-.14l.93-3,.42,0,.43,0,.95,3.07a.22.22,0,0,0,.18.14l.35,0h.09l6.12.68a.23.23,0,0,0,.14,0l.61-.42.57-.38.21-.15c0,.15-.07.29-.11.43l-.18.53a16.13,16.13,0,0,1-.84,1.9c-.09,0-.63.32-1.14.46-.58,0-1.5-.16-1.79-.19L21,24.06,20.89,24a.76.76,0,0,0-.55-.22,7,7,0,0,0-1.58.37,1.08,1.08,0,0,0,.49-.81,3.53,3.53,0,0,1-1.8.77,3,3,0,0,1-2-.53,1.16,1.16,0,0,0,.34.6,9.49,9.49,0,0,0-1-.06h-.36c-.68,0-1.64,1-2.31,2.05-.33.1-1.21.28-2.4.62a17.21,17.21,0,0,1-1.68-2.9c-.16-.36-.25-.61-.27-.66h0L7.79,23l.29.2h0l.7.48.24.16a.19.19,0,0,0,.12,0h0ZM19,18.15a.19.19,0,0,0-.14-.13,7.81,7.81,0,0,0-1.3-.24h.12a20.15,20.15,0,0,0,3.87-.9,52.18,52.18,0,0,1,5.38.67L26.5,20.6l-1.58,1.08-5-.55ZM29.94,14c-.06.4-.24,1.17-.24,1.17l-.15,0c-.07,0-.77-.2-2-.41l.11,0a4.75,4.75,0,0,0,.73-.23l.35-.16a1,1,0,0,0,.3-.23c-1.2.39-3.69.21-5.91,0-2-.2-4.05-.34-6.09-.34s-4.07.14-6.1.34c-2.21.22-4.7.4-5.91,0a1.14,1.14,0,0,0,.31.23l.35.16a4.43,4.43,0,0,0,.73.23l.27.06c-1.1.2-1.74.36-1.81.38s-.25,0-.31-.15a6,6,0,0,1-.23-1,7.71,7.71,0,0,1-.08-1.18v-.2c0-.13,0-.26,0-.39a1.93,1.93,0,0,1,.7-.6,11.83,11.83,0,0,1,1.07-.53,15.12,15.12,0,0,1,2.26-.54c.71-.13,3.26-.46,3.45-.53s1.3-.89,1.49-1c-.41.06-6,.9-6.25,1A10.15,10.15,0,0,1,17.15,3.18c4.74,0,8.31,2.13,10.12,6.76a52.65,52.65,0,0,0-6.12-1c.19.07,1.28.82,1.48.84,1.66.21,4.28.78,4.47.85.37.15.75.3,1.12.47s.73.34,1.07.53a1.93,1.93,0,0,1,.7.6c0,.19,0,.39,0,.59A7.71,7.71,0,0,1,29.94,14Z"/></svg>