<svg xmlns="http://www.w3.org/2000/svg" xmlns:xlink="http://www.w3.org/1999/xlink" viewBox="0 0 32 32"><defs><style>.cls-1{fill:none;}.cls-2{clip-path:url(#clip-path);}.cls-3{fill:#dcdbdd;}.cls-4{fill:#018fd4;}.cls-5{fill:#252526;}.cls-6{fill:#1b9ad9;}.cls-7{fill:#007cb9;}.cls-8{fill:#34a3dd;}</style><clipPath id="clip-path"><rect class="cls-1" x="1" y="1.08" width="20.83" height="24.92"/></clipPath></defs><g id="Overlays"><g id="icon-file"><g class="cls-2"><rect class="cls-3" x="5.17" y="6.27" width="6.25" height="2.08"/><rect class="cls-3" x="5.17" y="10.42" width="4.17" height="2.08"/><rect class="cls-3" x="5.17" y="14.58" width="12.5" height="2.08"/><rect class="cls-3" x="5.17" y="18.73" width="10.42" height="2.08"/><path class="cls-3" d="M14.83,1.08H3A2,2,0,0,0,1,3.15V23.92A2,2,0,0,0,3,26H19.68a2.12,2.12,0,0,0,2.15-2.08V7.31Zm4.92,22.84H3.08V3.15H13.5V9.38h6.25Z"/></g></g><path class="cls-4" d="M16.06,30a1.48,1.48,0,0,1-.65-.16l-1.59-.7-.93-.4a1.16,1.16,0,0,1-.82-.77,1,1,0,0,1,.3-1.07l.27-.24L15.49,24l2.18-2,.12-.1a1,1,0,0,1,.25-.29l.15-.11a1.56,1.56,0,0,0,.2-.16l2-1.82L24,16.32l1.05-1a1.23,1.23,0,0,1,.86-.37,1.35,1.35,0,0,1,.52.11l2.18,1,.76.33a1,1,0,0,1,.6.94V27.62a1,1,0,0,1-.75,1,1.07,1.07,0,0,1-.25,0,1,1,0,0,1-.87-.51,1.46,1.46,0,0,1-.2-.88V19.71L24.28,23a1,1,0,0,1-.58.55l-1.82,1.65a1,1,0,0,1-.42.36l-.57.52-3.84,3.5A1.42,1.42,0,0,1,16.06,30Z"/><path class="cls-5" d="M25.89,16l.1,0,3,1.3c0,.14,0,.28,0,.42v9.88a.63.63,0,0,1-.07-.4V17.75c0-.06,0-.14-.05-.17h0c-.05,0-.09.05-.13.08L25.8,20.23l-2.3,2.09c-.07.07-.19.12-.14.26h0a.26.26,0,0,0-.19.09c-.7.63-1.4,1.26-2.09,1.9,0,0,0,0,0,.06a.51.51,0,0,0-.29.2l-4.37,4a.45.45,0,0,1-.32.16.69.69,0,0,1-.24-.07c-.83-.38-1.68-.73-2.53-1.1-.09-.05-.23-.05-.27-.17l.3-.26,2.84-2.6,2.19-2c.11-.1.26-.18.31-.34s.28-.2.41-.32L21,20.38l3.66-3.31,1.06-1a.27.27,0,0,1,.19-.11m0-2a2.22,2.22,0,0,0-1.53.62l-.25.23-.81.73-2.62,2.36-1,.95-.52.48-1.4,1.28-.13.1-.17.13a2.07,2.07,0,0,0-.38.4l0,0L15.36,22.8l-.54.49-.65.59-2.2,2a.86.86,0,0,1-.14.13l-.11.09a2,2,0,0,0-.6,2.15,2.18,2.18,0,0,0,1.45,1.4l.86.37,1.57.69a2.39,2.39,0,0,0,1.06.25,2.43,2.43,0,0,0,1.67-.68c1.3-1.2,2.6-2.38,3.91-3.56l.41-.38a2,2,0,0,0,.58-.51l1.62-1.47a2,2,0,0,0,.69-.57,1.07,1.07,0,0,0,.15-.22l1.54-1.4.23-.21v5.21a2.51,2.51,0,0,0,.33,1.42,2,2,0,0,0,1.74,1,1.79,1.79,0,0,0,.51-.07,2,2,0,0,0,1.49-1.93V17.38a2,2,0,0,0-1.2-1.89L29,15.17l-2.22-1a2.23,2.23,0,0,0-.91-.2Z"/><path class="cls-6" d="M25.9,30a1.14,1.14,0,0,1-.85-.38,1,1,0,0,1-.18-1.07l0-4.63V20.54a1.13,1.13,0,0,1-.05-.32,1,1,0,0,1,.33-.73L28,16.91l.11-.1a1,1,0,0,1,.48-.41,1,1,0,0,1,1.07.2,1.23,1.23,0,0,1,.36,1V20.5c0,2.29,0,4.59,0,6.88a1.37,1.37,0,0,1-.9,1.33l-1.7.73-.92.4A1.11,1.11,0,0,1,25.9,30Z"/><path class="cls-5" d="M28.94,17.32c.09.09,0,.21,0,.31q0,4.88,0,9.76a.38.38,0,0,1-.28.4l-2.63,1.13a.46.46,0,0,1-.19.08.13.13,0,0,1-.11-.06.61.61,0,0,0,.08-.27c0-1.3,0-2.61,0-3.91s0-2.82,0-4.22c0-.1,0-.22-.05-.31l2.84-2.58s.08-.08.13-.08h0c.07,0,.05.11.05.17v9.47a.63.63,0,0,0,.07.4V17.74c0-.14,0-.28,0-.42m0-2a2,2,0,0,0-1.61.82l-.06.06-2.33,2.11-.48.44a2,2,0,0,0-.66,1.47,2.4,2.4,0,0,0,.05.46v7.7a2,2,0,0,0,.45,1.92,2.15,2.15,0,0,0,1.58.7A2.25,2.25,0,0,0,27,30.73l.87-.38,1.67-.71A2.36,2.36,0,0,0,31,27.38q0-3.3,0-6.6V17.7a2.19,2.19,0,0,0-.66-1.81,2,2,0,0,0-1.39-.57Z"/><path class="cls-7" d="M13,28.63a1.21,1.21,0,0,1-.37-.07,1,1,0,0,1-.62-.84l1-.09-1,0a2.64,2.64,0,0,1,0-.29V17.63a1.82,1.82,0,0,1,0-.32,1.05,1.05,0,0,1,.65-.85,1.14,1.14,0,0,1,.4-.08.89.89,0,0,1,.62.23l.58.53c.2.17.39.35.59.54s.54.51.82.75a9.52,9.52,0,0,1,1.22,1.18,1,1,0,0,1,.23.64v2l0,2.48a1,1,0,0,1-.32.75L14,28.11l-.32.28A1.07,1.07,0,0,1,13,28.63Z"/><path class="cls-5" d="M13,17.35l.58.53c.49.43.94.9,1.44,1.32a7.73,7.73,0,0,1,1.09,1.05v2c0,.83,0,1.65,0,2.48l-2.84,2.6-.3.26a2.28,2.28,0,0,1,0-.26V17.63a2.66,2.66,0,0,1,0-.28m0-2a2,2,0,0,0-.72.13A2,2,0,0,0,11,17.15a4.43,4.43,0,0,0,0,.48v9.74a2.6,2.6,0,0,0,0,.4,2,2,0,0,0,1.24,1.69,1.9,1.9,0,0,0,.77.16,2,2,0,0,0,1.29-.48l.08-.07.26-.22,2.24-2.05.6-.55a2,2,0,0,0,.65-1.5V24c0-.57,0-1.15,0-1.72v-2A2,2,0,0,0,17.68,19a10.25,10.25,0,0,0-1.34-1.32c-.26-.21-.52-.45-.79-.71l-.6-.56L14.56,16l-.19-.16A2,2,0,0,0,13,15.35Z"/><path class="cls-8" d="M18.66,23.45A1,1,0,0,1,18,23.2l-2.27-2a1.14,1.14,0,0,1-.35-.27,6.86,6.86,0,0,0-1-.92c-.32-.27-.62-.56-.92-.84L13,18.62l-.59-.53a1,1,0,0,1,0-1.52,3.21,3.21,0,0,1,.87-.46l.22-.09,1.12-.49.89-.39a1.62,1.62,0,0,1,.59-.13,1.3,1.3,0,0,1,.88.35q1.8,1.66,3.62,3.31l1.06,1a1,1,0,0,1,.33.73,1,1,0,0,1-.33.74l-1.91,1.76c-.11.1-.23.19-.35.28l-.12.09A1,1,0,0,1,18.66,23.45Z"/><path class="cls-5" d="M16.09,16a.26.26,0,0,1,.2.09L21,20.38l-1.91,1.75c-.13.12-.28.22-.41.32l-2.23-2c-.08-.08-.15-.2-.29-.21a7.73,7.73,0,0,0-1.09-1.05c-.5-.42-1-.89-1.44-1.32L13,17.35a3.88,3.88,0,0,1,.87-.42c.66-.3,1.34-.58,2-.87a.45.45,0,0,1,.18,0m0-2h0a2.37,2.37,0,0,0-1,.22l-.88.38-1.14.5-.17.07a4.16,4.16,0,0,0-1.14.61,2,2,0,0,0-.74,1.5,2,2,0,0,0,.65,1.54l.18.16.42.38.52.49c.31.28.62.58,1,.87a6.26,6.26,0,0,1,.83.8,2.08,2.08,0,0,0,.53.45l1.67,1.5.52.46a2,2,0,0,0,1.34.51A2,2,0,0,0,19.89,24L20,24c.14-.11.29-.22.42-.34l1.42-1.3.5-.46A2,2,0,0,0,23,20.37a2,2,0,0,0-.66-1.47l-1-.9c-1.23-1.12-2.47-2.24-3.69-3.37A2.29,2.29,0,0,0,16.09,14Z"/><path class="cls-8" d="M25.79,29.94a1,1,0,0,1-.67-.25l-.47-.42-1.09-1-3.2-2.93a1,1,0,0,1-.28-1,.8.8,0,0,1,.3-.52l2.1-1.9a1.28,1.28,0,0,1,.86-.35h.12a1,1,0,0,1,.52.21c.54.43,1,.88,1.5,1.32l.75.68.05.05a1,1,0,0,1,.58.9v3.92a1.44,1.44,0,0,1-.2.73,1,1,0,0,1-.7.53Z"/><path class="cls-5" d="M23.34,22.58h0c.77.62,1.47,1.32,2.21,2,.08.08.14.19.29.21,0,1.3,0,2.61,0,3.91a.61.61,0,0,1-.08.27l-1.56-1.39L21,24.63s0-.05,0-.06c.69-.64,1.39-1.27,2.09-1.9a.26.26,0,0,1,.19-.09m0-2a2.28,2.28,0,0,0-1.53.61l-2.1,1.89a2.23,2.23,0,0,0-.63,1.13,2,2,0,0,0,.61,1.89l.92.85L22.89,29,24,30l.48.43a2,2,0,0,0,1.34.5l.35,0a2,2,0,0,0,1.42-1,2.76,2.76,0,0,0,.31-1.22V24.75a2,2,0,0,0-1-1.72l-.7-.64c-.49-.46-1-.92-1.55-1.37a2,2,0,0,0-1.05-.43Z"/><path class="cls-4" d="M21,24.63a.51.51,0,0,0-.29.2l-4.37,4a.43.43,0,0,1-.56.09c-.83-.38-1.68-.73-2.53-1.1-.09-.05-.23-.05-.27-.17l.3-.26,2.84-2.6,2.19-2c.11-.1.26-.18.31-.34s.28-.2.41-.32L21,20.38l3.66-3.31,1.06-1c.08-.08.14-.15.29-.09l3,1.3c0,.14,0,.28,0,.42v9.88a.63.63,0,0,1-.07-.4V17.75c0-.06,0-.14-.05-.17s-.12,0-.17.07L25.8,20.23l-2.3,2.09c-.07.07-.19.12-.14.26a.27.27,0,0,0-.21.09c-.7.63-1.4,1.26-2.09,1.9C21,24.58,21,24.61,21,24.63Z"/><path class="cls-6" d="M25.8,20.23l2.84-2.58c.05,0,.09-.11.17-.07s.05.11.05.17v9.47a.63.63,0,0,0,.07.4V17.74c0-.14,0-.28,0-.42.09.09,0,.21,0,.31q0,4.88,0,9.76a.38.38,0,0,1-.28.4l-2.63,1.13c-.09,0-.19.14-.3,0a.61.61,0,0,0,.08-.27c0-1.3,0-2.61,0-3.91s0-2.82,0-4.22C25.85,20.44,25.9,20.32,25.8,20.23Z"/><path class="cls-7" d="M16.16,24.77l-2.84,2.6-.3.26a2.28,2.28,0,0,1,0-.26V17.63a2.66,2.66,0,0,1,0-.28l.58.53c.49.43.94.9,1.44,1.32a7.73,7.73,0,0,1,1.09,1.05v2C16.14,23.12,16.15,23.94,16.16,24.77Z"/><path class="cls-8" d="M16.14,20.25a7.73,7.73,0,0,0-1.09-1.05c-.5-.42-1-.89-1.44-1.32L13,17.35a3.88,3.88,0,0,1,.87-.42c.66-.3,1.34-.58,2-.87a.29.29,0,0,1,.38,0L21,20.38l-1.91,1.75c-.13.12-.28.22-.41.32l-2.23-2C16.35,20.38,16.28,20.26,16.14,20.25Z"/><path class="cls-8" d="M25.86,24.76c0,1.3,0,2.61,0,3.91a.61.61,0,0,1-.08.27l-1.56-1.39L21,24.63s0-.05,0-.06c.69-.64,1.39-1.27,2.09-1.9a.27.27,0,0,1,.21-.09c.77.62,1.47,1.32,2.21,2C25.65,24.63,25.71,24.74,25.86,24.76Z"/></g></svg>