<svg id="Bases" xmlns="http://www.w3.org/2000/svg" viewBox="0 0 32 32"><defs><style>.cls-1{fill:#f77737;}.cls-2{fill:#dcdbdd;}</style></defs><path class="cls-1" d="M10.07,12.46l5.7-3.24a.47.47,0,0,1,.46,0l5.7,3.24a.46.46,0,0,1,.23.4v6.49a.45.45,0,0,1-.23.39L16.23,23a.47.47,0,0,1-.46,0l-5.7-3.25a.45.45,0,0,1-.23-.39V12.86a.46.46,0,0,1,.23-.4"/><path class="cls-2" d="M30.81,15.42,24,3.73A1.45,1.45,0,0,0,22.81,3H9.19A1.45,1.45,0,0,0,8,3.73L1.19,15.39a1.36,1.36,0,0,0,0,1.38L8,28.36a1.37,1.37,0,0,0,1.2.64H22.81a1.36,1.36,0,0,0,1.2-.63l6.8-11.61a1.29,1.29,0,0,0,0-1.34M25.18,21a.51.51,0,0,1-.26.42l-8.67,4.93a.48.48,0,0,1-.49,0L7.08,21.46A.51.51,0,0,1,6.82,21V11.17a.5.5,0,0,1,.26-.42l8.67-4.94a.53.53,0,0,1,.49,0l8.68,4.94a.5.5,0,0,1,.26.42Z"/></svg>