<svg xmlns="http://www.w3.org/2000/svg" xmlns:xlink="http://www.w3.org/1999/xlink" viewBox="0 0 32 32"><defs><style>.cls-1{fill:none;}.cls-2{clip-path:url(#clip-path);}.cls-3{fill:#dcdbdd;}.cls-4{fill:#c6f;}.cls-5{fill:#252526;}</style><clipPath id="clip-path"><rect class="cls-1" x="1" y="1" width="20.83" height="24.92"/></clipPath></defs><g id="Overlays"><g id="icon-file"><g class="cls-2"><rect class="cls-3" x="5.17" y="6.19" width="6.25" height="2.08"/><rect class="cls-3" x="5.17" y="10.35" width="4.17" height="2.08"/><rect class="cls-3" x="5.17" y="14.5" width="12.5" height="2.08"/><rect class="cls-3" x="5.17" y="18.65" width="10.42" height="2.08"/><path class="cls-3" d="M14.83,1H3A2,2,0,0,0,1,3.08V23.85a2,2,0,0,0,2,2.07H19.68a2.11,2.11,0,0,0,2.15-2.07V7.23Zm4.92,22.85H3.08V3.08H13.5V9.31h6.25Z"/></g></g><polygon class="cls-4" points="14 30 14 20.5 18 20.5 18 26.13 18 22.38 21.51 22.38 17 19.21 17 15.01 20 16.88 20 13 24 13 24 16.88 27 15.01 27 19.21 22.49 22.38 26 22.38 26 20.5 30 20.5 30 30 14 30"/><path class="cls-5" d="M23,14v4.69l3-1.88v1.88L22,21.5l-4-2.81V16.81l3,1.88V14h2m6,7.5V29H15V21.5h2v5.62H27V21.5h2m-4,1.88v1.87H23V23.38h2m-4,0v1.87H19V23.38h2M25,12H19v3.08L16,13.2v6.3H13V31H31V19.5H28V13.2l-3,1.88V12Z"/></g></svg>