<svg xmlns="http://www.w3.org/2000/svg" xmlns:xlink="http://www.w3.org/1999/xlink" viewBox="0 0 32 32"><defs><style>.cls-1{fill:none;}.cls-2{clip-path:url(#clip-path);}.cls-3{fill:#dcdbdd;}.cls-4{fill:#252526;}.cls-5{fill:#1ba1e2;}</style><clipPath id="clip-path"><rect class="cls-1" x="1" y="1" width="24" height="28.8"/></clipPath></defs><g id="Overlays"><g id="icon-file"><g class="cls-2"><rect class="cls-3" x="5.8" y="7" width="7.2" height="2.4"/><rect class="cls-3" x="5.8" y="11.8" width="4.8" height="2.4"/><rect class="cls-3" x="5.8" y="16.6" width="14.4" height="2.4"/><rect class="cls-3" x="5.8" y="21.4" width="12" height="2.4"/><path class="cls-3" d="M16.94,1H3.31A2.29,2.29,0,0,0,1,3.4v24a2.29,2.29,0,0,0,2.31,2.4H22.52A2.44,2.44,0,0,0,25,27.4V8.2ZM22.6,27.4H3.4V3.4h12v7.2h7.2Z"/></g></g><path class="cls-4" d="M16.6,31V22.81l1.2-1.2V21.4H13V11.8H25.12l.16,0A6.65,6.65,0,0,1,31,18.4a6.84,6.84,0,0,1-.08.91l-4.73.17A.61.61,0,0,0,25.6,19a.69.69,0,0,0-.6.35v2.26l1.2,1.2V31Z"/><path class="cls-5" d="M28.6,18.4a3.93,3.93,0,0,1-.06.6,3,3,0,0,0-2.94-2.4,3.07,3.07,0,0,0-3,2.4v3.6l1.2,1.2v4.8H19V23.8l1.2-1.2V19a1.2,1.2,0,0,0-2.4,0H15.4V14.2h2.4a1.2,1.2,0,0,0,2.4,0H25A4.25,4.25,0,0,1,28.6,18.4Z"/></g></svg>