<svg id="Bases" xmlns="http://www.w3.org/2000/svg" viewBox="0 0 32 32"><defs><style>.cls-1{fill:#dcdbdd;}.cls-2{fill:#1ba1e2;}</style></defs><path class="cls-1" d="M16,3A13,13,0,1,1,3,16,13,13,0,0,1,16,3m0-2A15,15,0,1,0,31,16,15,15,0,0,0,16,1Z"/><path class="cls-2" d="M20.45,10.45a7.14,7.14,0,0,0-8.53,0l-8.54,6.7a9.34,9.34,0,0,0,.82,3.39l4.87-5.32a6.82,6.82,0,0,0,2.48,6.24,6.58,6.58,0,0,0,5.78,1.29L11.92,28a11.62,11.62,0,0,0,3.58.64l6.24-8.9A6.93,6.93,0,0,0,20.45,10.45Zm-1,8.26a4.44,4.44,0,1,1-7-5.51,4.75,4.75,0,0,1,6.42-.83A4.43,4.43,0,0,1,19.44,18.71Z"/></svg>