<svg id="Bases" xmlns="http://www.w3.org/2000/svg" viewBox="0 0 32 32"><defs><style>.cls-1{fill:#9c1c1c;}.cls-2{fill:#1ba1e2;}</style></defs><path class="cls-1" d="M16,5A11,11,0,1,1,5,16,11,11,0,0,1,16,5m0-2A13,13,0,1,0,29,16,13,13,0,0,0,16,3Z"/><path class="cls-2" d="M19.77,11.3a6.08,6.08,0,0,0-7.23,0L5.32,17A8,8,0,0,0,6,19.84l4.12-4.5a5.76,5.76,0,0,0,2.09,5.28,5.58,5.58,0,0,0,4.9,1.09l-4.59,4.43a10,10,0,0,0,3,.54l5.28-7.53A5.88,5.88,0,0,0,19.77,11.3Zm-.86,7A3.76,3.76,0,1,1,13,13.63a4,4,0,0,1,5.44-.7A3.74,3.74,0,0,1,18.91,18.29Z"/></svg>
