<svg id="Bases" xmlns="http://www.w3.org/2000/svg" viewBox="0 0 32 32"><defs><style>.cls-1{fill:#dcdbdd;}.cls-2{fill:#1b5eab;}.cls-3{fill:#f77737;}</style></defs><path class="cls-1" d="M6.09,30H16.91c.27-.86.46-1.38.66-2.07H6.09V9.28H24.87c0-2.07-2.5-2.07-2.09-2.07H20.7V5.14H18.63a4.18,4.18,0,0,0-8.36,0H8.17V7.21H6.09A2,2,0,0,0,4,9.28V27.9A2,2,0,0,0,6.09,30ZM14.45,3.07a2.07,2.07,0,1,1,0,4.14,2.1,2.1,0,0,1-2.11-2.07A2.08,2.08,0,0,1,14.45,3.07Z"/><path class="cls-2" d="M19.32,22.24,17.83,31h.78l3.13-4.14L25.13,31h.78l-1.75-8.76Z"/><path class="cls-3" d="M21.74,10.31A6.21,6.21,0,1,0,28,16.52,6.23,6.23,0,0,0,21.74,10.31Zm0,9.31a3.11,3.11,0,1,1,3.13-3.1A3.12,3.12,0,0,1,21.74,19.62Z"/></svg>