<svg id="Bases" xmlns="http://www.w3.org/2000/svg" viewBox="0 0 32 32"><defs><style>.cls-1{fill:#f77737;}.cls-2{fill:#dcdbdd;}</style></defs><path class="cls-1" d="M12,13.55l3.89-2.25a.36.36,0,0,1,.32,0l3.89,2.25a.32.32,0,0,1,.16.27v4.5a.32.32,0,0,1-.16.27l-3.89,2.25a.36.36,0,0,1-.32,0L12,18.59a.32.32,0,0,1-.16-.27v-4.5a.32.32,0,0,1,.16-.27"/><path class="cls-2" d="M26.12,15.6,21.47,7.51A1,1,0,0,0,20.65,7h-9.3a1,1,0,0,0-.82.51L5.88,15.58a1,1,0,0,0,0,1l4.65,8a.92.92,0,0,0,.82.44h9.3a.92.92,0,0,0,.82-.44l4.65-8a.91.91,0,0,0,0-.93m-3.85,3.89a.33.33,0,0,1-.18.29l-5.92,3.41a.33.33,0,0,1-.33,0L9.91,19.78a.33.33,0,0,1-.18-.29V12.65a.33.33,0,0,1,.18-.29L15.83,9a.33.33,0,0,1,.33,0l5.93,3.41a.33.33,0,0,1,.18.29Z"/></svg>