<svg id="Bases" xmlns="http://www.w3.org/2000/svg" viewBox="0 0 32 32"><defs><style>.cls-1{fill:#dcdbdd;}.cls-2{fill:#0095d7;}.cls-3{fill:#1ba1e2;}</style></defs><path class="cls-1" d="M30.42,15.69c.8.76,1.17,3.75-1.68,4,.34,1.21-1.71,2.21-3.47,1.75-.19.92-2.47,1.52-3.93.39-.27.93-2.57.73-3.47,0A18.44,18.44,0,0,1,19.6,25c.16.76-.18,1.7-.87,1.73,0,1-1.25,1.8-2.64,1.51a2.08,2.08,0,0,1-2.77.42c-.56.61-1.84.1-2.12-.49-.19-.39-.77-1.94-.94-2.44A2.5,2.5,0,0,1,8,27.27c-2.52,0-7-5.64-7-12.08A12.64,12.64,0,0,1,2,10,11.54,11.54,0,0,1,4.76,6.18,11.67,11.67,0,0,1,12.63,3,6.55,6.55,0,0,1,19,7.84a8.59,8.59,0,0,1,1.36.37c1.21-2.73,4.8-4.56,7.31-3.85a5.69,5.69,0,0,0-1.87,3.73c-.2,1-.45,4.73-5.34,4.6a9,9,0,0,1-.38-.87c-.38.12-.73.25-1.07.39a4.53,4.53,0,0,1-.3.85C21.17,13.32,28.89,14.23,30.42,15.69ZM29,17c0-.33,0-.3-.27-.46-.59-.41-6.76-1.59-10.38-1.94a7.91,7.91,0,0,1-1.15.8,9.53,9.53,0,0,1-5.32,1.24,8.17,8.17,0,0,0,5.33-3.31c-2.13-.7-2-3.94,0-5.89-.3-1-1.38-2.28-4.63-2.28-5.45,0-9.22,4.79-9.22,10.24,0,5.91,3.68,9.1,9.22,9.1,2.28,0,4.63-.56,4.94-3.22-.06-.1-.63-.81-.31-.91.93,1,3.31.9,3.28,0,1.89,1,3.56.13,3.15-.78,1.88.61,3.22-.51,2.52-1.43,1.29.29,2.27.32,2.65-.27-1.19-.3-7.8-1.53-9.15-1.76C21.17,16.16,26.16,16.56,29,17Zm-4.9-6.32c1.26-1.59.7-4.26,2.2-5.6a6.26,6.26,0,0,0-5.14,3.49c.32.16.65.34,1,.54A6.08,6.08,0,0,1,24.84,6a10.72,10.72,0,0,0-2.35,3.32,13.41,13.41,0,0,1,1.2,1Zm-.64.58a8.14,8.14,0,0,0-1.64-.45c-.07.11-.21.43-.27.52s0-.41.06-.57a6.18,6.18,0,0,0-.9-.12A3.09,3.09,0,0,0,21,11.88,4.66,4.66,0,0,0,23.42,11.21ZM23,10.74a8,8,0,0,0-5-2.22,3.43,3.43,0,0,0-.45,3.58,10,10,0,0,1,2.4-1,2,2,0,0,1,0-.34,7.54,7.54,0,0,1-1.56.34,1.34,1.34,0,0,1-1.1-.38,3.07,3.07,0,0,0,1,.13c.89,0,1.47-.53,2.41-.53A7.33,7.33,0,0,1,23,10.74Z"/><path class="cls-2" d="M26.26,5c-1.5,1.34-.94,4-2.2,5.6l-.37-.35a13.41,13.41,0,0,0-1.2-1A10.72,10.72,0,0,1,24.84,6a6.08,6.08,0,0,0-2.75,3.07c-.32-.2-.65-.38-1-.54A6.26,6.26,0,0,1,26.26,5Z"/><path class="cls-2" d="M21.78,10.76a8.14,8.14,0,0,1,1.64.45,4.66,4.66,0,0,1-2.44.67,3.09,3.09,0,0,1-.31-1.29,6.18,6.18,0,0,1,.9.12c0,.16-.05.52-.06.57S21.71,10.87,21.78,10.76Z"/><path class="cls-1" d="M12.6,8.13A1.55,1.55,0,1,1,11,9.67,1.56,1.56,0,0,1,12.6,8.13Z"/><path class="cls-3" d="M26.47,4.88c-4,0-6.94,4.14-5.57,7.11C26.52,12,24.23,6.88,26.47,4.88Z"/></svg>