<svg id="Bases" xmlns="http://www.w3.org/2000/svg" viewBox="0 0 32 32"><defs><style>.cls-1{fill:#f77737;}</style></defs><g id="Logo"><path class="cls-1" d="M22.24,13.65v0h.07a.58.58,0,0,1,0-.1v-.07S22.27,13.56,22.24,13.65Zm-.7-1.75v-.07h-.1v.07Zm-2,4a3.54,3.54,0,0,0-.56-.73c0-.08.12-.2.38-.36l.74-.67a2,2,0,0,0,.3-1.07v-.11a1.06,1.06,0,0,0-.72-.83,2.79,2.79,0,0,0-1.44-.31,8.12,8.12,0,0,0-2.25.64,9.17,9.17,0,0,1-.86.57v.05l.09,0s.06,0,.06.05l.06,0h0v0a2.74,2.74,0,0,1-.6.49l0,.06h0l-.07,0s0,0-.08,0v0l.07.08a.22.22,0,0,1-.1,0,.53.53,0,0,0-.28.18l.05-.2a13.49,13.49,0,0,0,.27-1.61v0a1,1,0,0,1-.27-.26v-.15h0c-.3.45-.86,1.24-1.7,2.34a10.16,10.16,0,0,0-1,1.31c-.26.28-.38.45-.37.51s-.1.09-.09.14,0,0,0,0a.79.79,0,0,1-.49.36l-.23.05s0,0,0,.07v0l.09,0v0l-.19.08-.35.08H9.7s.14,0,.08,0l-.23.06c-.14,0-.21,0-.23,0h0s0,0,0,0v0l-.19.05a4.26,4.26,0,0,0-.73-1c0-.11.16-.26.5-.46l1-.9a2.6,2.6,0,0,0,.39-1.4v-.15a1.4,1.4,0,0,0-1-1.1,3.68,3.68,0,0,0-1.89-.4,11.18,11.18,0,0,0-3,.84,11.28,11.28,0,0,1-1.14.75V13a.21.21,0,0,0,.11,0,.06.06,0,0,1,.08.06l.08,0h0v0a4.48,4.48,0,0,1-.8.65l0,.07h0l-.09,0s0,0-.11.05v0l.09.1a.3.3,0,0,1-.12,0q-.25,0-.51.39l.05.07a1.28,1.28,0,0,1,.25-.22v.12a.25.25,0,0,0-.11,0l.09.14a2.8,2.8,0,0,1,.58-.51c.1,0,.16.06.16.1h.08a6,6,0,0,1,1.7-1v.08c-.11.16-.18.24-.22.25a.35.35,0,0,0,.06.14,15,15,0,0,1-.76,2,56.09,56.09,0,0,1-3,6.39.21.21,0,0,0,.05.11,1.22,1.22,0,0,0,.37-.14h0V22h.08l.07,0s0,0,.08,0V22a.67.67,0,0,1-.12.35,1.75,1.75,0,0,0-.26.59v0H1.4a4.83,4.83,0,0,0,.73-1.09,11.31,11.31,0,0,0,2.13-.84,2,2,0,0,0,1.14-.4v0l-.18.05h0v0a1.65,1.65,0,0,0,.76-.26c.7-.57,1.24-1,1.6-1.21A4.26,4.26,0,0,0,9,17.52l.15,0h.17s0,0,0,0,.08,0,.19,0l.28-.07s0,0,0,0l.05,0h.09l0,.08L8.64,19.54l-.29.37-.13.48h0l.14-.06,0,.19v.06l0,0s0,0,0,0v0h.06c.09-.08.12-.15.11-.21l.18,0v0c-.06,0-.09.06-.09.13v0h0c.46-.53,1.59-2.32,2.5-3.54,0-.13.45-.32,1.42-.55h0a3.32,3.32,0,0,1-.23,1.16,3,3,0,0,0-.17.61,5.36,5.36,0,0,0-.22.8l-.34,1.18a10.51,10.51,0,0,0-.52,1.91s.05,0,.09,0l.05,0s0,0,0,0l0-.09h.15s.09-.07.12-.18,0-.25.09-.26a2.6,2.6,0,0,1,.17-.58,2.3,2.3,0,0,1,.2-.64c.13-.49.22-.74.28-.76l0,.06-.1.26a12.06,12.06,0,0,1-.5,1.82l0,.23h0a51.61,51.61,0,0,0,1.78-5.49.71.71,0,0,1,.33-.56l0,0v0a.29.29,0,0,0,.19-.11s-.08-.05-.23-.09L14.23,14a1.6,1.6,0,0,1,.15-.13V14l-.09,0,.08.11a2.62,2.62,0,0,1,.43-.39c.08,0,.12,0,.13.08H15a5,5,0,0,1,1.3-.72v.06a.72.72,0,0,1-.16.19.23.23,0,0,0,0,.11A10.58,10.58,0,0,1,15.6,15a43.4,43.4,0,0,1-2.26,4.85l0,.08a.78.78,0,0,0,.29-.11h0v.06h.06l.06,0s0,0,.06,0v.06a.56.56,0,0,1-.09.26,1.17,1.17,0,0,0-.21.45v0h.06a3.84,3.84,0,0,0,.55-.83,8.6,8.6,0,0,0,1.62-.64,1.44,1.44,0,0,0,.86-.31v0l-.14.05h0v0a1.34,1.34,0,0,0,.58-.19c.54-.43.94-.74,1.22-.92C19.15,17.09,19.55,16.46,19.5,15.87Zm-.15,0,0,.23c0,.06-.05.09-.08.09l0-.4C19.32,15.85,19.35,15.88,19.35,15.91ZM2.52,14h0V14h.16v0A.21.21,0,0,0,2.52,14Zm-.75,7.8a.45.45,0,0,0-.24-.05v-.12a.08.08,0,0,1,.07-.08s.08,0,.09.1a1.2,1.2,0,0,1,.21-.24l.08,0C2,21.69,1.88,21.81,1.77,21.82Zm8-8.71s-.12-.12-.23-.36v-.08c.07,0,.14.12.22.36Zm-.11-.86,0,.07-1.09-.47C9.27,11.88,9.65,12,9.67,12.25Zm-4.59,4.1H4.92v-.07l.15,0ZM5,13.88H5V14s-.08.06-.14.17v-.08A.36.36,0,0,0,5,13.88Zm-.32.79v.15h0v-.15ZM4.46,15h.07c0,.12,0,.19-.1.2h0A.55.55,0,0,0,4.46,15Zm-.13.39h0v0l-.07.12H4.23v0C4.31,15.46,4.34,15.42,4.33,15.35Zm-.12.35,0,.19h0l0-.19ZM3,19.39c0,.26-.1.39-.16.39v0A.43.43,0,0,1,3,19.39Zm-.23.52v0a.07.07,0,0,1-.06.09v0S2.68,19.92,2.73,19.91ZM2.67,21l.11,0V21a.24.24,0,0,0-.12,0H2.6A.08.08,0,0,1,2.67,21ZM6,19.92a5.69,5.69,0,0,0-1.15.68c-.7.25-1,.41-1,.47-.62.26-1,.45-1.23.56a.36.36,0,0,1-.2-.05.32.32,0,0,1,.17-.32.55.55,0,0,1,.31,0,2.92,2.92,0,0,1,.61-.21V21l-.23,0a3,3,0,0,1,.67-.32H4v0c-.2,0-.31.08-.33.19s0,.07.08.07a1.44,1.44,0,0,0,.22-.17,13,13,0,0,0,2.34-1.28v.07S6.18,19.75,6,19.92Zm-2,.67a.78.78,0,0,0,.48-.23.06.06,0,0,1,.08.06,1.82,1.82,0,0,0-.52.24H4Zm3.16-2.53-1,.81A8.35,8.35,0,0,1,5,19.62a8.77,8.77,0,0,1-2.16,1h0q.06-.19,1.56-3.3a8.24,8.24,0,0,0,2.08-.64l.23,0A1.31,1.31,0,0,1,7.73,17v.15C7.57,17.66,7.37,18,7.16,18.06ZM5.24,16.94H5.4v0l-.16,0Zm2.22-.39h.12c.1.05.16.1.16.14v0C7.64,16.73,7.55,16.67,7.46,16.55ZM8,14.41c-.13.19-.21.28-.25.29a4.58,4.58,0,0,1-.84.64A12.25,12.25,0,0,0,5.25,16a.22.22,0,0,0-.16,0v-.07a1,1,0,0,1,.19-.55c.08-.42.16-.66.25-.71l.81-1.9c0-.12.17-.21.52-.27H7v.11l.65-.1c.64-.06,1,.08,1,.41h.07l0-.19h.08a.54.54,0,0,1,.31.4.61.61,0,0,1-.17.39c-.05,0-.07,0-.08-.11H8.75l0,.23C8.41,14.13,8.17,14.39,8,14.41ZM8.27,16A.35.35,0,0,0,8.11,16v-.12h.08l.16.1C8.34,16,8.32,16,8.27,16Zm.52.64q.11,0,.12.09h0l0,0h0s0,0-.06,0l0,0Zm.05.32v0l.09,0v0Zm.21.26a2.87,2.87,0,0,0,.33-.07v0l-.34.09Zm.34.14a2.28,2.28,0,0,0-.34.05v0l.28-.09.13,0,0,0C9.42,17.35,9.46,17.35,9.39,17.38Zm.3-.07s-.06,0-.08,0l.09,0s.06,0,.07,0Zm.81-.91v0l.14,0v.05Zm.87,5.54a.34.34,0,0,0,0-.09h0s.06,0,.07.05v0Zm.61-5.3h-.06a1.17,1.17,0,0,1-.25.08l-.06,0a.06.06,0,0,1-.07,0l.4-.1.14-.07,0,.06A.26.26,0,0,0,12,16.64Zm.32-.1v0a.15.15,0,0,0,.08-.05l.28-.06v0A1.16,1.16,0,0,0,12.3,16.54Zm0-.61a.15.15,0,0,0-.08.05s0,0-.12,0,.2-.14.64-.25h.06v0Zm.78-.88c0,.37-.16.58-.38.63v0l-.2.08-.09,0h-.12l0-.08a14.67,14.67,0,0,1,.85-1.22h.07A1.21,1.21,0,0,1,13.12,15.05Zm1.38-1.22h0v-.06h.12v0Zm-.57,5.92a.33.33,0,0,0-.18,0v-.09a.06.06,0,0,1,0-.06s.07,0,.07.08a1.07,1.07,0,0,1,.16-.19l.06,0C14.06,19.65,14,19.74,13.93,19.75ZM20,13.13s-.09-.08-.17-.27V12.8c.06,0,.11.09.17.27Zm-.08-.66,0,.06-.82-.36C19.63,12.2,19.91,12.29,19.93,12.47Zm-3.49,3.12h-.12v-.06h.11Zm-.1-1.87h0v.08s-.06,0-.1.13v-.06C16.32,13.8,16.35,13.75,16.34,13.72Zm-.24.6v.11h0v-.12Zm-.13.21H16c0,.1,0,.15-.08.15h0A.32.32,0,0,0,16,14.53Zm-.09.3h0v0l-.06.09h0v0A.09.09,0,0,0,15.88,14.83Zm-.1.27,0,.15h0l0-.15Zm-.95,2.8q0,.3-.12.3v0A.33.33,0,0,1,14.83,17.9Zm-.17.39v0s0,.06-.05.07v0A.07.07,0,0,1,14.66,18.29Zm-.05.82h.09v0l-.09,0h0S14.57,19.12,14.61,19.11Zm2.5-.81a6.06,6.06,0,0,0-.88.52c-.53.19-.8.31-.79.36a6.88,6.88,0,0,0-.93.43.32.32,0,0,1-.16-.05.27.27,0,0,1,.13-.24.47.47,0,0,1,.24,0,2.29,2.29,0,0,1,.46-.16v-.05H15a2.12,2.12,0,0,1,.51-.25h.09v0c-.15,0-.24.06-.25.14s0,.06.06.05a.5.5,0,0,0,.16-.13,8.56,8.56,0,0,0,1.78-1v.06S17.27,18.18,17.11,18.3Zm-1.49.51a.56.56,0,0,0,.36-.17s.06,0,.07.05a1.58,1.58,0,0,0-.4.18h0ZM18,16.89l-.74.62a5.71,5.71,0,0,1-.9.57,6.54,6.54,0,0,1-1.64.79h0c0-.1.42-.94,1.18-2.51a6.13,6.13,0,0,0,1.57-.49h.18a.93.93,0,0,1,.81.22v.11C18.33,16.59,18.18,16.82,18,16.89ZM16.57,16h.11v0h-.12Zm1.68-.3h.09c.08,0,.12.07.13.11v0C18.39,15.88,18.32,15.84,18.25,15.74Zm.23-1.4a3.18,3.18,0,0,1-.63.49,7.54,7.54,0,0,0-1.28.52.25.25,0,0,0-.12,0v-.06a.65.65,0,0,1,.14-.41c.05-.32.12-.5.19-.54l.62-1.45c0-.08.12-.15.39-.2h.09v.09l.5-.08c.49,0,.74.06.76.31h.06v-.14h.06a.38.38,0,0,1,.22.29.48.48,0,0,1-.11.3s-.06,0-.07-.08h-.06l0,.17q-.36.59-.54.6A.63.63,0,0,1,18.48,14.34Zm.26.87h.06l.12.07a.07.07,0,0,1-.05.07.24.24,0,0,0-.12,0Zm-9,1.38.07,0,0-.06H9.73Zm-1.4,4.34-.05,0s0,.05.07,0a.05.05,0,0,0,0-.07v0Zm-.16-.44s.05,0,0-.07v0s-.05,0-.05.07Zm22.7-2.64h0v.06H31S30.91,17.85,30.88,17.85Zm-.83.49v.05l.1,0v-.05Zm-4.19-1-.06,0a1.07,1.07,0,0,0-.07.25v0C25.78,17.57,25.82,17.48,25.86,17.32Zm4.86.4s0,0,0,0,0,0,0,0v0l0,0,0,0h0l0,.06.09,0h0v-.05ZM29,18.49v.06h.08l.08,0c.67-.08.74-.05.74-.13v0A3.37,3.37,0,0,1,29,18.49Zm1.67-.74h0Zm-5.23,1.17-.15,0,0,.06v0l.9-.07v-.06Zm.83-.07v.06h0v-.06Zm-1.24-2h0l-.06,0,0,.05s.06,0,.05-.06Zm5.44,1.05s0,0,0,0h0a.05.05,0,0,0,0-.06l0-.06a.82.82,0,0,0-.35.09v0l-.19,0c0-.06,0-.09,0-.08h-.1c-.11,0-.16,0-.22,0s0,0,0,0H29.5l-.06,0s0,0,0,0l0,0v0l-.15,0h0v.05l.08,0h.07a.11.11,0,0,0,.08,0l.06,0v0a4,4,0,0,1-.58.12l-.05,0h0s-.06,0-.06-.05l.12,0L29,18c.1-.05.1-.07.15-.07v-.06a3.45,3.45,0,0,1-.63.06h0v-.05c.55-.07.37,0,.56-.09,0,0,0,0,0,0a.1.1,0,0,1,.07,0h0a2.11,2.11,0,0,0,.64-.09v0l.07,0H30c0-.06.08-.07.11-.07v-.06c-.67.14-.85.1-1,.15v0a.77.77,0,0,1-.23,0s0,0-.05,0,0,0,0,0h0l-.58.1s0,0,0,0a2.15,2.15,0,0,1-.61.11l-.07,0a0,0,0,0,0,0,0l-.25,0-.16,0a0,0,0,0,0,0,0,1.39,1.39,0,0,1-.23.05h0s0,0,0,0l-.05,0h-.28L26,18h-.16s0,0,0,0c-.18,0-.28-.06-.28-.09s.07-.27.13-.28h0l0,.06h0q.09,0,.09-.09v-.06h-.06v-.06a.24.24,0,0,1,0-.12l.13-.22v.06h.06v-.05l0-.06a.24.24,0,0,1,.11-.06v0h-.08v-.09a2.23,2.23,0,0,0,.24-.63l.06,0s.06,0,.06-.07h-.06v0a.17.17,0,0,1,0-.12.39.39,0,0,0,.12-.3,0,0,0,0,1,0,0,.55.55,0,0,0,.18-.37,11,11,0,0,0,.59-1.55,9.24,9.24,0,0,0,.54-1.84h-.06a.17.17,0,0,1,0,.12.18.18,0,0,0-.09,0v0a.72.72,0,0,1,.14-.42h0l.05.2h.06a.86.86,0,0,1,0-.24s0,0-.07,0l0,0a1.55,1.55,0,0,1,0-.32h0a.19.19,0,0,1-.07-.12l-.32,0a.26.26,0,0,0,0-.1s.07-.06.22-.09l.06,0,.06,0s0,0,0,0l.06,0s0,0,0,0h0V11h-.35l-.06,0v0l-2.54.22h-.32s0,0-.06,0l-.07,0-.22.06a1.16,1.16,0,0,1-.25,0,.29.29,0,0,1-.13.05l.64,0a.26.26,0,0,1-.15.05.25.25,0,0,1-.13,0,3.72,3.72,0,0,1-.47.11l-.07,0-1,.17a.22.22,0,0,0-.14,0,1.08,1.08,0,0,0-.28.06l-.5.22,0,.06a.19.19,0,0,0,.1,0l.18,0,0,.17a.48.48,0,0,0-.28.33c-.25.12-.37.2-.37.25v0h0l.07,0,.07.09v.14s-.41.95-1.24,2.72-1.1,2.65-1.13,2.82c-.25.07-.39.17-.43.31s.07.08.22.09v.06l-.06.11v.14c0,.07.18.12.54.16,0,0,0,0,0,0a1.9,1.9,0,0,1-.06.49h0c.15-.21.22-.35.21-.43h0s.08,0,.12.13a6.29,6.29,0,0,0-.47,1.11l0,.06h0a8.44,8.44,0,0,1,.61-1.43l2.23-.24.06,0s0,0,0,0h.07l.07,0s0,0,0,0l.8-.07c.21,0,.31-.09.3-.2s.12-.07.37-.1a.16.16,0,0,1,.11,0s.13,0,.38-.07c0-.14.05-.21.12-.22v-.06a.92.92,0,0,0-.25,0,1.19,1.19,0,0,1-.31,0l-.11.05h-.55l-.07,0s0,0,0,0h0l-.07,0s-.06,0-.18-.05l-.07,0-.13,0v0c.72-.08,1.07-.18,1.06-.3s.07,0,.08.06L24,18V17.9L22.29,18a0,0,0,0,1,0,0L22,18a.25.25,0,0,0-.13.05l-.08,0a2.94,2.94,0,0,0-.48.08,2.72,2.72,0,0,0-.49,0l-.39,0-.17,0A9.26,9.26,0,0,1,21,16.35a1.43,1.43,0,0,1,.37-.65l.11,0,.27-.1.14,0a3,3,0,0,0,.82-.21.44.44,0,0,1,.18,0l.21-.05.62-.06a3.68,3.68,0,0,0,.86-.18V15.1c-.12,0-.18,0-.18,0s-.09-.13-.26-.12v-.06l.17-.06.45,0v-.06h-.27v-.07l.17,0a.06.06,0,0,0,.07-.07c-.24,0-.35,0-.36,0a14,14,0,0,1-2.44.05.25.25,0,0,0-.11,0l0-.07a5,5,0,0,1,.76-1.44.49.49,0,0,1-.06.17v0h.06c.18-.43.32-.65.44-.66.51,0-.07-.08,1-.26l.1,0c.43-.09,1-.19,1.8-.28v-.07l-.41,0V12a.17.17,0,0,0,.12,0v0l.1,0a.26.26,0,0,1,.16,0,1.37,1.37,0,0,1,.34-.07l.26,0c.06,0,.09-.08.08-.11v0a.9.9,0,0,1-.22,0s0-.06.05-.07l.48-.05.22-.06s0,0,0,0l.09-.05h0c0,.07-.06.15-.1.27H27a.28.28,0,0,0,0-.12h0c-.58,1.67-.83,2.45-1.37,3.74-.1.32-.18.51-.25.54a.05.05,0,0,0,.06.06.85.85,0,0,1-.11.48,5.37,5.37,0,0,1-.49,1.21l.05.35s0,.06-.05.07h-.06c0-.1,0-.14-.1-.14h0a1.32,1.32,0,0,0-.17.42h.05a.19.19,0,0,0,.11-.19h.12l.06,0a.46.46,0,0,0-.07.21l0,.05-.07.19v0a.32.32,0,0,1,.22.06.34.34,0,0,0,.17-.07h.74l.22-.08a4.55,4.55,0,0,0,.53,0h.1l0,0v0a1.55,1.55,0,0,1,.44,0v0l-.13,0v.05a.15.15,0,0,0,.11,0s.05,0,.06.06a.58.58,0,0,0-.18,0l-.06,0a.63.63,0,0,1-.14,0l-.09,0s0,0,0,0,0,.05.06.05h.11l.47,0,.18,0s0,0,0,0l.09,0,.16,0a3.75,3.75,0,0,0,.41-.07,0,0,0,0,1,0,0v0a3.36,3.36,0,0,0,.56-.11h0c.11,0,0,0,.08,0s0,0,0,0H29v-.06h-.2l-.19,0-.41,0v0l.23,0h.08l.05,0v0a7.63,7.63,0,0,0,1.91-.28c.08,0,.08-.07.13-.22a.08.08,0,0,1-.08,0,2.09,2.09,0,0,1-.42.07S30,18,30,18v0h.23A.71.71,0,0,0,30.48,17.89Zm-10.95.2h-.1a1.91,1.91,0,0,1,.16-.49h.07A1.63,1.63,0,0,1,19.53,18.09Zm.13-.53v0s0-.06.07-.07v0C19.73,17.54,19.71,17.56,19.66,17.56Zm1.39,1.12v0l-.17,0v0Zm-.21,0s-.05.08-.17.12h-.28V18.7Zm1.4-6.72h-.1v0s0-.06.06-.07h0l.07,0C22.31,11.91,22.29,11.93,22.24,11.94Zm1.59-.32h0v.07h-.09S23.79,11.63,23.83,11.62Zm-.4.14-.15,0v0a1.46,1.46,0,0,0,.4-.08s0,0,.07,0v.07h-.07a.21.21,0,0,1-.12,0A.21.21,0,0,1,23.43,11.76Zm.2.6v0l.26,0v0Zm.28-.23v0H24v0Zm0-.46h0l0-.07.28,0v0Zm.15.64v-.06l.13,0s.06,0,.07.07Zm.78-1.07-.19,0h-.32A3.92,3.92,0,0,0,24.86,11.24Zm-.2.74v0l-.22,0v0Zm.36.18s0,0-.13-.05l-.22.06h-.16s-.07,0-.07-.06h.2l.44-.07h.22v0A1.06,1.06,0,0,0,25,12.16Zm2.26-.61h.06a.81.81,0,0,1,.26-.18,1.61,1.61,0,0,1-.37.8l-.12-.08A3,3,0,0,0,27.28,11.55Zm-.38.69h0c-.05.09-.08.13-.12.13v-.08Zm-.24.61a1,1,0,0,1,.17-.43v0c0,.24-.08.36-.14.37V13a.33.33,0,0,0-.08.18h0l0-.2A.13.13,0,0,0,26.66,12.85Zm-.1.33a.66.66,0,0,1-.06.24h0v-.08C26.5,13.24,26.54,13.18,26.56,13.18ZM24.77,18.6v0h.05v.08S24.78,18.64,24.77,18.6Zm2.56.07s0,0,0,0h-.14v0s0,0,0,0,0,0,0,0l.34,0v0C27.41,18.63,27.35,18.64,27.33,18.67Zm-.15-.49H27v0h.18l.15,0s0,0,0,0l.25-.05s0,0,.05.06Zm.48-.08v0l.17,0v0s.05,0,0,0Zm.2,0v0H28v0Zm.21,0v0a.09.09,0,0,0,.06,0,.07.07,0,0,1,.08.07Zm.26,0v0h.11v0Zm.16,0s0-.06,0-.07l0,.06s0,0,0,0l0,.05Zm-1.68.75v-.06h0v.06Z"/></g></svg>