<svg id="Bases" xmlns="http://www.w3.org/2000/svg" viewBox="0 0 32 32"><defs><style>.cls-1{fill:#dcdbdd;}.cls-2{fill:#1ba1e2;}</style></defs><path class="cls-1" d="M20.27,1H5.51A2.46,2.46,0,0,0,3,3.5v25A2.46,2.46,0,0,0,5.51,31h20.8A2.59,2.59,0,0,0,29,28.5V8.5ZM26.4,28.5H5.6V3.5h13V11h7.8Z"/><rect class="cls-2" x="8.2" y="6" width="2.6" height="2.5"/><rect class="cls-2" x="8.2" y="11" width="2.6" height="2.5"/><rect class="cls-2" x="8.2" y="16" width="2.6" height="2.5"/><rect class="cls-2" x="8.2" y="21" width="2.6" height="2.5"/><rect class="cls-2" x="8.2" y="26" width="2.6" height="2.5"/><rect class="cls-2" x="18.6" y="21" width="2.6" height="2.5"/><rect class="cls-2" x="23.8" y="21" width="2.6" height="2.5"/><rect class="cls-2" x="13.4" y="21" width="2.6" height="2.5"/></svg>