<svg id="Bases" xmlns="http://www.w3.org/2000/svg" viewBox="0 0 32 32"><defs><style>.cls-1{fill:#dcdbdd;}.cls-2{fill:#f77737;}</style></defs><path class="cls-1" d="M21.27,2a.76.76,0,0,1,.43.22c.21.18.32.4.26.49h0L19,5.88,18.45,8c2.09.13,3.55.43,3.55.78L20.48,22.13l-1,1.74-.25,4.32c0,.45-1.47.81-3.27.81s-3.27-.36-3.27-.81L12.44,24l-1.09-1.88L10,8.81C10,8.34,12.69,8,16,8c.48,0,1,0,1.41,0L18,5.41,21.18,2a.1.1,0,0,1,.09,0m0-1a1.13,1.13,0,0,0-.85.38L17.3,4.73a1,1,0,0,0-.24.44L16.63,7H16C9,7,9,8.16,9,8.81a.34.34,0,0,0,0,.1l1.35,13.3a.94.94,0,0,0,.13.4l1,1.68.26,3.94C11.77,29.77,14.41,30,16,30s4.22-.23,4.27-1.78l.24-4.07.85-1.54a1.15,1.15,0,0,0,.12-.37L23,8.92a.41.41,0,0,0,0-.11c0-1-.89-1.44-3.29-1.68l.19-.76,2.78-3a1.08,1.08,0,0,0,.2-.29,1.43,1.43,0,0,0-.52-1.64A1.71,1.71,0,0,0,21.27,1Z"/><path class="cls-2" d="M13.37,13.48c.35.09.38.71.68.69.71,0-.11-1.25-.73-1.28-1.36-.07-2.22,2-2.59,3.09l.2,2c.82.4,1.46-.42,1.81-.74,0,.22-.58,1.48-.21,1.6s.52-.92.82-1.89.65-1.86.29-2-.47.85-.64,1.18-1.63,2-1.79.85a5.57,5.57,0,0,1,1.32-3.15A1,1,0,0,1,13.37,13.48Z"/><path class="cls-2" d="M21.08,16.61a2.66,2.66,0,0,1-1.4.9c-.43,0,1.31-1.07,1-1.84s-1.26,0-1.53.32c.06-.2.11-.46-.16-.48s-.26.79-.67,1.28a1.81,1.81,0,0,1-1.06.65c-.42.15.47-1.85,1-3.06.11-.25.37-.94.06-1.05s-.71,1.25-1.16,2.33-.4,1.41-.53,1.56-.55.33-.63.26c-.42-.31.69-1.91.37-2.05s-.71,1.07-.85,1.26c0,0-.75,1-1,.81s.08-.72.28-1.19c.1-.22.45-.77.16-.89s-1.49,2.31-.74,2.6c.58.22,1-.32,1.27-.7-.1.91.76.72,1.16.38.25.71,1.21-.05,1.48-.25-.23.78-1.05,2.08-.69,2.28s.89-1.4,1.05-1.77c.43-1,.86-2,1.72-2,.4,0-1.16,1-1.08,1.71.08.86,1.45.1,1.88-.33Z"/></svg>