<svg id="Bases" xmlns="http://www.w3.org/2000/svg" viewBox="0 0 32 32"><defs><style>.cls-1{fill:#f77737;}</style></defs><g id="Logo"><path class="cls-1" d="M22.9,13.65v0H23a.14.14,0,0,1,0-.1v-.07S22.92,13.56,22.9,13.65Zm-.74-1.75v-.07h-.11v.07Zm-2.12,4a3.27,3.27,0,0,0-.58-.73c0-.08.13-.2.4-.36l.77-.67a2,2,0,0,0,.3-1.07v-.11c0-.34-.27-.62-.74-.83a3,3,0,0,0-1.5-.31,8.62,8.62,0,0,0-2.33.64,10.33,10.33,0,0,1-.91.57v.05l.09,0s.06,0,.06.05l.06,0h0v0a2.94,2.94,0,0,1-.62.49l0,.06h0l-.07,0s0,0-.08,0v0l.07.08a.22.22,0,0,1-.1,0,.52.52,0,0,0-.29.18l0-.2a12.07,12.07,0,0,0,.29-1.61v0a1,1,0,0,1-.28-.26v-.15h0c-.3.45-.89,1.24-1.76,2.34a10.78,10.78,0,0,0-1,1.31c-.27.28-.4.45-.38.51s-.11.09-.1.14,0,0,0,0a.86.86,0,0,1-.52.36l-.24.05a.07.07,0,0,0-.05.07v0l.09,0v0l-.21.08-.36.08H9.85s.15,0,.09,0l-.24.06c-.14,0-.22,0-.24,0h0s0,0,0,0v0l-.19.05a4.91,4.91,0,0,0-.77-1c0-.11.16-.26.52-.46l1-.9a2.59,2.59,0,0,0,.4-1.4v-.15c0-.45-.37-.82-1-1.1a4,4,0,0,0-2-.4,12,12,0,0,0-3.07.84,13.73,13.73,0,0,1-1.19.75V13a.24.24,0,0,0,.12,0s.07,0,.08.06l.08,0h0v0a4.17,4.17,0,0,1-.83.65l0,.07h0l-.09,0s0,0-.12.05v0l.09.1a.3.3,0,0,1-.12,0,.78.78,0,0,0-.54.39l.05.07a2.12,2.12,0,0,1,.26-.22v.12l-.11,0,.09.14a2.9,2.9,0,0,1,.6-.51c.11,0,.17.06.17.1h.09a6.18,6.18,0,0,1,1.77-1v.08c-.11.16-.18.24-.22.25a.25.25,0,0,0,.06.14,14.12,14.12,0,0,1-.8,2A54.53,54.53,0,0,1,.81,21.92a.21.21,0,0,0,0,.11,1.43,1.43,0,0,0,.39-.14h0V22h.08l.08,0s0,0,.08,0V22a.62.62,0,0,1-.13.35,1.93,1.93,0,0,0-.27.59v0h.07A4.41,4.41,0,0,0,2,21.9a12,12,0,0,0,2.22-.84,2.09,2.09,0,0,0,1.18-.4v0l-.2.05h0v0a1.76,1.76,0,0,0,.79-.26c.74-.57,1.29-1,1.67-1.21a4.3,4.3,0,0,0,1.5-1.66l.14,0h.18s0,0,0,0,.09,0,.2,0l.29-.07s0,0,0,0l.05,0h.1l0,.08L8.75,19.54l-.29.37-.15.48h0l.14-.06,0,.19v.06l0,0s0,0,0,0v0h.06c.08-.08.12-.15.11-.21a.8.8,0,0,0,.19,0v0c-.05,0-.08.06-.09.13v0h0c.48-.53,1.66-2.32,2.61-3.54,0-.13.46-.32,1.48-.55h0a3.19,3.19,0,0,1-.24,1.16,3,3,0,0,0-.17.61,3.86,3.86,0,0,0-.23.8l-.36,1.18a11.41,11.41,0,0,0-.54,1.91.19.19,0,0,1,.1,0l0,0s0,0,0,0l0-.09h.16q.08,0,.12-.18c0-.16,0-.25.09-.26a2.9,2.9,0,0,1,.18-.58,2.75,2.75,0,0,1,.2-.64c.14-.49.24-.74.3-.76l0,.06-.1.26A11.6,11.6,0,0,1,12,21.85l0,.23h0a46.61,46.61,0,0,0,1.86-5.49.7.7,0,0,1,.35-.56l0,0v0a.32.32,0,0,0,.19-.11s-.08-.05-.24-.09l.4-1.72a1.6,1.6,0,0,1,.15-.13V14l-.09,0,.08.11a2.74,2.74,0,0,1,.45-.39c.08,0,.13,0,.13.08h.06a5.24,5.24,0,0,1,1.35-.72v.06c-.08.12-.13.18-.16.19a.23.23,0,0,0,0,.11A10.39,10.39,0,0,1,16,15a39.5,39.5,0,0,1-2.34,4.85s0,0,0,.08a.78.78,0,0,0,.3-.11h0v.06h.07l.05,0s0,0,.07,0v.06a.5.5,0,0,1-.1.26,1.58,1.58,0,0,0-.21.45v0H14a3.63,3.63,0,0,0,.57-.83,9.34,9.34,0,0,0,1.69-.64,1.6,1.6,0,0,0,.9-.31v0l-.15.05h0v0a1.39,1.39,0,0,0,.59-.19c.56-.43,1-.74,1.27-.92C19.68,17.09,20.1,16.46,20,15.87Zm-.15,0,0,.23c0,.06-.05.09-.08.09l0-.4C19.86,15.85,19.89,15.88,19.89,15.91ZM2.39,14h0V14H2.5v0A.24.24,0,0,0,2.39,14Zm-.78,7.8a.49.49,0,0,0-.25-.05v-.12s0-.07.08-.08.08,0,.08.1a2.23,2.23,0,0,1,.22-.24l.09,0Q1.78,21.81,1.61,21.82Zm8.32-8.71s-.11-.12-.23-.36v-.08c.07,0,.15.12.23.36Zm-.11-.86,0,.07-1.13-.47C9.41,11.88,9.8,12,9.82,12.25Zm-4.77,4.1H4.89v-.07l.16,0Zm-.13-2.47H5V14s-.09.06-.15.17v-.08A.33.33,0,0,0,4.92,13.88Zm-.34.79,0,.15h0l0-.15ZM4.41,15h.07c0,.12,0,.19-.1.2h0A.44.44,0,0,0,4.41,15Zm-.13.39h0v0l-.07.12H4.17v0A.11.11,0,0,0,4.28,15.35Zm-.13.35,0,.19h0v-.19Zm-1.3,3.69c-.05.26-.11.39-.17.39v0A.41.41,0,0,1,2.85,19.39Zm-.24.52v0s0,.08-.07.09v0S2.56,19.92,2.61,19.91ZM2.54,21l.12,0V21a.24.24,0,0,0-.12,0H2.47A.08.08,0,0,1,2.54,21ZM6,19.92a6.24,6.24,0,0,0-1.19.68c-.73.25-1.09.41-1.09.47-.64.26-1.07.45-1.28.56a.39.39,0,0,1-.21-.05.33.33,0,0,1,.18-.32.59.59,0,0,1,.32,0,3,3,0,0,1,.63-.21V21l-.25,0a3.44,3.44,0,0,1,.7-.32h.12v0c-.2,0-.32.08-.34.19s0,.07.08.07a.93.93,0,0,0,.23-.17A13.36,13.36,0,0,0,6.3,19.55v.07S6.19,19.75,6,19.92Zm-2,.67a.76.76,0,0,0,.5-.23c.06,0,.09,0,.09.06a2,2,0,0,0-.54.24h0Zm3.29-2.53-1,.81A8.51,8.51,0,0,1,5,19.62a9.38,9.38,0,0,1-2.25,1h0c0-.13.57-1.23,1.61-3.3a8.69,8.69,0,0,0,2.16-.64l.24,0A1.42,1.42,0,0,1,7.81,17v.15C7.64,17.66,7.43,18,7.21,18.06Zm-2-1.12h.16v0l-.17,0Zm2.31-.39h.12c.11.05.17.1.17.14v0A.34.34,0,0,1,7.53,16.55Zm.32-1.85a4.84,4.84,0,0,1-.87.64A13.25,13.25,0,0,0,5.22,16a.22.22,0,0,0-.16,0v-.07a.88.88,0,0,1,.19-.55c.08-.42.17-.66.26-.71l.84-1.9q0-.18.54-.27H7v.11l.68-.1c.67-.06,1,.08,1,.41h.08l0-.19h.08a.54.54,0,0,1,.32.4.61.61,0,0,1-.17.39s-.08,0-.09-.11H8.87l0,.23c-.34.51-.59.77-.74.79C8,14.6,7.89,14.69,7.85,14.7ZM8.37,16A.38.38,0,0,0,8.2,16v-.12h.08l.17.1C8.45,16,8.42,16,8.37,16Zm.54.64q.11,0,.12.09H9l0,0H9s0,0-.06,0l-.06,0ZM9,17v0l.1,0v0Zm.23.26a2.87,2.87,0,0,0,.33-.07v0l-.35.09A.07.07,0,0,1,9.19,17.24Zm.34.14a2.36,2.36,0,0,0-.35.05v0l.3-.09.14,0v0C9.56,17.35,9.61,17.35,9.53,17.38Zm.31-.07a.05.05,0,0,1-.07,0l.09,0s.06,0,.07,0Zm.85-.91v0l.15,0v.05Zm.9,5.54s0-.07,0-.09h0a.06.06,0,0,1,.08.05v0Zm.64-5.3h-.07a1.23,1.23,0,0,1-.26.08l-.06,0s-.06,0-.08,0l.43-.1.14-.07,0,.06A.23.23,0,0,0,12.23,16.64Zm.32-.1v0s0,0,.08-.05l.3-.06v0A1.42,1.42,0,0,0,12.55,16.54Zm0-.61a.15.15,0,0,0-.08.05s0,0-.13,0,.21-.14.67-.25h.06l0,0Zm.81-.88q0,.55-.39.63v0l-.2.08-.09,0h-.13l0-.08a13.77,13.77,0,0,1,.89-1.22h.07A1.4,1.4,0,0,1,13.41,15.05Zm1.43-1.22h0v-.06h.12v0Zm-.59,5.92a.34.34,0,0,0-.19,0v-.09s0-.05,0-.06.06,0,.07.08a.88.88,0,0,1,.17-.19l.06,0C14.39,19.65,14.33,19.74,14.25,19.75Zm6.32-6.62s-.09-.08-.18-.27V12.8q.09,0,.18.27Zm-.08-.66,0,.06-.86-.36C20.18,12.2,20.47,12.29,20.49,12.47Zm-3.63,3.12h-.12v-.06h.12Zm-.1-1.87h0v.08s-.06,0-.11.13v-.06A.31.31,0,0,0,16.76,13.72Zm-.25.6v.11h0v-.12Zm-.14.21h.06c0,.1,0,.15-.07.15h0A.24.24,0,0,0,16.37,14.53Zm-.09.3h0v0l-.06.09h-.06v0A.09.09,0,0,0,16.28,14.83Zm-.1.27,0,.15h0V15.1Zm-1,2.8q-.06.3-.12.3v0A.33.33,0,0,1,15.19,17.9Zm-.18.39v0s0,.06,0,.07v0A.07.07,0,0,1,15,18.29Zm0,.82h.09v0l-.09,0H14.9S14.92,19.12,15,19.11Zm2.59-.81a5.6,5.6,0,0,0-.9.52c-.56.19-.83.31-.83.36a8.36,8.36,0,0,0-1,.43.34.34,0,0,1-.16-.05.24.24,0,0,1,.14-.24.47.47,0,0,1,.24,0,2.91,2.91,0,0,1,.48-.16v-.05h-.19a2.28,2.28,0,0,1,.53-.25H16v0c-.16,0-.25.06-.27.14s0,.06.07.05A.65.65,0,0,0,16,19a9.31,9.31,0,0,0,1.85-1v.06S17.73,18.18,17.55,18.3ZM16,18.81a.6.6,0,0,0,.38-.17s.06,0,.06.05a1.75,1.75,0,0,0-.41.18h0Zm2.5-1.92-.77.62a6.47,6.47,0,0,1-.94.57,6.81,6.81,0,0,1-1.71.79h0c0-.1.44-.94,1.23-2.51a6.65,6.65,0,0,0,1.64-.49h.18a1,1,0,0,1,.85.22v.11C18.83,16.59,18.67,16.82,18.51,16.89ZM17,16h.13v0H17Zm1.75-.3h.1c.08,0,.13.07.13.11v0C18.89,15.88,18.82,15.84,18.74,15.74Zm.25-1.4a3.82,3.82,0,0,1-.66.49,7.87,7.87,0,0,0-1.33.52.27.27,0,0,0-.13,0v-.06a.71.71,0,0,1,.14-.41c.07-.32.13-.5.2-.54l.65-1.45c0-.08.12-.15.4-.2h.1v.09l.52-.08c.51,0,.77.06.79.31h.06v-.14h.06a.39.39,0,0,1,.24.29.53.53,0,0,1-.13.3s-.06,0-.06-.08h-.06l0,.17c-.26.39-.45.59-.56.6S19,14.33,19,14.34Zm.26.87h.06l.13.07s0,.06-.06.07a.19.19,0,0,0-.12,0ZM9.9,16.59l.07,0,0-.06H9.88ZM8.44,20.93l0,0s0,.05.07,0,0,0,0-.07v0Zm-.17-.44s.06,0,.05-.07v0a.05.05,0,0,0,0,.07Zm23.61-2.64h0v.06H32S31.91,17.85,31.88,17.85Zm-.17-.13s0,0,0,0,0,0,0,0v0l0,0,0,0h0l-.05.06.1,0h0v-.05Zm0,0h0Zm-4.58,1.1v.06h0v-.06Zm-1.28-2h0l-.06,0,0,.05a.05.05,0,0,0,.06-.06Zm4.12,1.65v.06H30l.07,0c.7-.08.78-.05.77-.13v0A3.6,3.6,0,0,1,29.93,18.49Zm-3.28-1.17-.06,0a1.07,1.07,0,0,0-.07.25v0C26.57,17.57,26.61,17.48,26.65,17.32Zm4.37,1v.05l.1,0v-.05Zm-4.79.58-.15,0,0,.06v0l.94-.07v-.06Zm1.42-.15v-.06h0v.06Zm3.8-.88s0,0,0,0h0a.05.05,0,0,0,0-.06l0-.06a.83.83,0,0,0-.36.09v0l-.19,0c0-.06,0-.09,0-.08h-.1c-.12,0-.17,0-.23,0s0,0,0,0h-.11l-.07,0s0,0,0,0l0,0v0l-.16,0h0v.05l.08,0h.07a.15.15,0,0,0,.09,0l.06,0v0a5.23,5.23,0,0,1-.61.12l0,0h0s-.07,0-.07-.05l.13,0,.09,0c.1-.05.11-.07.16-.07v-.06a3.92,3.92,0,0,1-.66.06h0v-.05c.57-.07.38,0,.58-.09,0,0,0,0,0,0a.12.12,0,0,1,.08,0h0a2.22,2.22,0,0,0,.66-.09v0l.06,0h.06c0-.06.09-.07.12-.07v-.06c-.7.14-.88.1-1.07.15v0a.79.79,0,0,1-.23,0,.07.07,0,0,0-.06,0s0,0,0,0h0l-.6.1s0,0,0,0a2.48,2.48,0,0,1-.64.11l-.07,0s0,0,0,0l-.25,0-.17,0a0,0,0,0,0,0,0,1.48,1.48,0,0,1-.24.05h0s0,0,0,0l-.05,0H27.2l-.45.07h-.16a0,0,0,0,1,0,0c-.19,0-.29-.06-.29-.09s.07-.27.13-.28h0l0,.06h0q.09,0,.09-.09v-.06h-.06v-.06a.24.24,0,0,1,0-.12l.14-.22v.06h.07v-.05l0-.06c.05,0,.08-.06.11-.06v0h-.09v-.09a3,3,0,0,0,.25-.63l.06,0s.06,0,.06-.07H27v0a.17.17,0,0,1,0-.12.4.4,0,0,0,.13-.3,0,0,0,0,1,0,0,.6.6,0,0,0,.19-.37A13.29,13.29,0,0,0,28,13.93a8.65,8.65,0,0,0,.56-1.84h-.06a.5.5,0,0,1,0,.12l-.1,0v0a.67.67,0,0,1,.15-.42h0l0,.2h.06a1.71,1.71,0,0,1,0-.24s0,0-.07,0l-.06,0s0-.15,0-.32h0c-.05,0-.08-.09-.08-.12l-.33,0a.16.16,0,0,0,0-.1s.07-.06.23-.09l.06,0,.07,0s0,0,0,0l.07,0s0,0,0,0h0V11h-.36l-.07,0v0l-2.64.22h-.33s0,0-.07,0l-.06,0-.23.06a1.36,1.36,0,0,1-.27,0,.25.25,0,0,1-.13.05l.67,0a.34.34,0,0,1-.16.05.32.32,0,0,1-.14,0,3.51,3.51,0,0,1-.49.11l-.06,0-1.09.17a.22.22,0,0,0-.14,0,1.13,1.13,0,0,0-.29.06l-.52.22,0,.06a.19.19,0,0,0,.11,0l.19,0,0,.17a.48.48,0,0,0-.3.33c-.25.12-.38.2-.38.25v0h0l.07,0,.08.09v.14s-.42.95-1.29,2.72-1.14,2.65-1.18,2.82c-.25.07-.4.17-.45.31s.08.08.23.09v.06l-.07.11v.14c0,.07.2.12.56.16a0,0,0,0,1,0,0,2.09,2.09,0,0,1-.07.49h0a1,1,0,0,0,.22-.43h0s.08,0,.12.13a5.13,5.13,0,0,0-.48,1.11l0,.06h0a8.09,8.09,0,0,1,.64-1.43l2.32-.24.06,0s0,0,.05,0H23l.07,0s0,0,0,0l.83-.07c.22,0,.32-.09.31-.2s.13-.07.39-.1a.16.16,0,0,1,.11,0s.13,0,.4-.07c0-.14,0-.21.13-.22v-.06a.85.85,0,0,0-.25,0,1.25,1.25,0,0,1-.33,0l-.11.05H24l-.07,0s0,0,0,0h0l-.08,0s-.06,0-.18-.05l-.07,0-.15,0v0c.75-.08,1.11-.18,1.1-.3a.06.06,0,0,1,.08.06l.22-.05V17.9L22.94,18a0,0,0,0,1,0,0l-.21,0a.29.29,0,0,0-.14.05l-.08,0a2.88,2.88,0,0,0-.5.08,2.93,2.93,0,0,0-.51,0l-.4,0-.19,0a9.07,9.07,0,0,1,.69-1.74,1.63,1.63,0,0,1,.38-.65l.12,0,.28-.1.15,0a3.27,3.27,0,0,0,.85-.21.53.53,0,0,1,.19,0l.21-.05.65-.06a4.09,4.09,0,0,0,.9-.18V15.1c-.12,0-.18,0-.18,0s-.1-.13-.27-.12v-.06l.17-.06.47,0v-.06h-.28v-.07l.18,0a.06.06,0,0,0,.07-.07c-.25,0-.37,0-.37,0a15.33,15.33,0,0,1-2.55.05l-.1,0,0-.07a5.17,5.17,0,0,1,.79-1.44.49.49,0,0,1-.06.17v0h.07c.17-.43.33-.65.45-.66.53,0-.08-.08,1.06-.26l.11,0c.44-.09,1.06-.19,1.86-.28v-.07l-.43,0V12a.17.17,0,0,0,.12,0v0l.09,0a.28.28,0,0,1,.17,0,1.59,1.59,0,0,1,.36-.07l.26,0c.07,0,.1-.08.09-.11v0a1,1,0,0,1-.23,0,.07.07,0,0,1,.06-.07l.49-.05.23-.06s0,0,0,0a.31.31,0,0,0,.1-.05h0a1.57,1.57,0,0,0-.1.27h-.07a.28.28,0,0,0,0-.12h0c-.6,1.67-.87,2.45-1.42,3.74-.11.32-.19.51-.27.54a.07.07,0,0,0,.07.06.86.86,0,0,1-.12.48,4.53,4.53,0,0,1-.51,1.21l.06.35a.07.07,0,0,1-.06.07h-.06c0-.1,0-.14-.1-.14h0a2,2,0,0,0-.18.42h.07a.21.21,0,0,0,.11-.19h.12l.07,0a.4.4,0,0,0-.08.21l0,.05-.08.19v0a.32.32,0,0,1,.22.06.4.4,0,0,0,.19-.07h.77l.22-.08a5,5,0,0,0,.56,0h.09l.05,0v0a1.6,1.6,0,0,1,.45,0v0l-.14,0v.05a.13.13,0,0,0,.1,0,.05.05,0,0,1,.06.06.74.74,0,0,0-.18,0l-.06,0-.14,0-.1,0s0,0,0,0,0,.05.06.05h.11l.49,0,.19,0s0,0,0,0l.09,0,.18,0a4.21,4.21,0,0,0,.42-.07s0,0,0,0v0a3.39,3.39,0,0,0,.58-.11h0c.12,0,0,0,.08,0s0,0,0,0h.08v-.06h-.21l-.19,0-.43,0v0l.23,0h.09l.05,0v0a8.27,8.27,0,0,0,2-.28c.08,0,.08-.07.13-.22a.08.08,0,0,1-.08,0A2.36,2.36,0,0,1,31,18S31,18,31,18v0h.24A.66.66,0,0,0,31.45,17.89Zm-11.37.2H20a1.73,1.73,0,0,1,.17-.49h.07A1.63,1.63,0,0,1,20.08,18.09Zm.13-.53v0s0-.06.08-.07v0C20.28,17.54,20.26,17.56,20.21,17.56Zm1.44,1.12v0l-.19,0v0Zm-.21,0s-.06.08-.18.12H21V18.7Zm1.46-6.72h-.11v0s0-.06.07-.07h0l.07,0C23,11.91,22.94,11.93,22.9,11.94Zm1.65-.32h0v.07h-.1A.07.07,0,0,1,24.55,11.62Zm-.42.14-.16,0v0a1.64,1.64,0,0,0,.41-.08s0,0,.07,0v.07h-.07a.28.28,0,0,1-.13,0A.21.21,0,0,1,24.13,11.76Zm.21.6v0l.26,0v0Zm.28-.23v0h.13v0Zm0-.46h0l0-.07.29,0v0Zm.16.64v-.06l.13,0a.06.06,0,0,1,.07.07Zm.81-1.07-.2,0h-.33A4.27,4.27,0,0,0,25.62,11.24Zm-.21.74v0l-.23,0v0Zm.37.18s0,0-.13-.05l-.23.06h-.17s-.07,0-.07-.06h.2l.46-.07h.23v0A1.22,1.22,0,0,0,25.78,12.16Zm2.36-.61h.05a1,1,0,0,1,.27-.18,1.62,1.62,0,0,1-.38.8L28,12.1A4,4,0,0,0,28.14,11.55Zm-.4.69h0c-.05.09-.09.13-.12.13v-.08Zm-.25.61a1,1,0,0,1,.17-.43v0c0,.24-.09.36-.15.37V13a.33.33,0,0,0-.08.18h0l0-.2S27.46,12.91,27.49,12.85Zm-.1.33a.76.76,0,0,1-.07.24h0v-.08C27.32,13.24,27.36,13.18,27.39,13.18ZM25.52,18.6v0h.06v.08S25.53,18.64,25.52,18.6Zm2.67.07s0,0,0,0H28v0s0,0,0,0,0,0,0,0l.35,0v0C28.27,18.63,28.21,18.64,28.19,18.67ZM28,18.18h-.2v0H28l.16,0s0,0,0,0l.26-.05s.05,0,.05.06Zm.5-.08v0l.18,0v0s.05,0,0,0Zm.21,0v0h.1v0Zm.21,0v0s0,0,.07,0a.08.08,0,0,1,.08.07Zm.28,0v0h.12v0Zm.16,0s0-.06,0-.07l0,.06s0,0,0,0l0,.05Z"/></g></svg>