<svg id="Bases" xmlns="http://www.w3.org/2000/svg" viewBox="0 0 32 32"><defs><style>.cls-1{fill:#3f3f40;}.cls-2{fill:#1ba1e2;}</style></defs><g id="outline"><path class="cls-1" d="M17.43,8v5.05h2.24v2.59h1.14a4.45,4.45,0,0,0,1.56-.3,3.6,3.6,0,0,0,.76-.38,3.46,3.46,0,0,1-.53-1.64,3.78,3.78,0,0,1,.56-2.43l.23-.31.28.26a4.08,4.08,0,0,1,1.41,2.55,3.37,3.37,0,0,1,1-.16,2.86,2.86,0,0,1,1.57.44l.31.2-.16.35a3.06,3.06,0,0,1-3,1.76h-.28a11.38,11.38,0,0,1-11.32,8,6.94,6.94,0,0,1-6.47-3.76l0,0-.2-.47A8.18,8.18,0,0,1,6,16l0-.38H8V13.05h2.24V10.53h4.5V8h2.7m2-2h-6.7V8.53H8.23v2.52H6v2.59H4.22l-.15,1.83,0,.38a10,10,0,0,0,.65,4.63l0,0v0l.2.47,0,.06,0,.07A8.91,8.91,0,0,0,13.25,26,13.32,13.32,0,0,0,26,17.89a4.89,4.89,0,0,0,3.7-2.84l.16-.36.72-1.56-1.45-.94-.31-.2a4.69,4.69,0,0,0-2.3-.75A6.58,6.58,0,0,0,25,9.35l-.28-.25-1.6-1.45L21.81,9.36l-.24.31a4.5,4.5,0,0,0-.7,1.38H19.43V6Z"/></g><path class="cls-1" d="M12.43,19.21a.61.61,0,1,1-.53.61.58.58,0,0,1,.53-.61"/><path class="cls-1" d="M13.86,23.57a5.11,5.11,0,0,1-2.47-2.73,7.07,7.07,0,0,1-1.77.3c-.26,0-.54,0-.83,0s-.68,0-1,0a6.75,6.75,0,0,0,5.5,2.45Z"/><g id="outline-2" data-name="outline"><polygon class="cls-2" points="17.43 13.05 19.67 13.05 19.67 15.63 7.99 15.63 7.99 13.05 10.23 13.05 10.23 10.53 14.73 10.53 14.73 8 17.43 8 17.43 13.05"/></g></svg>
