<svg id="Bases" xmlns="http://www.w3.org/2000/svg" viewBox="0 0 32 32"><defs><style>.cls-1{fill:#8ac4e6;}.cls-2{fill:#dfdcdb;}.cls-3{fill:#111;}.cls-4{fill:#fff;}.cls-5{fill:#b6927f;}.cls-6{fill:#231815;}.cls-7{fill:#3a88bd;}</style></defs><path class="cls-1" d="M24.37,7.89c-.57-1.17-1.94-.14-2.29-.5A8,8,0,0,0,16.47,5h-.94A7.83,7.83,0,0,0,9.92,7.39c-.35.36-1.72-.67-2.29.5C7,9.25,9,9.39,8.86,10a18.65,18.65,0,0,0,.08,4.31c.25,2.71-1.76,9.18,2.42,11.78a12.34,12.34,0,0,0,4.76.81h0a11,11,0,0,0,4.51-.81c4.18-2.6,2.17-9.07,2.42-11.78A18.65,18.65,0,0,0,23.14,10C23,9.39,25,9.25,24.37,7.89Z"/><path class="cls-2" d="M19,8.72C16.12,9.05,16.5,12,17.59,13a2.26,2.26,0,0,0,3.92-1.81A2.64,2.64,0,0,0,19,8.72Z"/><ellipse class="cls-3" cx="19.13" cy="11.28" rx="0.97" ry="0.98"/><circle class="cls-4" cx="18.88" cy="10.86" r="0.31"/><path class="cls-5" d="M16,13.21c-1.35.21-1.84.6-1.73,1.22.16,1,3.36.89,3.45.05S16.54,13.14,16,13.21Z"/><path class="cls-6" d="M15.13,13.62c-.23.84,1.84.71,1.79.17,0-.31-.31-.72-1-.69A.75.75,0,0,0,15.13,13.62Z"/><path class="cls-2" d="M15.2,15c-.08,0-.2.87.18.91a3.16,3.16,0,0,0,1.15,0,.58.58,0,0,0,.11-.85A2.88,2.88,0,0,0,15.2,15Z"/><path class="cls-2" d="M13.05,8.72c2.83.33,2.45,3.3,1.36,4.26a2.26,2.26,0,0,1-3.92-1.81A2.64,2.64,0,0,1,13.05,8.72Z"/><ellipse class="cls-3" cx="12.87" cy="11.28" rx="0.97" ry="0.98"/><circle class="cls-4" cx="13.12" cy="10.86" r="0.31"/><path class="cls-5" d="M23.21,20c.93,0,.47-2-.11-1.61a1.26,1.26,0,0,0-.32,1C22.77,19.66,22.94,20,23.21,20Z"/><path class="cls-5" d="M8.79,20c-.93,0-.47-2,.11-1.61a1.26,1.26,0,0,1,.32,1C9.23,19.66,9.06,20,8.79,20Z"/><path class="cls-5" d="M21.44,26.19c-.51-.76-1-.17-1.71.21-.35.18.58.82,1.61.34C21.61,26.61,21.61,26.45,21.44,26.19Z"/><path class="cls-5" d="M10.56,26.28c.51-.76,1-.17,1.71.21.35.18-.58.81-1.61.34C10.39,26.7,10.39,26.53,10.56,26.28Z"/><path class="cls-7" d="M22.78,8.1c-.05.18.18.15.27.7,0,.2.76-.3.46-.67S22.83,7.92,22.78,8.1Z"/><path class="cls-7" d="M9.22,8.1c0,.18-.18.15-.27.7,0,.2-.76-.3-.46-.67S9.17,7.92,9.22,8.1Z"/></svg>