<svg id="Bases" xmlns="http://www.w3.org/2000/svg" viewBox="0 0 32 32"><defs><style>.cls-1{fill:#00a08a;}</style></defs><path class="cls-1" d="M1.3,7H13.37l.31,4.83h-.85a8.84,8.84,0,0,0-.77-2.42A3.25,3.25,0,0,0,11,8.18a2.61,2.61,0,0,0-1.34-.36A1,1,0,0,0,9,8a.53.53,0,0,0-.19.45v9.83a.61.61,0,0,0,.19.47.65.65,0,0,0,.46.18H11v.8H3.65v-.8h1.5a.76.76,0,0,0,.53-.18.6.6,0,0,0,.19-.47V8.49A.6.6,0,0,0,5.67,8,1,1,0,0,0,5,7.82c-1.58,0-2.66,1.33-3.22,4H1Z"/><path class="cls-1" d="M10.51,12.29h9.76l.24,4.45h-.72a7.63,7.63,0,0,0-.64-2.27,2.57,2.57,0,0,0-1-1,3.37,3.37,0,0,0-1.63-.35H14.84a.85.85,0,0,0-.56.16.57.57,0,0,0-.17.44V18.1h.57a2,2,0,0,0,1.52-.58,3.11,3.11,0,0,0,.64-1.88h.74v5.91h-.74a3.36,3.36,0,0,0-.62-2.07,2.11,2.11,0,0,0-1.64-.61h-.47v4.7a.49.49,0,0,0,.17.44,1.28,1.28,0,0,0,.76.19h1.47a3.26,3.26,0,0,0,2.47-1,5.16,5.16,0,0,0,1.19-3h.74L20.73,25H9.64v-.8h1.1a.71.71,0,0,0,.56-.2.72.72,0,0,0,.2-.53V13.69A8.47,8.47,0,0,0,10.51,12.29Z"/><path class="cls-1" d="M17.94,7h6v.8h-.45a2,2,0,0,0-.82.11.34.34,0,0,0-.2.3,1.59,1.59,0,0,0,.34.71l2,2.91,1.61-2A2.07,2.07,0,0,0,27,8.55.7.7,0,0,0,26.81,8a.94.94,0,0,0-.64-.19h-.38V7H30.6v.8h-.37a1.51,1.51,0,0,0-.8.2,2.88,2.88,0,0,0-.79.74l-3.17,3.89,4,5.61a1.87,1.87,0,0,0,.53.53,1.13,1.13,0,0,0,.56.14H31v.8H25.05v-.8h.62a1.09,1.09,0,0,0,.65-.15.47.47,0,0,0,.2-.39.85.85,0,0,0-.27-.5l-.08-.12L23.9,14.54,22,17A1.67,1.67,0,0,0,21.61,18a.82.82,0,0,0,.22.63.92.92,0,0,0,.67.27H23v.8H19.5s.51-1.76.63-2l3.2-4-3.85-5.3A2.07,2.07,0,0,0,19,7.92a1.13,1.13,0,0,0-.56-.12h-.46Z"/></svg>