<svg id="Bases" xmlns="http://www.w3.org/2000/svg" viewBox="0 0 32 32"><defs><style>.cls-1{fill:#3f3f40;}.cls-2{fill:#41b883;}.cls-3{fill:#35495e;}</style></defs><polygon class="cls-1" points="9 11 10.5 12.5 7 16 10.5 19.5 9 21 4 16 9 11"/><polygon class="cls-1" points="23 21 21.5 19.5 25 16 21.5 12.5 23 11 28 16 23 21"/><path class="cls-2" d="M19.3,12h2.2L16,21l-5.5-9h4.21L16,14.09,17.27,12Z"/><path class="cls-2" d="M10.5,12,16,21l5.5-9H19.3L16,17.4,12.67,12Z"/><path class="cls-3" d="M12.67,12,16,17.43,19.3,12h-2L16,14.09,14.71,12Z"/></svg>
