<svg id="Bases" xmlns="http://www.w3.org/2000/svg" viewBox="0 0 32 32"><defs><style>.cls-1{fill:#57aa54;}</style></defs><path class="cls-1" d="M8.48,14a5.54,5.54,0,0,0-.33,2,4.48,4.48,0,0,0,1.14,3.24,4.17,4.17,0,0,0,3.16,1.19,8.07,8.07,0,0,0,1.39-.12A5.4,5.4,0,0,0,15,20l.44,2.41a5.55,5.55,0,0,1-1.4.41A10.75,10.75,0,0,1,12,23a9.11,9.11,0,0,1-2.14-.24,6.42,6.42,0,0,1-3.14-1.71,5.76,5.76,0,0,1-1-1.37A7.26,7.26,0,0,1,5.15,18,8.46,8.46,0,0,1,5,16.19a8.57,8.57,0,0,1,.26-2.13A6.41,6.41,0,0,1,6,12.27,6.51,6.51,0,0,1,7.1,10.86a6.39,6.39,0,0,1,1.49-1,8.14,8.14,0,0,1,1.76-.62,9,9,0,0,1,2-.21,10,10,0,0,1,2,.18,5.09,5.09,0,0,1,1.33.42L15,12a6.49,6.49,0,0,0-2.56-.5,4.78,4.78,0,0,0-1.68.28,4,4,0,0,0-1.36.83A3.62,3.62,0,0,0,8.48,14ZM26,12v2h2v2H26v2H24V16H22v2H20V16H18V14h2V12H18V10h2V8h2v2h2V8h2v2h2v2Zm-2,0H22v2h2Z"/></svg>