<svg id="Bases" xmlns="http://www.w3.org/2000/svg" viewBox="0 0 32 32"><defs><style>.cls-1{fill:#cc4e51;}</style></defs><path class="cls-1" d="M4.91,23V9.34A24.81,24.81,0,0,1,9,9.05a11.18,11.18,0,0,1,2.59.26,4.28,4.28,0,0,1,1.77.83,3.51,3.51,0,0,1,1.26,2.92,3.44,3.44,0,0,1-.21,1.2,3.17,3.17,0,0,1-.55,1,4.36,4.36,0,0,1-.76.73,3.45,3.45,0,0,1-.86.47v.06a2.53,2.53,0,0,1,1.11.92A5.77,5.77,0,0,1,14,19.08c.08.31.21.81.38,1.51l.42,1.61a5.64,5.64,0,0,0,.28.8H12a18.34,18.34,0,0,1-.92-3.22,5.66,5.66,0,0,0-.32-1.08,2.08,2.08,0,0,0-.46-.68,1.64,1.64,0,0,0-.61-.35,3.15,3.15,0,0,0-.83-.11h-.9V23Zm3-11.51V15.3h1.2a2.68,2.68,0,0,0,1.78-.54,1.79,1.79,0,0,0,.64-1.45A1.74,1.74,0,0,0,11,11.89a2.48,2.48,0,0,0-1.65-.5A6.74,6.74,0,0,0,7.93,11.49ZM17,22.94V9.34a15.72,15.72,0,0,1,1.74-.2c.73-.06,1.47-.09,2.2-.09a13.57,13.57,0,0,1,2.35.17,4.94,4.94,0,0,1,1.65.61,3.09,3.09,0,0,1,1.17,1.1,3.05,3.05,0,0,1,.43,1.63,3,3,0,0,1-.23,1.17,3.09,3.09,0,0,1-.75,1,3.8,3.8,0,0,1-1.24.75v0a3.73,3.73,0,0,1,1.94,1.22A3.31,3.31,0,0,1,27,18.94a3.69,3.69,0,0,1-1.4,3q-1.53,1.25-5.3,1.25A22.5,22.5,0,0,1,17,22.94Zm3-11.53v3.23h1a3.05,3.05,0,0,0,1.83-.46,1.47,1.47,0,0,0,.63-1.25,1.39,1.39,0,0,0-.56-1.19,2.7,2.7,0,0,0-1.6-.41A9.09,9.09,0,0,0,20,11.41Zm0,5.47v3.91c.2,0,.59,0,1.18,0a3.84,3.84,0,0,0,1-.12,2.79,2.79,0,0,0,.83-.34,1.68,1.68,0,0,0,.57-.64,1.92,1.92,0,0,0,.21-.92,1.76,1.76,0,0,0-.21-.88,1.64,1.64,0,0,0-.59-.61,2.81,2.81,0,0,0-.87-.33,4.45,4.45,0,0,0-1.07-.11Z"/></svg>