<svg id="Bases" xmlns="http://www.w3.org/2000/svg" viewBox="0 0 32 32"><defs><style>.cls-1{fill:#1ba1e2;}.cls-2{fill:#1b5eab;}.cls-3{fill:#dcdbdd;}</style></defs><path class="cls-1" d="M31,7.72V16a2.18,2.18,0,0,1-2.22,2.14H20.21A2,2,0,0,1,18.14,16V5.29a2.05,2.05,0,0,1,2.07-2.15h7.17ZM28.86,16V7.43H26.71V5.29H20.29V16Z"/><path class="cls-2" d="M28.86,21.36v3.21l-2.15-2.14v3.21a3.22,3.22,0,0,1-3.21,3.22H8.5a3.22,3.22,0,0,1-3.21-3.22V22.43L3.14,24.57V21.36l3.22-3.22,3.21,3.22v3.21L7.43,22.43v3.21A1.07,1.07,0,0,0,8.5,26.71h15a1.07,1.07,0,0,0,1.07-1.07V22.43l-2.14,2.14V21.36l3.21-3.22Z"/><rect class="cls-1" x="22.43" y="11.71" width="4.29" height="2.14"/><rect class="cls-1" x="22.42" y="7.42" width="4.27" height="2.24"/><path class="cls-3" d="M13.86,7.72V16a2.19,2.19,0,0,1-2.22,2.14H3.07A2,2,0,0,1,1,16V5.29A2.05,2.05,0,0,1,3.07,3.14h7.17ZM11.71,16V7.43H9.57V5.29H3.14V16Z"/><rect class="cls-3" x="5.29" y="11.71" width="4.29" height="2.14"/><rect class="cls-3" x="5.27" y="7.42" width="4.28" height="2.24"/></svg>