<svg id="Bases" xmlns="http://www.w3.org/2000/svg" viewBox="0 0 32 32"><defs><style>.cls-1{fill:#00a08a;}</style></defs><path class="cls-1" d="M2.28,8H13.71L14,12.56h-.8a8.11,8.11,0,0,0-.74-2.28,2.9,2.9,0,0,0-1-1.16,2.43,2.43,0,0,0-1.27-.35.94.94,0,0,0-.58.15.54.54,0,0,0-.18.43v9.29a.59.59,0,0,0,.18.44.61.61,0,0,0,.43.17H11.5V20h-7v-.75H5.92a.75.75,0,0,0,.51-.17.57.57,0,0,0,.18-.44V9.4a.59.59,0,0,0-.19-.48.93.93,0,0,0-.59-.15c-1.51,0-2.52,1.26-3.05,3.79H2Z"/><path class="cls-1" d="M11,13h9.24l.22,4.19h-.68a6.91,6.91,0,0,0-.61-2.13,2.43,2.43,0,0,0-1-1,3.18,3.18,0,0,0-1.55-.33H15.1a.75.75,0,0,0-.53.15.56.56,0,0,0-.17.42v4.16h.54a1.85,1.85,0,0,0,1.44-.55A3,3,0,0,0,17,16.16h.7v5.58H17a3.14,3.14,0,0,0-.59-2,2,2,0,0,0-1.55-.56H14.4v4.43a.49.49,0,0,0,.17.42,1.18,1.18,0,0,0,.71.18h1.39A3.09,3.09,0,0,0,19,23.3a4.86,4.86,0,0,0,1.13-2.87h.7L20.67,25H10.17v-.75h1a.74.74,0,0,0,.54-.19.7.7,0,0,0,.18-.5V14.32A7.92,7.92,0,0,0,11,13Z"/><path class="cls-1" d="M18,8h5.72v.75h-.43a1.87,1.87,0,0,0-.78.11.32.32,0,0,0-.18.28,1.42,1.42,0,0,0,.32.68l1.93,2.74,1.52-1.91a2,2,0,0,0,.5-1.19.64.64,0,0,0-.21-.52.9.9,0,0,0-.6-.19h-.36V8H30v.75h-.34a1.59,1.59,0,0,0-.76.19,3.08,3.08,0,0,0-.75.7l-3,3.68L29,18.61a1.61,1.61,0,0,0,.5.51,1.08,1.08,0,0,0,.52.13h.39V20H24.75v-.75h.6A1,1,0,0,0,26,19.1a.43.43,0,0,0,.18-.36.84.84,0,0,0-.25-.48l-.08-.11-2.14-3-1.8,2.28a1.59,1.59,0,0,0-.37,1,.76.76,0,0,0,.21.59.88.88,0,0,0,.64.26h.43V20H19.5s.49-1.66.6-1.85l3-3.77-3.63-5A2.18,2.18,0,0,0,19,8.87a1.08,1.08,0,0,0-.54-.12H18Z"/></svg>