<svg id="Bases" xmlns="http://www.w3.org/2000/svg" viewBox="0 0 32 32"><defs><style>.cls-1{fill:#3f3f40;}.cls-2{fill:#1b5eab;}</style></defs><path class="cls-1" d="M5,16.76V15.24a2.61,2.61,0,0,0,.68-.11,1.5,1.5,0,0,0,.44-.23.89.89,0,0,0,.25-.32,1.62,1.62,0,0,0,.12-.35,3.67,3.67,0,0,0,0-.38c0-.14,0-.29,0-.45s0-.36,0-.61,0-.41,0-.5c-.08-.75-.12-1.28-.12-1.58a2.47,2.47,0,0,1,.8-2A3.37,3.37,0,0,1,9.34,8H10V9.7H9.68a1.16,1.16,0,0,0-.94.38,1.66,1.66,0,0,0-.28,1.05,8.46,8.46,0,0,0,.1,1.14c.06.67.1,1.13.1,1.38a3.43,3.43,0,0,1-.11,1,1.73,1.73,0,0,1-.33.68,1.61,1.61,0,0,1-.54.43,2.67,2.67,0,0,1-.74.26v0a2.67,2.67,0,0,1,.74.25,1.58,1.58,0,0,1,.54.42,1.77,1.77,0,0,1,.33.69,3.45,3.45,0,0,1,.11,1c0,.23,0,.69-.1,1.4a7.85,7.85,0,0,0-.1,1.12,1.73,1.73,0,0,0,.28,1.07,1.15,1.15,0,0,0,.94.38H10V24H9.32c-2,0-3-.91-3-2.73,0-.3,0-.83.12-1.58,0-.09,0-.25,0-.5s0-.44,0-.6,0-.31,0-.46a1.86,1.86,0,0,0,0-.36,1.08,1.08,0,0,0-.11-.35.87.87,0,0,0-.25-.32,1.38,1.38,0,0,0-.44-.23A2.77,2.77,0,0,0,5,16.76Z"/><path class="cls-1" d="M26.35,16.87a1.38,1.38,0,0,0-.44.23.87.87,0,0,0-.25.32,1.46,1.46,0,0,0-.12.35,3.53,3.53,0,0,0,0,.36c0,.15,0,.3,0,.46s0,.36,0,.6,0,.41,0,.5c.08.75.12,1.28.12,1.58,0,1.82-1,2.73-3,2.73H22V22.32h.36a1.16,1.16,0,0,0,.94-.38,1.73,1.73,0,0,0,.28-1.07,7.85,7.85,0,0,0-.1-1.12c-.07-.71-.1-1.17-.1-1.4a3.91,3.91,0,0,1,.1-1,1.94,1.94,0,0,1,.34-.69,1.58,1.58,0,0,1,.54-.42A2.67,2.67,0,0,1,25.1,16v0a2.67,2.67,0,0,1-.74-.26,1.61,1.61,0,0,1-.54-.43,1.89,1.89,0,0,1-.34-.68,3.88,3.88,0,0,1-.1-1c0-.25,0-.71.1-1.38a8.46,8.46,0,0,0,.1-1.14,1.66,1.66,0,0,0-.28-1.05,1.18,1.18,0,0,0-.94-.38H22V8h.7a3.37,3.37,0,0,1,2.24.67,2.5,2.5,0,0,1,.8,2c0,.3,0,.83-.12,1.58,0,.09,0,.25,0,.5s0,.45,0,.61,0,.31,0,.45a2.09,2.09,0,0,0,0,.38,1.62,1.62,0,0,0,.12.35.89.89,0,0,0,.25.32,1.38,1.38,0,0,0,.44.23,2.61,2.61,0,0,0,.68.11v1.52A2.77,2.77,0,0,0,26.35,16.87Z"/><rect class="cls-2" x="6" y="11" width="20" height="10" rx="1"/><path class="cls-1" d="M7.33,20V11.91H8.9v6.76H11V20Z"/><path class="cls-1" d="M15.29,15.14v1.31H13.46v2.18h2.08V20H11.89V11.91H15.4v1.37H13.46v1.86Z"/><path class="cls-1" d="M16.2,19.75l.23-1.36a2.53,2.53,0,0,0,.63.23,3,3,0,0,0,.7.09,1.19,1.19,0,0,0,.82-.26.83.83,0,0,0,.29-.66,1.13,1.13,0,0,0-.05-.32,1.11,1.11,0,0,0-.12-.27,1,1,0,0,0-.22-.24,1.89,1.89,0,0,0-.28-.23l-.38-.26a4.28,4.28,0,0,1-.7-.53,2.62,2.62,0,0,1-.47-.57,2.72,2.72,0,0,1-.27-.58,2.24,2.24,0,0,1-.08-.57,2.66,2.66,0,0,1,.1-.75,2.2,2.2,0,0,1,.82-1.17,2.75,2.75,0,0,1,.71-.34,3.28,3.28,0,0,1,.91-.12,3,3,0,0,1,.74.09,1.75,1.75,0,0,1,.54.2l-.25,1.35a2,2,0,0,0-1-.27,1,1,0,0,0-.73.24.77.77,0,0,0-.26.6,1,1,0,0,0,0,.32,1,1,0,0,0,.19.29,1.9,1.9,0,0,0,.33.29,6.24,6.24,0,0,0,.54.36,2.61,2.61,0,0,1,1.47,2.31,2.48,2.48,0,0,1-.34,1.29,2.3,2.3,0,0,1-.94.86,3.12,3.12,0,0,1-1.39.3,3.8,3.8,0,0,1-.89-.1A2.52,2.52,0,0,1,16.2,19.75Z"/><path class="cls-1" d="M20.93,19.75l.23-1.36a2.45,2.45,0,0,0,.62.23,3.07,3.07,0,0,0,.71.09,1.19,1.19,0,0,0,.82-.26.83.83,0,0,0,.28-.66,1.12,1.12,0,0,0,0-.32,1.11,1.11,0,0,0-.12-.27,1.2,1.2,0,0,0-.22-.24,1.94,1.94,0,0,0-.29-.23,4.28,4.28,0,0,0-.37-.26,3.89,3.89,0,0,1-.7-.53,3,3,0,0,1-.48-.57,2.66,2.66,0,0,1-.26-.58,1.87,1.87,0,0,1-.08-.57,2.66,2.66,0,0,1,.1-.75A2.2,2.2,0,0,1,22,12.3a2.47,2.47,0,0,1,.71-.34,3.28,3.28,0,0,1,.91-.12,3.06,3.06,0,0,1,.74.09,1.59,1.59,0,0,1,.53.2l-.25,1.35a1.89,1.89,0,0,0-1-.27,1,1,0,0,0-.74.24.81.81,0,0,0-.26.6,1,1,0,0,0,.05.32.77.77,0,0,0,.18.29,1.66,1.66,0,0,0,.34.29,6.24,6.24,0,0,0,.54.36,2.62,2.62,0,0,1,1.46,2.31,2.39,2.39,0,0,1-.34,1.29,2.18,2.18,0,0,1-.94.86,3,3,0,0,1-1.38.3,3.74,3.74,0,0,1-.89-.1A2.52,2.52,0,0,1,20.93,19.75Z"/></svg>
