<svg id="Bases" xmlns="http://www.w3.org/2000/svg" xmlns:xlink="http://www.w3.org/1999/xlink" viewBox="0 0 32 32"><defs><style>.cls-1{fill:url(#未命名的渐变_5);}.cls-2{fill:url(#未命名的渐变_5-2);}.cls-3{fill:url(#未命名的渐变_5-3);}</style><linearGradient id="未命名的渐变_5" x1="-405.39" y1="-2.49" x2="-405.31" y2="-2.49" gradientTransform="translate(103785 415) scale(256 160)" gradientUnits="userSpaceOnUse"><stop offset="0" stop-color="#c40000"/><stop offset="1" stop-color="red"/></linearGradient><linearGradient id="未命名的渐变_5-2" x1="-405.39" y1="-1.75" x2="-405.31" y2="-1.75" gradientTransform="translate(103785 287) scale(256 160)" xlink:href="#未命名的渐变_5"/><linearGradient id="未命名的渐变_5-3" x1="-405.39" y1="-3.24" x2="-405.31" y2="-3.24" gradientTransform="translate(103785 543) scale(256 160)" xlink:href="#未命名的渐变_5"/></defs><path class="cls-1" d="M6,14.85v6.92c0-.58,20-1.73,20-4.62h0V10.23c0,2.89-20,4-20,4.62"/><path class="cls-2" d="M6,5.62v6.92C6,12,26,10.81,26,7.92h0V1C26,3.88,6,5,6,5.62"/><path class="cls-3" d="M6,24.08V31c0-.58,20-1.73,20-4.62h0V19.46c0,2.89-20,4-20,4.62"/></svg>