<svg id="Bases" xmlns="http://www.w3.org/2000/svg" viewBox="0 0 32 32"><defs><style>.cls-1{fill:#f77737;}</style></defs><path class="cls-1" d="M6.28,17.79V9.1h3v8.71a9,9,0,0,1-.21,2.05,4.7,4.7,0,0,1-.62,1.5,3.4,3.4,0,0,1-1,1,4.08,4.08,0,0,1-1.32.56,7.26,7.26,0,0,1-1.62.17A8.23,8.23,0,0,1,3.37,23a5.26,5.26,0,0,1-1.06-.23l.34-2.52a4.54,4.54,0,0,0,1.55.25,3,3,0,0,0,.71-.08,1.62,1.62,0,0,0,.58-.27,1.52,1.52,0,0,0,.43-.5,2.66,2.66,0,0,0,.26-.77A5.16,5.16,0,0,0,6.28,17.79Z"/><path class="cls-1" d="M11.22,22.13l.55-2.51a6.71,6.71,0,0,0,1.37.6,5.35,5.35,0,0,0,1.57.24,2.14,2.14,0,0,0,1.38-.39A1.33,1.33,0,0,0,16.57,19a1.36,1.36,0,0,0-.44-1,5,5,0,0,0-1.53-.85q-3.24-1.34-3.24-4a4.09,4.09,0,0,1,.32-1.61,3.59,3.59,0,0,1,.87-1.29A3.9,3.9,0,0,1,14,9.31,5.2,5.2,0,0,1,15.81,9a6.1,6.1,0,0,1,3,.69l-.6,2.45a4.76,4.76,0,0,0-2.44-.64,1.86,1.86,0,0,0-1.26.38,1.16,1.16,0,0,0-.45.93,1.19,1.19,0,0,0,.09.47,1.33,1.33,0,0,0,.23.38,1.87,1.87,0,0,0,.44.35,5.82,5.82,0,0,0,.6.34c.22.11.49.23.82.37a5.58,5.58,0,0,1,2.3,1.65,3.88,3.88,0,0,1,.74,2.4,4.66,4.66,0,0,1-.18,1.31,3.82,3.82,0,0,1-1.49,2.08,4.29,4.29,0,0,1-1.33.6,6.25,6.25,0,0,1-1.73.22,7,7,0,0,1-1.87-.25A5.18,5.18,0,0,1,11.22,22.13Z"/><path class="cls-1" d="M29.69,23h-3l-1.05-2.53c-.17-.39-.51-1.23-1-2.52h0c0,.16-.09.31-.14.46l-.18.52-.17.44c0,.09-.1.28-.21.56l-.21.54L22.68,23h-3L23,15.91,19.81,9h3l1,2.56c.31.77.6,1.54.88,2.32h0c.22-.69.48-1.46.79-2.32l1-2.56h3l-3.27,6.84Z"/></svg>