<svg id="Bases" xmlns="http://www.w3.org/2000/svg" viewBox="0 0 32 32"><defs><style>.cls-1{fill:#dcdbdd;}.cls-2{fill:#f7941e;}.cls-3{fill:#fdb813;}.cls-4{fill:#faa61a;}.cls-5{fill:#f36f21;}.cls-6{fill:#f58220;}.cls-7{fill:#ffcb08;}.cls-8{fill:#fff200;}.cls-9{fill:#f4813c;}.cls-10{fill:#f15922;}.cls-11{font-size:23px;fill:#0078e5;font-family:SegoeUI-Bold, Segoe UI;font-weight:700;letter-spacing:0.01em;}</style></defs><polygon class="cls-1" points="7.25 9 9.13 11.1 4.75 16 9.13 20.9 7.25 23 1 16 7.25 9"/><polygon class="cls-1" points="24.75 23 22.88 20.9 27.25 16 22.88 11.1 24.75 9 31 16 24.75 23"/><rect class="cls-2" x="11.5" y="11.5" width="9" height="9"/><polygon class="cls-3" points="10 10 10.38 13 11.5 16 16 11.5 13 10.38 10 10"/><polygon class="cls-4" points="10 22 13 21.63 16 20.5 11.5 16 10.38 19 10 22"/><polygon class="cls-5" points="22 22 21.63 19 20.5 16 16 20.5 19 21.63 22 22"/><polygon class="cls-6" points="22 10 19 10.38 16 11.5 20.5 16 21.63 13 22 10"/><polygon class="cls-7" points="10 10 16 11.5 13 10 10 10"/><polygon class="cls-8" points="10 10 10 13 11.5 16 10 10"/><polygon class="cls-8" points="10 22 11.5 16 10 19 10 22"/><polygon class="cls-9" points="10 22 13 22 16 20.5 10 22"/><polygon class="cls-2" points="22 22 16 20.5 19 22 22 22"/><polygon class="cls-10" points="22 22 22 19 20.5 16 22 22"/><polygon class="cls-10" points="22 10 20.5 16 22 13 22 10"/><polygon class="cls-7" points="22 10 19 10 16 11.5 22 10"/><text class="cls-11" transform="translate(1.37 -9.49)">VB</text></svg>