<svg id="Bases" xmlns="http://www.w3.org/2000/svg" viewBox="0 0 32 32"><defs><style>.cls-1{fill:#dcdbdd;}.cls-2{fill:#b3d107;stroke:#b3d107;stroke-miterlimit:10;stroke-width:0.5px;}</style></defs><path class="cls-1" d="M1,17v-1.9a3.49,3.49,0,0,0,.92-.14,2.11,2.11,0,0,0,.6-.28,1.19,1.19,0,0,0,.34-.4A1.36,1.36,0,0,0,3,13.78a2.81,2.81,0,0,0,0-.46c0-.18,0-.37,0-.57S3,12.29,3,12l-.06-.62a19.81,19.81,0,0,1-.16-2A3,3,0,0,1,3.85,6.83,5,5,0,0,1,6.91,6h1V8.13H7.37a1.66,1.66,0,0,0-1.28.47,2,2,0,0,0-.38,1.31,9.21,9.21,0,0,0,.14,1.43c.08.84.13,1.41.13,1.73a4.3,4.3,0,0,1-.14,1.2,2.07,2.07,0,0,1-.46.84,2.17,2.17,0,0,1-.73.54,3.75,3.75,0,0,1-1,.32V16a4.17,4.17,0,0,1,1,.3,2.17,2.17,0,0,1,.73.54,2.11,2.11,0,0,1,.46.85A4.33,4.33,0,0,1,6,18.93c0,.29-.05.88-.13,1.75a8.69,8.69,0,0,0-.14,1.41,2,2,0,0,0,.38,1.33,1.63,1.63,0,0,0,1.28.48h.49V26h-1q-4.11,0-4.11-3.41a19.46,19.46,0,0,1,.16-2c0-.11,0-.32.06-.62s0-.55.06-.75,0-.39,0-.58a2,2,0,0,0,0-.45,1.48,1.48,0,0,0-.15-.43,1.1,1.1,0,0,0-.34-.4,1.83,1.83,0,0,0-.61-.29A3.5,3.5,0,0,0,1,17Z"/><path class="cls-1" d="M30.07,17.09a1.83,1.83,0,0,0-.61.29,1.1,1.1,0,0,0-.34.4,1.48,1.48,0,0,0-.15.43,2,2,0,0,0,0,.45c0,.19,0,.38,0,.58s0,.45.06.75l.06.62a19.46,19.46,0,0,1,.16,2q0,3.4-4.11,3.41h-1V23.9h.49a1.63,1.63,0,0,0,1.28-.48,2,2,0,0,0,.38-1.33,8.69,8.69,0,0,0-.14-1.41c-.08-.87-.13-1.46-.13-1.75a4.33,4.33,0,0,1,.14-1.21,2.11,2.11,0,0,1,.46-.85,2.17,2.17,0,0,1,.73-.54,4.17,4.17,0,0,1,1-.3V16a3.75,3.75,0,0,1-1-.32,2.17,2.17,0,0,1-.73-.54,2.07,2.07,0,0,1-.46-.84,4.3,4.3,0,0,1-.14-1.2c0-.32.05-.89.13-1.73a9.21,9.21,0,0,0,.14-1.43,2,2,0,0,0-.38-1.31,1.66,1.66,0,0,0-1.28-.47h-.49V6h.95a5,5,0,0,1,3.06.83,3,3,0,0,1,1.08,2.55,19.81,19.81,0,0,1-.16,2L29,12c0,.3,0,.56-.06.76s0,.39,0,.57a2.81,2.81,0,0,0,.05.46,1.36,1.36,0,0,0,.16.45,1.19,1.19,0,0,0,.34.4,2.11,2.11,0,0,0,.6.28,3.49,3.49,0,0,0,.92.14V17A3.5,3.5,0,0,0,30.07,17.09Z"/><path class="cls-2" d="M27.78,1a1.11,1.11,0,0,1,.65.18.93.93,0,0,1,.34.49,1.48,1.48,0,0,1,0,.7,2.12,2.12,0,0,1-.31.78.1.1,0,0,1-.13,0A.25.25,0,0,1,28.25,3,.45.45,0,0,0,28,2.54a1.55,1.55,0,0,0-.87-.2A3.9,3.9,0,0,0,25,3.09a10.7,10.7,0,0,0-2.14,2,18.49,18.49,0,0,0-1.94,2.81,25.8,25.8,0,0,0-1.57,3.27,24.81,24.81,0,0,0-1.05,3.35,13.19,13.19,0,0,0-.38,3c0,.49.15.74.45.74A1,1,0,0,0,19,18a4.53,4.53,0,0,0,.71-.73.11.11,0,0,1,.14,0,.14.14,0,0,1,0,.16,4.83,4.83,0,0,1-1.25,1.22,2.32,2.32,0,0,1-1.3.49.8.8,0,0,1-.7-.27,1.08,1.08,0,0,1-.2-.68,9.89,9.89,0,0,1,.53-2.87,28.84,28.84,0,0,1,1.42-3.64,38.5,38.5,0,0,1,2.06-3.82,30.45,30.45,0,0,1,2.43-3.43A15.45,15.45,0,0,1,25.38,2,4.11,4.11,0,0,1,27.78,1Z"/><path class="cls-2" d="M4.17,31a1.09,1.09,0,0,1-.65-.18,1,1,0,0,1-.35-.49,1.48,1.48,0,0,1,0-.7,2.1,2.1,0,0,1,.3-.78.12.12,0,0,1,.14,0,.23.23,0,0,1,.1.12.47.47,0,0,0,.23.49,1.49,1.49,0,0,0,.86.2A3.91,3.91,0,0,0,7,28.91a11,11,0,0,0,2.14-2,19.24,19.24,0,0,0,1.94-2.81,27.24,27.24,0,0,0,1.57-3.27,24.37,24.37,0,0,0,1-3.35,13.77,13.77,0,0,0,.38-3c0-.49-.15-.74-.45-.74A1,1,0,0,0,13,14a5,5,0,0,0-.7.73.12.12,0,0,1-.15,0,.18.18,0,0,1,0-.16,5,5,0,0,1,1.25-1.22,2.38,2.38,0,0,1,1.31-.49.82.82,0,0,1,.7.27,1.14,1.14,0,0,1,.2.68A10.24,10.24,0,0,1,15,16.68a30.45,30.45,0,0,1-1.42,3.64,38.62,38.62,0,0,1-2.07,3.82A29.22,29.22,0,0,1,9.1,27.57a15.07,15.07,0,0,1-2.54,2.48A4.09,4.09,0,0,1,4.17,31Z"/></svg>