<svg id="Bases" xmlns="http://www.w3.org/2000/svg" viewBox="0 0 32 32"><defs><style>.cls-1{fill:#dcdbdd;}.cls-2{fill:#0095d7;}</style></defs><path class="cls-1" d="M4,6H7a16.81,16.81,0,0,0-1.94,4.41A20.5,20.5,0,0,0,4.34,16a20.22,20.22,0,0,0,.72,5.58A16.88,16.88,0,0,0,7,26H4a14.1,14.1,0,0,1-1.67-3,16.62,16.62,0,0,1-.71-2,19.17,19.17,0,0,1-.48-2.34A19.71,19.71,0,0,1,1,16,16.78,16.78,0,0,1,4,6Z"/><path class="cls-2" d="M18.55,26,16.7,19.84c-.27-.91-.52-1.87-.76-2.9H15.8c-.15.74-.37,1.67-.66,2.81L13.35,26H9l4.71-12.52a1.9,1.9,0,0,0,.13-.71,2.74,2.74,0,0,0-.13-.72,5.42,5.42,0,0,0-1.22-1.94,2.31,2.31,0,0,0-1.62-.73h-.6l.38-3.21A4.17,4.17,0,0,1,12,6a4.51,4.51,0,0,1,1.23.16,4.39,4.39,0,0,1,1.06.45,4.76,4.76,0,0,1,.92.73,7.07,7.07,0,0,1,.8.95,10.33,10.33,0,0,1,.7,1.17c.24.44.44.88.63,1.31s.38.92.57,1.45L23,26Z"/><path class="cls-1" d="M28,26H25a16.81,16.81,0,0,0,1.94-4.41A20.5,20.5,0,0,0,27.66,16a20.22,20.22,0,0,0-.72-5.58A16.88,16.88,0,0,0,25,6h3a14.1,14.1,0,0,1,1.67,3,16.62,16.62,0,0,1,.71,2,19.17,19.17,0,0,1,.48,2.34A19.71,19.71,0,0,1,31,16,16.78,16.78,0,0,1,28,26Z"/></svg>