<svg id="Bases" xmlns="http://www.w3.org/2000/svg" viewBox="0 0 32 32"><defs><style>.cls-1{fill:#dcdbdd;}.cls-2{fill:#f7941e;}.cls-3{fill:#fdb813;}.cls-4{fill:#faa61a;}.cls-5{fill:#f36f21;}.cls-6{fill:#f58220;}.cls-7{fill:#ffcb08;}.cls-8{fill:#fff200;}.cls-9{fill:#f4813c;}.cls-10{fill:#f15922;}</style></defs><polygon class="cls-1" points="9 11 10.5 12.5 7 16 10.5 19.5 9 21 4 16 9 11"/><polygon class="cls-1" points="23 21 21.5 19.5 25 16 21.5 12.5 23 11 28 16 23 21"/><rect class="cls-2" x="12.25" y="12.25" width="7.5" height="7.5"/><polygon class="cls-3" points="11 11 11.31 13.5 12.25 16 16 12.25 13.5 11.31 11 11"/><polygon class="cls-4" points="11 21 13.5 20.69 16 19.75 12.25 16 11.31 18.5 11 21"/><polygon class="cls-5" points="21 21 20.69 18.5 19.75 16 16 19.75 18.5 20.69 21 21"/><polygon class="cls-6" points="21 11 18.5 11.31 16 12.25 19.75 16 20.69 13.5 21 11"/><polygon class="cls-7" points="11 11 16 12.25 13.5 11 11 11"/><polygon class="cls-8" points="11 11 11 13.5 12.25 16 11 11"/><polygon class="cls-8" points="11 21 12.25 16 11 18.5 11 21"/><polygon class="cls-9" points="11 21 13.5 21 16 19.75 11 21"/><polygon class="cls-2" points="21 21 16 19.75 18.5 21 21 21"/><polygon class="cls-10" points="21 21 21 18.5 19.75 16 21 21"/><polygon class="cls-10" points="21 11 19.75 16 21 13.5 21 11"/><polygon class="cls-7" points="21 11 18.5 11 16 12.25 21 11"/></svg>