<svg id="Bases" xmlns="http://www.w3.org/2000/svg" viewBox="0 0 32 32"><defs><style>.cls-1{fill:#cc4e51;}</style></defs><path id="path2242" class="cls-1" d="M1.67,6A.74.74,0,0,0,1,6.72L1,25.15v.22s0,0,0,.05H1a.11.11,0,0,1,0,.05v0l0,.06h0l0,.06h0l0,.05v0l.06,0v0l0,0h0l0,0h0l.12.08h0l.06,0h0l.06,0h.08l.15,0h.07l7.06,0a39.6,39.6,0,0,0,4.18-.14h0a14.7,14.7,0,0,0,2.48-.59,12,12,0,0,0,4.08-2.15,9.93,9.93,0,0,0,2.67-3.24A8.34,8.34,0,0,0,23.3,16a8.79,8.79,0,0,0-1.7-5.2A10.63,10.63,0,0,0,17,7.19,19.71,19.71,0,0,0,9.38,6H1.67ZM5.77,9.8H9.05a26.62,26.62,0,0,1,3.25.13,9,9,0,0,1,2,.55,7.12,7.12,0,0,1,1.89,1v0a5.08,5.08,0,0,1,2.19,4.32,5.52,5.52,0,0,1-2.12,4.51,7.09,7.09,0,0,1-1.49.94,9.74,9.74,0,0,1-2,.63,20,20,0,0,1-3.61.25H5.79l0-12.39Z"/><path id="path2211" class="cls-1" d="M28.59,12.81a5,5,0,0,1-5.22,4.79,5,5,0,0,1-5.23-4.79h0A5,5,0,0,1,23.36,8a5,5,0,0,1,5.23,4.79Z"/><path id="path2222" class="cls-1" d="M31,7.54a1.69,1.69,0,0,1-3.36,0h0a1.69,1.69,0,0,1,3.36,0Z"/></svg>