<svg id="Bases" xmlns="http://www.w3.org/2000/svg" viewBox="0 0 32 32"><defs><style>.cls-1{fill:#f77737;}</style></defs><path class="cls-1" d="M13.53,9.66c0,.09,0,.18-.19.26a2.21,2.21,0,0,0-1.09-.15c-.42,0-.79.17-.73.46s.48.45,1.2.39c1.77-.16,1.77-1.36,4.37-1.59,2-.18,3.17.45,3.32,1.21.13.6-.36,1.16-1.84,1.3-1.3.11-2.06-.23-2.14-.6,0-.17.07-.46.7-.53.06.28.43.59,1.26.51.61-.05,1.13-.27,1.06-.6s-.72-.56-1.73-.47c-2.06.17-2.58,1.32-4.34,1.48-1.26.1-2.27-.34-2.42-1-.05-.26-.06-.86,1.27-1C12.93,9.27,13.48,9.39,13.53,9.66Z"/><path class="cls-1" d="M6.79,16.78A3.47,3.47,0,0,0,6,19.18a2.85,2.85,0,0,0,1.09,2,2.68,2.68,0,0,0,2.25.52,7.66,7.66,0,0,0,1-.31,2.74,2.74,0,0,1-1.83-.68,2.75,2.75,0,0,1-1.15-1.88,2.45,2.45,0,0,1,.41-2,2.68,2.68,0,0,1,1.83-1,3.26,3.26,0,0,1,2.15.63,6.34,6.34,0,0,0-.58-.58,2.75,2.75,0,0,0-2.31-.47A3.33,3.33,0,0,0,6.79,16.78Z"/><path class="cls-1" d="M15.86,12.87a26.06,26.06,0,0,1-5.53-.53C8.82,12,8,11.56,8,11a.77.77,0,0,1,.42-.63c-.94.37-1.46.68-1.46,1.15s.89,1,2.61,1.46a25.42,25.42,0,0,0,6.21.63A25.14,25.14,0,0,0,22,13c1.73-.41,2.56-.94,2.56-1.46s-.36-.73-1-1a.53.53,0,0,1,.26.47c0,.52-.78.94-2.35,1.3A26.61,26.61,0,0,1,15.86,12.87Z"/><path class="cls-1" d="M22.07,14.33a28.15,28.15,0,0,1-6.21.63,29.57,29.57,0,0,1-6.26-.63,4.37,4.37,0,0,1-2.51-1.2h0a15.09,15.09,0,0,0,1.73,5.06c.63.94,1.25,1.78,1.88,2.66a6.82,6.82,0,0,1,.58,1.57A3,3,0,0,0,13,23.57a7.08,7.08,0,0,0,2.77.42h.11a7.73,7.73,0,0,0,2.87-.42,3.12,3.12,0,0,0,1.67-1.15h.06A6.15,6.15,0,0,1,21,20.85c.63-.88,1.25-1.72,1.88-2.66a15.93,15.93,0,0,0,1.72-5.06A4.14,4.14,0,0,1,22.07,14.33Z"/></svg>