<svg xmlns="http://www.w3.org/2000/svg" viewBox="0 0 32 32"><defs><style>.cls-1{fill:#a669ff;}</style></defs><g id="Layer_3" data-name="Layer 3"><path class="cls-1" d="M17.5,27H12.13a2.94,2.94,0,0,1,1-2.7,1.66,1.66,0,0,0,.22-.3,2,2,0,0,0-.55-3,10.11,10.11,0,0,0-.9-.53L10,19.42v-.24a8.71,8.71,0,0,1,1-.62,4.22,4.22,0,0,0,2.33-4.81,2.61,2.61,0,0,0-1.74-2.35l.44-.58-.3-.16A2.4,2.4,0,0,1,10.12,8a3.27,3.27,0,0,1,2-2.52c.36-.17.73-.29,1.1-.43h1.38a1.36,1.36,0,0,0,.28.11c3.07.78,3.56,4,1.44,6.31-.15.16-.49.34-.62.28s-.29-.39-.36-.62-.14-.69-.21-1a13.37,13.37,0,0,0,.75,6.3A4.55,4.55,0,0,0,16.4,15a5.81,5.81,0,0,1,1.37-2.56,3.57,3.57,0,0,1,6,1.19,4.78,4.78,0,0,0,.26.62v1.59c-.1.33-.2.65-.29,1a6.06,6.06,0,0,1-5.32,4.46,3.18,3.18,0,0,1-.89-.17.44.44,0,0,0-.46.22,5,5,0,0,0-.4,1.48,2.69,2.69,0,0,0,.27,1.62A3.41,3.41,0,0,1,17.5,27ZM18,20.57l.22.15a6.48,6.48,0,0,0,1-1.26,1.49,1.49,0,0,0-.14-1c-.05-.13-.36-.16-.56-.24-.06.2-.25.45-.18.58A1.37,1.37,0,0,1,18,20.57Z"/></g></svg>