<svg id="Bases" xmlns="http://www.w3.org/2000/svg" viewBox="0 0 32 32"><defs><style>.cls-1{fill:#e29f00;}</style></defs><path class="cls-1" d="M.91,26V6.45A32.46,32.46,0,0,1,6.44,6,14.85,14.85,0,0,1,10,6.41a5.77,5.77,0,0,1,2.4,1.19,5.13,5.13,0,0,1,1.72,4.18,5.42,5.42,0,0,1-.28,1.71,4.91,4.91,0,0,1-.75,1.42,6,6,0,0,1-1,1,4.82,4.82,0,0,1-1.18.67v.09A3.37,3.37,0,0,1,12.36,18a8.28,8.28,0,0,1,1,2.36c.11.44.28,1.16.52,2.15s.43,1.76.57,2.3A7.77,7.77,0,0,0,14.78,26H10.53a26.2,26.2,0,0,1-1.25-4.61,8.41,8.41,0,0,0-.45-1.55,3.06,3.06,0,0,0-.62-1,2.17,2.17,0,0,0-.83-.5,4.38,4.38,0,0,0-1.13-.16H5V26ZM5,9.54V15H6.66a3.55,3.55,0,0,0,2.42-.77A2.64,2.64,0,0,0,10,12.13a2.54,2.54,0,0,0-.81-2A3.28,3.28,0,0,0,6.9,9.39,7.59,7.59,0,0,0,5,9.54Z"/><path class="cls-1" d="M17.38,24.78l.91-3.6a11.47,11.47,0,0,0,2.33.86,10.49,10.49,0,0,0,2.65.35,4.13,4.13,0,0,0,2.34-.56,1.77,1.77,0,0,0,.82-1.54,1.83,1.83,0,0,0-.75-1.49,9.38,9.38,0,0,0-2.59-1.22q-5.47-1.9-5.47-5.76a5.14,5.14,0,0,1,.52-2.3,5.51,5.51,0,0,1,1.48-1.85A7.13,7.13,0,0,1,22,6.44,10.66,10.66,0,0,1,25.13,6a12.05,12.05,0,0,1,5.08,1l-1,3.51a9.33,9.33,0,0,0-4.13-.92,3.6,3.6,0,0,0-2.13.54,1.59,1.59,0,0,0-.76,1.33,1.65,1.65,0,0,0,.14.68,2.09,2.09,0,0,0,.4.55,3.49,3.49,0,0,0,.74.5q.48.26,1,.48c.36.15.82.33,1.39.54a9.26,9.26,0,0,1,3.88,2.35A4.92,4.92,0,0,1,31,20a5.83,5.83,0,0,1-.3,1.88,5.09,5.09,0,0,1-.95,1.65,5.77,5.77,0,0,1-1.57,1.31,7.77,7.77,0,0,1-2.25.87A12.64,12.64,0,0,1,23,26a13.92,13.92,0,0,1-3.16-.36A9.63,9.63,0,0,1,17.38,24.78Z"/></svg>