<svg id="Bases" xmlns="http://www.w3.org/2000/svg" viewBox="0 0 32 32"><defs><style>.cls-1{fill:#467dcf;}</style></defs><path class="cls-1" d="M5.31,23V11.66H2.5V9h8.4v2.66H8V23Z"/><path class="cls-1" d="M11.5,22.15,12,19.63a5.87,5.87,0,0,0,1.36.6,5,5,0,0,0,1.56.25,2.08,2.08,0,0,0,1.38-.4A1.31,1.31,0,0,0,16.82,19,1.38,1.38,0,0,0,16.37,18a5,5,0,0,0-1.51-.85c-2.15-.89-3.22-2.24-3.22-4A4.14,4.14,0,0,1,12,11.46a3.59,3.59,0,0,1,.87-1.29,3.9,3.9,0,0,1,1.39-.86A5.19,5.19,0,0,1,16.05,9a6,6,0,0,1,3,.69l-.59,2.46A4.72,4.72,0,0,0,16,11.5a1.91,1.91,0,0,0-1.26.38,1.18,1.18,0,0,0-.44.93,1.36,1.36,0,0,0,.08.47,1.41,1.41,0,0,0,.24.39,2.08,2.08,0,0,0,.43.35c.19.12.39.23.6.34s.48.23.82.37a5.57,5.57,0,0,1,2.28,1.65,3.87,3.87,0,0,1,.73,2.4,4.68,4.68,0,0,1-.18,1.32,3.81,3.81,0,0,1-.55,1.15,3.87,3.87,0,0,1-.92.93,4.66,4.66,0,0,1-1.33.6,6.16,6.16,0,0,1-1.71.22A6.89,6.89,0,0,1,13,22.75,5.41,5.41,0,0,1,11.5,22.15Z"/><path class="cls-1" d="M29.6,23h-3l-1-2.54c-.17-.38-.52-1.22-1-2.51h0c-.05.16-.09.31-.14.46s-.11.32-.19.52-.13.34-.16.44-.11.28-.22.56-.17.46-.2.53L22.6,23h-3L23,15.92,19.72,9h3l1,2.56c.31.77.61,1.54.88,2.32h0c.22-.69.48-1.47.79-2.32l1-2.56h3l-3.27,6.84Z"/></svg>