<svg id="Bases" xmlns="http://www.w3.org/2000/svg" viewBox="0 0 32 32"><defs><style>.cls-1{fill:#dcdbdd;}.cls-2{fill:#2a2a2a;}</style></defs><path class="cls-1" d="M31,5.29V28.86H22.43V5.29ZM28.86,26.71V24.57H24.57v2.14Zm0-4.28V20.29H24.57v2.14Zm0-10.72V7.43H24.57v4.28Z"/><rect class="cls-2" x="24.57" y="24.57" width="4.29" height="2.14"/><rect class="cls-2" x="24.57" y="20.29" width="4.29" height="2.14"/><rect class="cls-2" x="24.57" y="7.43" width="4.29" height="4.29"/><path class="cls-1" d="M20.29,3.14V28.86H11.71V3.14ZM18.14,26.71V24.57H13.86v2.14Zm0-4.28V20.29H13.86v2.14Zm0-15V5.29H13.86V7.43Z"/><rect class="cls-2" x="13.86" y="24.57" width="4.29" height="2.14"/><rect class="cls-2" x="13.86" y="20.29" width="4.29" height="2.14"/><rect class="cls-2" x="13.86" y="5.29" width="4.29" height="2.14"/><path class="cls-1" d="M9.57,5.29V28.86H1V5.29ZM7.43,26.71V24.57H3.14v2.14Zm0-4.28V20.29H3.14v2.14Zm0-10.72V7.43H3.14v4.28Z"/><rect class="cls-2" x="3.14" y="24.57" width="4.29" height="2.14"/><rect class="cls-2" x="3.14" y="20.29" width="4.29" height="2.14"/><rect class="cls-2" x="3.14" y="7.43" width="4.29" height="4.29"/></svg>