<svg id="Bases" xmlns="http://www.w3.org/2000/svg" viewBox="0 0 32 32"><defs><style>.cls-1{fill:#3f3f40;}</style></defs><path class="cls-1" d="M8,21.81l1.2,0,.06,0a.17.17,0,0,0,.06-.06Q11.56,15.88,14.51,8c.25,0,1.39,0,3.42,0,.51,1.43,1.3,3.72,2.4,6.87s1.89,5.43,2.4,6.87l1.27.07V24H17V21.81l1.25-.07s0,0,0,0a0,0,0,0,0,0-.06,10.25,10.25,0,0,0-.43-1.34.13.13,0,0,0-.14-.1l-4.67,0c-.05.18-.12.46-.22.82s-.16.59-.18.68l1.32.07V24H8Zm7.54-9.1h-.12q-.75,2.37-1.68,5.22c0,.1,0,.15,0,.15h3.48C17.06,17.54,16.5,15.75,15.54,12.71Z"/></svg>
