<svg id="Bases" xmlns="http://www.w3.org/2000/svg" viewBox="0 0 32 32"><defs><style>.cls-1{fill:#3f3f40;}.cls-2{fill:#b3d107;stroke:#b3d107;stroke-miterlimit:10;stroke-width:0.5px;}</style></defs><path class="cls-1" d="M5,16.76V15.24a2.61,2.61,0,0,0,.68-.11,1.5,1.5,0,0,0,.44-.23.89.89,0,0,0,.25-.32,1.62,1.62,0,0,0,.12-.35,3.67,3.67,0,0,0,0-.38c0-.14,0-.29,0-.45s0-.36,0-.61,0-.41,0-.5c-.08-.75-.12-1.28-.12-1.58a2.47,2.47,0,0,1,.8-2A3.37,3.37,0,0,1,9.34,8H10V9.7H9.68a1.16,1.16,0,0,0-.94.38,1.66,1.66,0,0,0-.28,1.05,8.46,8.46,0,0,0,.1,1.14c.06.67.1,1.13.1,1.38a3.43,3.43,0,0,1-.11,1,1.73,1.73,0,0,1-.33.68,1.61,1.61,0,0,1-.54.43,2.67,2.67,0,0,1-.74.26v0a2.67,2.67,0,0,1,.74.25,1.58,1.58,0,0,1,.54.42,1.77,1.77,0,0,1,.33.69,3.45,3.45,0,0,1,.11,1c0,.23,0,.69-.1,1.4a7.85,7.85,0,0,0-.1,1.12,1.73,1.73,0,0,0,.28,1.07,1.15,1.15,0,0,0,.94.38H10V24H9.32c-2,0-3-.91-3-2.73,0-.3,0-.83.12-1.58,0-.09,0-.25,0-.5s0-.44,0-.6,0-.31,0-.46a1.86,1.86,0,0,0,0-.36,1.08,1.08,0,0,0-.11-.35.87.87,0,0,0-.25-.32,1.38,1.38,0,0,0-.44-.23A2.77,2.77,0,0,0,5,16.76Z"/><path class="cls-1" d="M26.35,16.87a1.38,1.38,0,0,0-.44.23.87.87,0,0,0-.25.32,1.46,1.46,0,0,0-.12.35,3.53,3.53,0,0,0,0,.36c0,.15,0,.3,0,.46s0,.36,0,.6,0,.41,0,.5c.08.75.12,1.28.12,1.58,0,1.82-1,2.73-3,2.73H22V22.32h.36a1.16,1.16,0,0,0,.94-.38,1.73,1.73,0,0,0,.28-1.07,7.85,7.85,0,0,0-.1-1.12c-.07-.71-.1-1.17-.1-1.4a3.91,3.91,0,0,1,.1-1,1.94,1.94,0,0,1,.34-.69,1.58,1.58,0,0,1,.54-.42A2.67,2.67,0,0,1,25.1,16v0a2.67,2.67,0,0,1-.74-.26,1.61,1.61,0,0,1-.54-.43,1.89,1.89,0,0,1-.34-.68,3.88,3.88,0,0,1-.1-1c0-.25,0-.71.1-1.38a8.46,8.46,0,0,0,.1-1.14,1.66,1.66,0,0,0-.28-1.05,1.18,1.18,0,0,0-.94-.38H22V8h.7a3.37,3.37,0,0,1,2.24.67,2.5,2.5,0,0,1,.8,2c0,.3,0,.83-.12,1.58,0,.09,0,.25,0,.5s0,.45,0,.61,0,.31,0,.45a2.09,2.09,0,0,0,0,.38,1.62,1.62,0,0,0,.12.35.89.89,0,0,0,.25.32,1.38,1.38,0,0,0,.44.23,2.61,2.61,0,0,0,.68.11v1.52A2.77,2.77,0,0,0,26.35,16.87Z"/><path class="cls-2" d="M24.67,4a.73.73,0,0,1,.48.15.67.67,0,0,1,.25.39,1.25,1.25,0,0,1,0,.55,1.76,1.76,0,0,1-.22.63.09.09,0,0,1-.1,0,.25.25,0,0,1-.08-.1.38.38,0,0,0-.16-.39,1.09,1.09,0,0,0-.64-.16,2.71,2.71,0,0,0-1.61.6A8.31,8.31,0,0,0,21,7.24a14.25,14.25,0,0,0-1.43,2.25,21.88,21.88,0,0,0-1.15,2.62,19.56,19.56,0,0,0-.77,2.67,11.61,11.61,0,0,0-.28,2.42c0,.39.11.59.33.59a.72.72,0,0,0,.46-.2,3.52,3.52,0,0,0,.51-.58.08.08,0,0,1,.11,0,.12.12,0,0,1,0,.12,3.76,3.76,0,0,1-.92,1,1.66,1.66,0,0,1-.95.39.59.59,0,0,1-.52-.21,1,1,0,0,1-.15-.55,8.67,8.67,0,0,1,.39-2.29,23.56,23.56,0,0,1,1.05-2.91,28.9,28.9,0,0,1,1.51-3.06,23.77,23.77,0,0,1,1.79-2.75,12,12,0,0,1,1.86-2A2.86,2.86,0,0,1,24.67,4Z"/><path class="cls-2" d="M7.33,28a.73.73,0,0,1-.48-.15.67.67,0,0,1-.25-.39,1.25,1.25,0,0,1,0-.55,1.76,1.76,0,0,1,.22-.63s.06,0,.1,0a.25.25,0,0,1,.08.1.38.38,0,0,0,.16.39,1.09,1.09,0,0,0,.64.16,2.71,2.71,0,0,0,1.61-.6A8.31,8.31,0,0,0,11,24.76a14.25,14.25,0,0,0,1.43-2.25,21.88,21.88,0,0,0,1.15-2.62,19.56,19.56,0,0,0,.77-2.67,11.61,11.61,0,0,0,.28-2.42c0-.39-.11-.59-.33-.59a.72.72,0,0,0-.46.2,3.52,3.52,0,0,0-.51.58.08.08,0,0,1-.11,0,.12.12,0,0,1,0-.12,3.76,3.76,0,0,1,.92-1,1.66,1.66,0,0,1,.95-.39.59.59,0,0,1,.52.21,1,1,0,0,1,.15.55,8.67,8.67,0,0,1-.39,2.29,24.27,24.27,0,0,1-1.05,2.92,29.74,29.74,0,0,1-1.51,3.05A23.77,23.77,0,0,1,11,25.26a12,12,0,0,1-1.86,2A2.86,2.86,0,0,1,7.33,28Z"/></svg>
