<svg id="Bases" xmlns="http://www.w3.org/2000/svg" viewBox="0 0 32 32"><defs><style>.cls-1{fill:#dcdbdd;}.cls-2{fill:#1b5eab;}.cls-3{fill:#f77737;}</style></defs><path class="cls-1" d="M23.5,1H3.5A2.5,2.5,0,0,0,1,3.5V21a2.5,2.5,0,0,0,2.5,2.5H18.08L18.5,21H3.5V3.5h20V4.75H26V3.5A2.5,2.5,0,0,0,23.5,1Z"/><polygon class="cls-1" points="18.5 14.75 18.5 12.25 17.25 13.5 18.5 14.75"/><polygon class="cls-1" points="23.5 8.5 23.5 7.25 22.25 8.5 23.5 8.5"/><rect class="cls-1" x="6" y="7.25" width="7.5" height="2.5"/><rect class="cls-1" x="6" y="13.5" width="12.5" height="2.5"/><path class="cls-2" d="M20.6,20.42,18.81,31h.94l3.75-5,4.06,5h.94L26.4,20.42Z"/><path class="cls-3" d="M23.5,6A7.5,7.5,0,1,0,31,13.5,7.5,7.5,0,0,0,23.5,6Zm0,11.25a3.75,3.75,0,1,1,3.75-3.75A3.75,3.75,0,0,1,23.5,17.25Z"/></svg>