<svg id="Bases" xmlns="http://www.w3.org/2000/svg" viewBox="0 0 32 32"><defs><style>.cls-1{fill:#57aa54;}</style></defs><path class="cls-1" d="M17,22.15l.67-2.52a8.52,8.52,0,0,0,1.71.6,7.67,7.67,0,0,0,1.95.25,3,3,0,0,0,1.71-.4,1.22,1.22,0,0,0,.6-1.07A1.27,1.27,0,0,0,23.09,18a6.84,6.84,0,0,0-1.89-.85c-2.69-.89-4-2.24-4-4a3.46,3.46,0,0,1,.39-1.62,3.84,3.84,0,0,1,1.09-1.29,5.06,5.06,0,0,1,1.74-.86A8,8,0,0,1,22.69,9a9.17,9.17,0,0,1,3.73.69l-.74,2.46a7.07,7.07,0,0,0-3-.65,2.78,2.78,0,0,0-1.57.38,1.09,1.09,0,0,0-.55.93,1,1,0,0,0,.1.47,1.37,1.37,0,0,0,.29.39,3,3,0,0,0,.54.35c.24.12.49.23.75.34l1,.37a7.09,7.09,0,0,1,2.86,1.65,3.37,3.37,0,0,1,.91,2.4,3.81,3.81,0,0,1-.22,1.32,3.6,3.6,0,0,1-.69,1.15,4.48,4.48,0,0,1-1.16.93,6.33,6.33,0,0,1-1.65.6,9.54,9.54,0,0,1-2.15.22,10.64,10.64,0,0,1-2.32-.25A7.78,7.78,0,0,1,17,22.15ZM8.4,23V11.66H5V9H15v2.66H11.6V23Z"/></svg>