<svg xmlns="http://www.w3.org/2000/svg" xmlns:xlink="http://www.w3.org/1999/xlink" viewBox="0 0 32 32"><defs><style>.cls-1,.cls-3{fill:none;}.cls-2{fill:#dcdbdd;}.cls-3{stroke:#2a2a2a;stroke-linecap:round;stroke-linejoin:round;stroke-width:2px;}.cls-4{clip-path:url(#clip-path);}.cls-5{fill:#252526;}.cls-6{fill:#0095d7;}</style><clipPath id="clip-path"><rect class="cls-1" x="12.5" y="10.33" width="19.5" height="21.67"/></clipPath></defs><g id="Overlays"><path id="rect3839" class="cls-2" d="M7.5,6H26.42a1.17,1.17,0,0,1,1.19,1.56L23.86,21.78a2.2,2.2,0,0,1-2,1.55H2.92a1.17,1.17,0,0,1-1.2-1.55L5.48,7.56A2.2,2.2,0,0,1,7.5,6Z"/><path id="path3846" class="cls-3" d="M10.11,8.61l5.66,5.78L7.08,20.06"/><path id="path3850" class="cls-3" d="M15.75,20.08h4.41"/><g id="Overlay_-_Test" data-name="Overlay - Test"><g class="cls-4"><polygon class="cls-5" points="14.67 10.33 14.67 16.83 16.83 16.83 16.83 18.42 12.5 26.01 12.5 27.24 15.67 32 28.83 32 32 27.24 32 26.01 27.67 18.42 27.67 16.83 29.83 16.83 29.83 10.33 14.67 10.33"/><path class="cls-6" d="M25.5,19V14.67h2.17V12.5H16.83v2.17H19V19l-4.33,7.58,2.16,3.25H27.67l2.16-3.25Zm-6.43,4.33L20.8,20.2l.37-.54v-5h2.16v5l.37.54,1.73,3.13Z"/></g></g></g></svg>