<svg id="Bases" xmlns="http://www.w3.org/2000/svg" viewBox="0 0 32 32"><defs><style>.cls-1{fill:#8d7e6e;}</style></defs><path class="cls-1" d="M12,12.37a4.48,4.48,0,0,1,2.92,1,4.79,4.79,0,0,1,1,1.2,4.42,4.42,0,0,1,2.18-1.87,5.16,5.16,0,0,1,3.53,0,8.37,8.37,0,0,1,2.61,1.67c.61.54,1.18,1.13,1.8,1.64a3.7,3.7,0,0,0,1.09.66,1.53,1.53,0,0,0,1.57-.4,1,1,0,0,0-.06-1.42.59.59,0,0,0-.86.11.73.73,0,0,0,.06.74,1.32,1.32,0,0,1-.65-1A1.1,1.1,0,0,1,28,13.59a2.15,2.15,0,0,1,2.48.71A3.49,3.49,0,0,1,31,16.77a2.94,2.94,0,0,1-1.22,2,5.37,5.37,0,0,1-3.22.85A9.2,9.2,0,0,1,23.37,19c-1.67-.67-3.23-1.6-4.95-2.14a6.09,6.09,0,0,0-1.79-.38c-.49,0-.95,0-1.41,0a6.1,6.1,0,0,0-1.64.37c-1.76.55-3.34,1.5-5,2.17A8.16,8.16,0,0,1,4,19.5a4,4,0,0,1-2.28-1.22A3.1,3.1,0,0,1,1,16.19a2.93,2.93,0,0,1,.6-2,2.1,2.1,0,0,1,1.81-.73A1.5,1.5,0,0,1,4.54,14a1.11,1.11,0,0,1,.14,1,1.61,1.61,0,0,1-.6.69.67.67,0,0,0,0-.73.58.58,0,0,0-.89-.08,1,1,0,0,0-.16,1.19,1.46,1.46,0,0,0,1.11.67A2.58,2.58,0,0,0,5.91,16a28.65,28.65,0,0,1,3-2.59,5.6,5.6,0,0,1,3.11-1Z"/></svg>