<svg id="Bases" xmlns="http://www.w3.org/2000/svg" viewBox="0 0 32 32"><defs><style>.cls-1{fill:#dcdbdd;}.cls-2{fill:#f77737;}</style></defs><path class="cls-1" d="M3.93,6H6.8a17.08,17.08,0,0,0-1.87,4.41A20.91,20.91,0,0,0,4.23,16a20.64,20.64,0,0,0,.7,5.58A17.15,17.15,0,0,0,6.8,26H3.93c-.29-.42-.57-.87-.82-1.32A16.17,16.17,0,0,1,2.32,23a16.5,16.5,0,0,1-.68-2,17.64,17.64,0,0,1-.46-2.34A19.71,19.71,0,0,1,1,16,17.27,17.27,0,0,1,3.93,6Z"/><path class="cls-2" d="M18.55,25.91,16.7,19.78c-.27-.9-.52-1.87-.76-2.89H15.8c-.15.74-.37,1.67-.66,2.8l-1.79,6.22H9l4.71-12.47a1.82,1.82,0,0,0,.13-.7,2.62,2.62,0,0,0-.13-.71,5.33,5.33,0,0,0-1.22-1.94,2.36,2.36,0,0,0-1.62-.73h-.6l.38-3.19A4.17,4.17,0,0,1,12,6a4.51,4.51,0,0,1,1.23.16,4.33,4.33,0,0,1,2,1.18,7,7,0,0,1,.8.94,11.11,11.11,0,0,1,.7,1.16c.24.44.44.88.63,1.31s.38.91.57,1.45L23,25.91Z"/><path class="cls-1" d="M28,26H25a16.81,16.81,0,0,0,1.94-4.41A20.5,20.5,0,0,0,27.66,16a20.22,20.22,0,0,0-.72-5.58A16.88,16.88,0,0,0,25,6h3a14.1,14.1,0,0,1,1.67,3,16.62,16.62,0,0,1,.71,2,19.17,19.17,0,0,1,.48,2.34A19.71,19.71,0,0,1,31,16,16.78,16.78,0,0,1,28,26Z"/></svg>