<svg id="Bases" xmlns="http://www.w3.org/2000/svg" viewBox="0 0 32 32"><defs><style>.cls-1{fill:#8d7e6e;}</style></defs><path class="cls-1" d="M12.3,12.61a4.18,4.18,0,0,1,2.73.9,4.76,4.76,0,0,1,1,1.13,4.2,4.2,0,0,1,2-1.75,4.83,4.83,0,0,1,3.29,0,8.06,8.06,0,0,1,2.44,1.56c.57.5,1.09,1,1.68,1.53a3.45,3.45,0,0,0,1,.62,1.42,1.42,0,0,0,1.46-.38,1,1,0,0,0-.06-1.32.54.54,0,0,0-.8.1.68.68,0,0,0,.05.69,1.23,1.23,0,0,1-.6-.93,1,1,0,0,1,.69-1,2,2,0,0,1,2.31.66A3.22,3.22,0,0,1,30,16.72a2.72,2.72,0,0,1-1.13,1.87,5.09,5.09,0,0,1-3,.8,8.46,8.46,0,0,1-2.93-.63c-1.56-.63-3-1.49-4.62-2a5.67,5.67,0,0,0-1.67-.36c-.46,0-.89,0-1.32,0a5.76,5.76,0,0,0-1.53.35c-1.64.51-3.12,1.39-4.7,2a7.65,7.65,0,0,1-4.25.48,3.78,3.78,0,0,1-2.13-1.14A2.89,2.89,0,0,1,2,16.18a2.72,2.72,0,0,1,.56-1.87,2,2,0,0,1,1.69-.68,1.41,1.41,0,0,1,1.06.52,1,1,0,0,1,.12.91,1.39,1.39,0,0,1-.56.64A.65.65,0,0,0,4.93,15a.56.56,0,0,0-.84-.08,1,1,0,0,0-.15,1.11,1.38,1.38,0,0,0,1,.63,2.35,2.35,0,0,0,1.6-.7A28,28,0,0,1,9.4,13.57a5.13,5.13,0,0,1,2.9-1Z"/></svg>