<svg id="Bases" xmlns="http://www.w3.org/2000/svg" viewBox="0 0 32 32"><defs><style>.cls-1{fill:#dcdbdd;}.cls-2{fill:#cc4e51;}</style></defs><path class="cls-1" d="M1,17.05V15A3.11,3.11,0,0,0,2,14.8a1.86,1.86,0,0,0,.6-.31,1.37,1.37,0,0,0,.34-.44,1.86,1.86,0,0,0,.16-.49,3.52,3.52,0,0,0,0-.51c0-.2,0-.41,0-.63s0-.5-.06-.84S3,11,3,10.9c-.11-1-.17-1.76-.17-2.18a3.48,3.48,0,0,1,1.09-2.8A4.59,4.59,0,0,1,6.94,5h.95V7.34H7.4a1.59,1.59,0,0,0-1.27.52A2.29,2.29,0,0,0,5.74,9.3a13.17,13.17,0,0,0,.14,1.58c.09.91.13,1.55.13,1.89a4.73,4.73,0,0,1-.14,1.32,2.52,2.52,0,0,1-.45.93,2.47,2.47,0,0,1-.73.6,4.05,4.05,0,0,1-1,.35V16a3.7,3.7,0,0,1,1,.34,2.4,2.4,0,0,1,.73.58,2.65,2.65,0,0,1,.45.94A4.88,4.88,0,0,1,6,19.23c0,.32,0,1-.13,1.92a12,12,0,0,0-.14,1.55,2.4,2.4,0,0,0,.38,1.46,1.52,1.52,0,0,0,1.28.52h.49V27h-1Q2.8,27,2.8,23.25c0-.42.06-1.14.17-2.18,0-.12,0-.35,0-.68s0-.61.06-.83,0-.43,0-.64a3.68,3.68,0,0,0,0-.49A1.45,1.45,0,0,0,2.91,18a1.25,1.25,0,0,0-.33-.45A2,2,0,0,0,2,17.2,3.12,3.12,0,0,0,1,17.05Z"/><path class="cls-1" d="M30.07,17.2a2,2,0,0,0-.61.31,1.41,1.41,0,0,0-.34.45,1.69,1.69,0,0,0-.15.47,3.68,3.68,0,0,0,0,.49c0,.21,0,.42,0,.64s0,.5.06.83,0,.56.05.68c.11,1,.16,1.76.16,2.18q0,3.75-4.1,3.75h-1V24.68h.49a1.53,1.53,0,0,0,1.28-.52,2.4,2.4,0,0,0,.38-1.46,12,12,0,0,0-.14-1.55c-.09-1-.13-1.6-.13-1.92a4.88,4.88,0,0,1,.14-1.34,2.65,2.65,0,0,1,.45-.94,2.4,2.4,0,0,1,.73-.58,3.74,3.74,0,0,1,1-.34V16a4.11,4.11,0,0,1-1-.35,2.47,2.47,0,0,1-.73-.6,2.52,2.52,0,0,1-.45-.93A4.73,4.73,0,0,1,26,12.77c0-.34,0-1,.13-1.89A13.17,13.17,0,0,0,26.3,9.3a2.29,2.29,0,0,0-.39-1.44,1.59,1.59,0,0,0-1.27-.52h-.49V5h1a4.59,4.59,0,0,1,3,.92,3.48,3.48,0,0,1,1.08,2.8c0,.42-.05,1.15-.16,2.18,0,.12,0,.35-.05.68s-.05.62-.06.84,0,.43,0,.63a2.51,2.51,0,0,0,0,.51,1.86,1.86,0,0,0,.16.49,1.37,1.37,0,0,0,.34.44,1.86,1.86,0,0,0,.6.31A3.11,3.11,0,0,0,31,15v2.1A3.12,3.12,0,0,0,30.07,17.2Z"/><ellipse class="cls-2" cx="15.99" cy="16" rx="6.8" ry="6.87"/></svg>