<svg id="Bases" xmlns="http://www.w3.org/2000/svg" viewBox="0 0 32 32"><defs><style>.cls-1{fill:#dcdbdd;}.cls-2{fill:#cc4e51;}</style></defs><path class="cls-1" d="M6.53,9H9a10.76,10.76,0,0,0-1.61,3.09A11.9,11.9,0,0,0,6.78,16a11.75,11.75,0,0,0,.61,3.91A10.84,10.84,0,0,0,9,23H6.53a10.4,10.4,0,0,1-.71-.93,8.32,8.32,0,0,1-.68-1.15,9.87,9.87,0,0,1-.59-1.38,12,12,0,0,1-.4-1.64A11.67,11.67,0,0,1,4,16,10.49,10.49,0,0,1,6.53,9Z"/><path class="cls-2" d="M18.07,22.94l-1.32-4.39c-.19-.65-.37-1.34-.55-2.07h-.1c-.1.53-.26,1.19-.47,2l-1.27,4.46H11.25L14.61,14a1.18,1.18,0,0,0,.1-.5,1.78,1.78,0,0,0-.1-.51,3.71,3.71,0,0,0-.87-1.38,1.65,1.65,0,0,0-1.15-.53h-.43l.27-2.28a2.88,2.88,0,0,1,1-.12,3.53,3.53,0,0,1,.88.11,3.47,3.47,0,0,1,.76.32,3.2,3.2,0,0,1,.66.53,5.18,5.18,0,0,1,.57.67,7,7,0,0,1,.5.83c.17.32.32.63.45.94s.27.65.41,1l3.61,9.82Z"/><path class="cls-1" d="M25.47,23H23a10.76,10.76,0,0,0,1.61-3.09A11.9,11.9,0,0,0,25.22,16a11.75,11.75,0,0,0-.61-3.91A10.84,10.84,0,0,0,23,9h2.47a10.4,10.4,0,0,1,.71.93,8.32,8.32,0,0,1,.68,1.15,9.87,9.87,0,0,1,.59,1.38,12,12,0,0,1,.4,1.64A11.67,11.67,0,0,1,28,16,10.49,10.49,0,0,1,25.47,23Z"/></svg>