<svg id="Bases" xmlns="http://www.w3.org/2000/svg" viewBox="0 0 32 32"><defs><style>.cls-1{fill:#dcdbdd;}.cls-2{fill:#1b5eab;}</style></defs><path class="cls-1" d="M1,17.05V15a3.11,3.11,0,0,0,.92-.15,1.86,1.86,0,0,0,.6-.31,1.24,1.24,0,0,0,.34-.44A1.55,1.55,0,0,0,3,13.56a3.38,3.38,0,0,0,0-.51c0-.2,0-.41,0-.63s0-.5-.06-.84-.05-.56-.06-.68c-.11-1-.16-1.76-.16-2.18a3.48,3.48,0,0,1,1.08-2.8A4.64,4.64,0,0,1,6.91,5h1V7.34H7.37a1.61,1.61,0,0,0-1.28.52A2.35,2.35,0,0,0,5.71,9.3a11.36,11.36,0,0,0,.14,1.58c.08.91.13,1.55.13,1.89a5.14,5.14,0,0,1-.14,1.32,2.39,2.39,0,0,1-.46.93,2.35,2.35,0,0,1-.73.6,4.11,4.11,0,0,1-1,.35V16a3.74,3.74,0,0,1,1,.34,2.29,2.29,0,0,1,.73.58,2.51,2.51,0,0,1,.46.94A5.3,5.3,0,0,1,6,19.23c0,.32-.05,1-.13,1.92a10.43,10.43,0,0,0-.14,1.55,2.33,2.33,0,0,0,.38,1.46,1.52,1.52,0,0,0,1.28.52h.49V27h-1q-4.11,0-4.11-3.75c0-.42,0-1.14.16-2.18,0-.12,0-.35.06-.68s0-.61.06-.83,0-.43,0-.64a2.49,2.49,0,0,0,0-.49A1.69,1.69,0,0,0,2.88,18a1.28,1.28,0,0,0-.34-.45,2,2,0,0,0-.61-.31A3.12,3.12,0,0,0,1,17.05Z"/><path class="cls-1" d="M30.07,17.2a2,2,0,0,0-.61.31,1.28,1.28,0,0,0-.34.45,1.69,1.69,0,0,0-.15.47,2.49,2.49,0,0,0,0,.49c0,.21,0,.42,0,.64s0,.5.06.83l.06.68c.11,1,.16,1.76.16,2.18q0,3.75-4.11,3.75h-1V24.68h.49a1.52,1.52,0,0,0,1.28-.52,2.33,2.33,0,0,0,.38-1.46,10.43,10.43,0,0,0-.14-1.55c-.08-1-.13-1.6-.13-1.92a5.3,5.3,0,0,1,.14-1.34,2.51,2.51,0,0,1,.46-.94,2.29,2.29,0,0,1,.73-.58,3.74,3.74,0,0,1,1-.34V16a4.11,4.11,0,0,1-1-.35,2.35,2.35,0,0,1-.73-.6,2.39,2.39,0,0,1-.46-.93A5.14,5.14,0,0,1,26,12.77c0-.34.05-1,.13-1.89a11.36,11.36,0,0,0,.14-1.58,2.35,2.35,0,0,0-.38-1.44,1.61,1.61,0,0,0-1.28-.52h-.49V5h.95a4.64,4.64,0,0,1,3.06.92,3.48,3.48,0,0,1,1.08,2.8c0,.42-.05,1.15-.16,2.18l-.06.68q0,.51-.06.84c0,.22,0,.43,0,.63a3.38,3.38,0,0,0,.05.51,1.55,1.55,0,0,0,.16.49,1.24,1.24,0,0,0,.34.44,1.86,1.86,0,0,0,.6.31A3.11,3.11,0,0,0,31,15v2.1A3.12,3.12,0,0,0,30.07,17.2Z"/><rect class="cls-2" x="2.36" y="9.13" width="27.22" height="13.75" rx="1"/><path class="cls-1" d="M4.17,21.5V10.38H6.31v9.29H9.12V21.5Z"/><path class="cls-1" d="M15,14.82v1.8h-2.5v3h2.83V21.5h-5V10.38h4.78v1.88H12.51v2.56Z"/><path class="cls-1" d="M16.25,21.15l.31-1.86a3.46,3.46,0,0,0,.85.31,4.28,4.28,0,0,0,1,.12,1.62,1.62,0,0,0,1.11-.35,1.15,1.15,0,0,0,.39-.91,1.56,1.56,0,0,0-.06-.44,1.8,1.8,0,0,0-.17-.37,2.15,2.15,0,0,0-.3-.34L19,17l-.51-.35a4.85,4.85,0,0,1-1-.73,3.83,3.83,0,0,1-.65-.79,3.25,3.25,0,0,1-.35-.8,2.64,2.64,0,0,1-.12-.78,3.88,3.88,0,0,1,.14-1,2.93,2.93,0,0,1,.43-.89,3.1,3.1,0,0,1,.69-.71,2.92,2.92,0,0,1,1-.47,4.35,4.35,0,0,1,1.23-.17,4.23,4.23,0,0,1,1,.12,2.47,2.47,0,0,1,.73.28l-.35,1.86a2.54,2.54,0,0,0-1.39-.38,1.42,1.42,0,0,0-1,.34,1.08,1.08,0,0,0-.35.81,1.53,1.53,0,0,0,.06.45,1.37,1.37,0,0,0,.25.4,3,3,0,0,0,.45.4c.19.13.43.3.74.49a3.6,3.6,0,0,1,2,3.18A3.43,3.43,0,0,1,21.53,20a3.16,3.16,0,0,1-1.29,1.19,4.19,4.19,0,0,1-1.88.41,5.34,5.34,0,0,1-1.21-.13A3.15,3.15,0,0,1,16.25,21.15Z"/><path class="cls-1" d="M22.68,21.15,23,19.29a3.62,3.62,0,0,0,.85.31,4.35,4.35,0,0,0,1,.12,1.62,1.62,0,0,0,1.11-.35,1.15,1.15,0,0,0,.39-.91,1.56,1.56,0,0,0-.06-.44,1.4,1.4,0,0,0-.17-.37,2,2,0,0,0-.29-.34c-.14-.11-.26-.22-.39-.31l-.51-.35a4.85,4.85,0,0,1-1-.73,3.83,3.83,0,0,1-.65-.79,4.23,4.23,0,0,1-.35-.8,2.64,2.64,0,0,1-.12-.78,3.88,3.88,0,0,1,.14-1,3.19,3.19,0,0,1,.43-.89,3.1,3.1,0,0,1,.69-.71,3,3,0,0,1,1-.47,4.42,4.42,0,0,1,1.24-.17,4.15,4.15,0,0,1,1,.12,2.47,2.47,0,0,1,.73.28l-.34,1.86a2.59,2.59,0,0,0-1.39-.38,1.43,1.43,0,0,0-1,.34,1.08,1.08,0,0,0-.35.81,1.53,1.53,0,0,0,.06.45,1.37,1.37,0,0,0,.25.4,2.69,2.69,0,0,0,.46.4c.18.13.42.3.73.49a3.61,3.61,0,0,1,2,3.18A3.43,3.43,0,0,1,28,20a3.19,3.19,0,0,1-1.28,1.19,4.24,4.24,0,0,1-1.89.41,5.41,5.41,0,0,1-1.21-.13A3.4,3.4,0,0,1,22.68,21.15Z"/></svg>