<svg id="Bases" xmlns="http://www.w3.org/2000/svg" viewBox="0 0 32 32"><defs><style>.cls-1{fill:#dcdbdd;}.cls-2{fill:#ffb612;}</style></defs><path class="cls-1" d="M1.17,27H4.74c.29,0,.7-.38,1.16-1.1L12.34,16l-.71-1.1L5.9,6.1C5.44,5.38,5,5,4.74,5H1.17c-.3,0-.2.38.26,1.1L7.87,16l-.71,1.1L1.43,25.9C1,26.62.87,27,1.17,27"/><path class="cls-2" d="M8.5,27h3.57c.29,0,.62-.26.94-.76l4.43-6.8.49.75,3.93,6c.32.5.65.76.94.76h3.58c.29,0-.06-.77-1-2.2L14,7.2C13,5.77,12.36,5,12.07,5H8.5c-.29,0-.2.38.26,1.1L15.2,16l-.71,1.1L8.76,25.9c-.46.72-.55,1.1-.26,1.1"/><path class="cls-1" d="M19.41,12.05,21.31,15H30c.62,0,1-.11,1-.32V12.05c0-.21-.41-.33-1.17-.33H19.2l.21.33"/><path class="cls-1" d="M22.86,17.36l1.9,2.92h5.62c.4,0,.62-.12.62-.33V17.36c0-.21-.29-.32-.83-.32H22.65l.21.32"/></svg>