<svg id="Bases" xmlns="http://www.w3.org/2000/svg" xmlns:xlink="http://www.w3.org/1999/xlink" viewBox="0 0 32 32"><defs><style>.cls-1{fill:none;}.cls-2{clip-path:url(#clip-path);}.cls-3{fill:#424242;}.cls-4{fill:#dcdbdd;}</style><clipPath id="clip-path"><rect class="cls-1" x="1" y="7" width="30" height="18"/></clipPath></defs><g class="cls-2"><polygon class="cls-3" points="7.77 20.14 7.77 23.75 2.31 23.75 2.31 8.25 7.38 8.25 10.23 13.81 13.08 8.25 18.15 8.25 18.15 15.96 19.61 15.96 19.61 8.25 26.23 8.25 26.23 15.96 31.1 15.96 22.93 24.16 18.15 19.5 18.15 23.75 12.69 23.75 12.69 20.14 10.23 24.94 7.77 20.14"/><path class="cls-4" d="M25.23,9.25V17h3.46l-5.77,5.79-5.77-5.63v5.63H13.69V16l-3.46,6.75L6.77,16v6.75H3.31V9.25H6.77L10.23,16l3.46-6.75h3.46V17h3.47V9.25h4.61m2-2H12.47l-.56,1.09-1.68,3.28L8.55,8.34,8,7.25H1.31v17.5H8.77v-.47l1.46,2.85,1.46-2.85v.47h7.46V21.87l2.38,2.31,1.41,1.38,1.4-1.4,5.77-5.78L33.51,15H27.23V7.25Z"/></g></svg>