<svg id="Bases" xmlns="http://www.w3.org/2000/svg" viewBox="0 0 32 32"><defs><style>.cls-1{fill:#5382a1;}.cls-2{fill:#e76f00;}</style></defs><path class="cls-1" d="M12.7,21.56s-.92.53.65.71a13.58,13.58,0,0,0,5-.21,8.39,8.39,0,0,0,1.32.65C15,24.72,9,22.59,12.7,21.56"/><path class="cls-1" d="M12.13,18.93s-1,.76.54.93a19.5,19.5,0,0,0,6.41-.31,2.88,2.88,0,0,0,1,.6c-5.68,1.66-12,.13-7.94-1.22"/><path class="cls-2" d="M17,14.48A1.76,1.76,0,0,1,16.66,17s2.94-1.52,1.59-3.42-2.23-2.65,3-5.69c0,0-8.22,2-4.29,6.58"/><path class="cls-1" d="M23.18,23.5s.68.56-.75,1c-2.71.82-11.28,1.07-13.67,0-.85-.37.75-.89,1.26-1a3.39,3.39,0,0,1,.83-.09c-1-.67-6.16,1.31-2.65,1.88,9.58,1.56,17.47-.7,15-1.82"/><path class="cls-1" d="M13.14,16.21s-4.36,1-1.54,1.41a32.19,32.19,0,0,0,5.77-.06c1.8-.15,3.61-.48,3.61-.48a8.49,8.49,0,0,0-1.09.59c-4.43,1.17-13,.62-10.53-.57a8.36,8.36,0,0,1,3.78-.89"/><path class="cls-1" d="M21,20.58c4.5-2.34,2.42-4.58,1-4.28a2.77,2.77,0,0,0-.51.14.81.81,0,0,1,.38-.3c2.88-1,5.09,3-.92,4.56a.35.35,0,0,0,.09-.12"/><path class="cls-2" d="M18.25,3s2.5,2.49-2.36,6.33c-3.9,3.08-.89,4.83,0,6.84-2.27-2.06-3.94-3.86-2.82-5.54C14.7,8.16,19.26,7,18.25,3"/><path class="cls-1" d="M13.58,26.92c4.33.28,11-.15,11.12-2.19,0,0-.3.77-3.57,1.39a35.85,35.85,0,0,1-10.94.17s.55.45,3.39.63"/></svg>