<svg xmlns="http://www.w3.org/2000/svg" viewBox="0 0 32 32"><defs><style>.cls-1{fill:#a669ff;}</style></defs><g id="Layer_3" data-name="Layer 3"><path class="cls-1" d="M18.14,31H10.81a4,4,0,0,1,1.44-3.68,2.55,2.55,0,0,0,.3-.41,2.74,2.74,0,0,0-.75-4.07,12.48,12.48,0,0,0-1.24-.71L7.91,20.67v-.34a12.76,12.76,0,0,1,1.36-.84,5.75,5.75,0,0,0,3.18-6.56c-.22-1.28-.72-2.73-2.37-3.2l.6-.8c-.17-.09-.29-.16-.41-.21A3.27,3.27,0,0,1,8.07,5a4.48,4.48,0,0,1,2.78-3.45c.48-.22,1-.39,1.49-.58h1.88a2.62,2.62,0,0,0,.39.15c4.18,1.07,4.85,5.48,2,8.61-.2.22-.67.46-.85.38a1.44,1.44,0,0,1-.49-.86A12.84,12.84,0,0,1,15,7.88a18.23,18.23,0,0,0,1,8.6,6.62,6.62,0,0,0,.67-1.79,7.91,7.91,0,0,1,1.87-3.5c2.65-3,7.33-1.23,8.13,1.64a8.84,8.84,0,0,0,.36.84v2.16c-.13.45-.28.9-.39,1.35a8.27,8.27,0,0,1-7.26,6.08A4.86,4.86,0,0,1,18.14,23a.6.6,0,0,0-.64.3,7,7,0,0,0-.54,2,3.69,3.69,0,0,0,.37,2.2A4.69,4.69,0,0,1,18.14,31Zm.67-8.76.29.2a9.39,9.39,0,0,0,1.34-1.72,2,2,0,0,0-.19-1.38c-.07-.18-.49-.22-.76-.32-.09.27-.34.61-.25.79A1.88,1.88,0,0,1,18.81,22.24Z"/></g></svg>