<svg id="Bases" xmlns="http://www.w3.org/2000/svg" viewBox="0 0 32 32"><defs><style>.cls-1{fill:#879636;}</style></defs><path class="cls-1" d="M5,23V9.29A26.29,26.29,0,0,1,9.28,9a6.83,6.83,0,0,1,4.28,1.11,3.75,3.75,0,0,1,1.1,1.38,4.31,4.31,0,0,1,.4,1.84,5.15,5.15,0,0,1-.33,1.88,3.72,3.72,0,0,1-1,1.42,5.12,5.12,0,0,1-2,1.09,8.35,8.35,0,0,1-2.59.37A6,6,0,0,1,8.14,18v5ZM8.14,11.49V15.6a5.55,5.55,0,0,0,1.06.08,3,3,0,0,0,2-.6,2,2,0,0,0,.73-1.65,1.84,1.84,0,0,0-.65-1.5,2.8,2.8,0,0,0-1.84-.54A5.61,5.61,0,0,0,8.14,11.49ZM23.05,23H19.89V17.31L15.47,9H19.1l1.41,3.44c.46,1.07.82,2,1.08,2.66h0c.21-.59.57-1.47,1.06-2.66L24.11,9h3.54l-4.6,8.21Z"/></svg>