<svg id="Bases" xmlns="http://www.w3.org/2000/svg" viewBox="0 0 32 32"><defs><style>.cls-1{fill:#f77737;}</style></defs><path class="cls-1" d="M10,17.69V9h3v8.71a8.48,8.48,0,0,1-.22,2.05,4.7,4.7,0,0,1-.61,1.5,3.4,3.4,0,0,1-1,1,4.1,4.1,0,0,1-1.32.57A7.35,7.35,0,0,1,8.24,23a8.33,8.33,0,0,1-1.18-.09A6.05,6.05,0,0,1,6,22.68l.34-2.52a4.81,4.81,0,0,0,1.56.25,3,3,0,0,0,.71-.08,1.5,1.5,0,0,0,.57-.27,1.53,1.53,0,0,0,.44-.5,2.63,2.63,0,0,0,.26-.78A5,5,0,0,0,10,17.69Z"/><path class="cls-1" d="M15.76,22.13l.62-2.51a8.7,8.7,0,0,0,1.58.6,7,7,0,0,0,1.8.24,2.75,2.75,0,0,0,1.59-.39,1.33,1.33,0,0,0,0-2.12,6,6,0,0,0-1.75-.85c-2.48-.89-3.72-2.24-3.72-4a3.65,3.65,0,0,1,.36-1.61,3.81,3.81,0,0,1,1-1.29,4.66,4.66,0,0,1,1.61-.86A6.9,6.9,0,0,1,21,9a7.84,7.84,0,0,1,3.44.69l-.68,2.45A6.13,6.13,0,0,0,21,11.5a2.36,2.36,0,0,0-1.45.38,1.12,1.12,0,0,0-.51.93,1,1,0,0,0,.1.47,1.22,1.22,0,0,0,.26.38,2.24,2.24,0,0,0,.51.35,7.37,7.37,0,0,0,.69.34c.24.1.55.23.94.37a6.51,6.51,0,0,1,2.64,1.65,3.55,3.55,0,0,1,.84,2.4,4,4,0,0,1-.21,1.31,3.46,3.46,0,0,1-.63,1.16,4.37,4.37,0,0,1-1.07.92,5.37,5.37,0,0,1-1.53.6,8.17,8.17,0,0,1-2,.22,9,9,0,0,1-2.14-.25A6.84,6.84,0,0,1,15.76,22.13Z"/></svg>