<svg id="Bases" xmlns="http://www.w3.org/2000/svg" xmlns:xlink="http://www.w3.org/1999/xlink" viewBox="0 0 32 32"><defs><style>.cls-1{fill:none;}.cls-2{clip-path:url(#clip-path);}.cls-3{fill:#424242;}.cls-4{fill:#3f3f40;}</style><clipPath id="clip-path"><rect class="cls-1" x="3" y="8" width="26" height="16"/></clipPath></defs><g class="cls-2"><polygon class="cls-3" points="9 20.24 9 23 4 23 4 9 8.62 9 11 13.76 13.38 9 18 9 18 15.86 19 15.86 19 9 25 9 25 15.86 29.37 15.86 22.01 23.42 18 19.41 18 23 13 23 13 20.24 11 24.24 9 20.24"/><path class="cls-4" d="M24,10v6.86h3L22,22l-5-5v5H14V16l-3,6L8,16v6H5V10H8l3,6,3-6h3v6.86h3V10h4m2-2H12.76l-.55,1.11L11,11.53,9.79,9.11,9.24,8H3V24H9.76L11,26.47,12.24,24H19V21.83l1.59,1.58L22,24.85l1.41-1.46,5-5.14,3.3-3.39H26V8Z"/></g></svg>
