<svg id="Bases" xmlns="http://www.w3.org/2000/svg" viewBox="0 0 32 32"><defs><style>.cls-1{fill:#e29f00;}</style></defs><path class="cls-1" d="M4.91,23V9.32A24.81,24.81,0,0,1,9,9a11.18,11.18,0,0,1,2.59.26,4.41,4.41,0,0,1,1.77.83A3.52,3.52,0,0,1,14.59,13a3.44,3.44,0,0,1-.21,1.2,3.11,3.11,0,0,1-.55,1,4,4,0,0,1-.76.72,3.15,3.15,0,0,1-.86.47v.07a2.47,2.47,0,0,1,1.11.92A5.77,5.77,0,0,1,14,19.07c.08.31.21.82.38,1.51s.32,1.23.42,1.61a5.43,5.43,0,0,0,.28.81H12a18.54,18.54,0,0,1-.92-3.23,5.66,5.66,0,0,0-.32-1.08,2.08,2.08,0,0,0-.46-.68,1.64,1.64,0,0,0-.61-.35,3.15,3.15,0,0,0-.83-.11h-.9V23Zm3-11.52v3.8h1.2a2.74,2.74,0,0,0,1.78-.53,1.81,1.81,0,0,0,.64-1.46A1.76,1.76,0,0,0,11,11.87a2.48,2.48,0,0,0-1.65-.49A6.07,6.07,0,0,0,7.93,11.48Z"/><path class="cls-1" d="M17,22.15l.67-2.52a10,10,0,0,0,1.71.6,8.15,8.15,0,0,0,1.95.25,3.13,3.13,0,0,0,1.71-.4,1.23,1.23,0,0,0,.6-1.08,1.26,1.26,0,0,0-.55-1,6.84,6.84,0,0,0-1.89-.85c-2.68-.89-4-2.24-4-4a3.46,3.46,0,0,1,.39-1.62,3.84,3.84,0,0,1,1.09-1.29,5.06,5.06,0,0,1,1.74-.86A8,8,0,0,1,22.69,9a9.17,9.17,0,0,1,3.73.69l-.74,2.46a7.07,7.07,0,0,0-3-.65,2.78,2.78,0,0,0-1.57.38,1.09,1.09,0,0,0-.55.93,1,1,0,0,0,.1.47,1.52,1.52,0,0,0,.29.39,3,3,0,0,0,.54.35c.24.12.49.23.75.34l1,.37a7,7,0,0,1,2.86,1.65,3.37,3.37,0,0,1,.91,2.4,3.89,3.89,0,0,1-.22,1.32,3.71,3.71,0,0,1-.69,1.15,4.45,4.45,0,0,1-1.16.92,6,6,0,0,1-1.65.61,10.15,10.15,0,0,1-2.15.22,10.65,10.65,0,0,1-2.32-.26A7.37,7.37,0,0,1,17,22.15Z"/></svg>