<svg id="Bases" xmlns="http://www.w3.org/2000/svg" viewBox="0 0 32 32"><defs><style>.cls-1{fill:#5382a1;}.cls-2{fill:#e76f00;}</style></defs><path class="cls-1" d="M11.91,24.2s-1.14.67.82.89a17.08,17.08,0,0,0,6.21-.26,11.34,11.34,0,0,0,1.65.81c-5.87,2.51-13.29-.15-8.68-1.44"/><path class="cls-1" d="M11.2,20.92s-1.29.95.67,1.15a24.52,24.52,0,0,0,8-.38,3.65,3.65,0,0,0,1.23.75c-7.1,2.08-15,.16-9.92-1.52"/><path class="cls-2" d="M17.25,15.34c1.44,1.67-.38,3.17-.38,3.17s3.67-1.9,2-4.27-2.78-3.32,3.76-7.11c0,0-10.27,2.56-5.36,8.21"/><path class="cls-1" d="M25,26.63s.85.7-.93,1.24c-3.39,1-14.11,1.34-17.09,0-1.07-.46.94-1.11,1.57-1.25a4,4,0,0,1,1-.11c-1.19-.84-7.69,1.64-3.3,2.36,12,1.94,21.83-.88,18.72-2.28"/><path class="cls-1" d="M12.46,17.51S7,18.81,10.53,19.28a41.13,41.13,0,0,0,7.22-.08c2.25-.19,4.52-.59,4.52-.59a9.41,9.41,0,0,0-1.37.73c-5.54,1.46-16.24.78-13.16-.71a10.35,10.35,0,0,1,4.72-1.12"/><path class="cls-1" d="M22.25,23c5.62-2.92,3-5.74,1.21-5.36a4.72,4.72,0,0,0-.65.18,1,1,0,0,1,.48-.37c3.6-1.27,6.36,3.72-1.16,5.7a.56.56,0,0,0,.12-.15"/><path class="cls-2" d="M18.85,1s3.12,3.12-3,7.91c-4.87,3.85-1.11,6,0,8.55-2.84-2.57-4.93-4.82-3.53-6.93C14.42,7.45,20.11,6,18.85,1"/><path class="cls-1" d="M13,30.91c5.4.34,13.7-.2,13.89-2.75,0,0-.37,1-4.46,1.74a44.85,44.85,0,0,1-13.67.21s.69.57,4.24.8"/></svg>