<svg id="Bases" xmlns="http://www.w3.org/2000/svg" viewBox="0 0 32 32"><defs><style>.cls-1{fill:#dcdbdd;}.cls-2{fill:#f77737;}</style></defs><path class="cls-1" d="M1,17.05V15a3.11,3.11,0,0,0,.92-.15,1.86,1.86,0,0,0,.6-.31,1.24,1.24,0,0,0,.34-.44A1.55,1.55,0,0,0,3,13.56a3.38,3.38,0,0,0,0-.51c0-.2,0-.41,0-.63s0-.5-.06-.84-.05-.56-.06-.68c-.11-1-.16-1.76-.16-2.18a3.48,3.48,0,0,1,1.08-2.8A4.64,4.64,0,0,1,6.91,5h1V7.34H7.37a1.61,1.61,0,0,0-1.28.52A2.35,2.35,0,0,0,5.71,9.3a11.36,11.36,0,0,0,.14,1.58c.08.91.13,1.55.13,1.89a5.14,5.14,0,0,1-.14,1.32,2.39,2.39,0,0,1-.46.93,2.35,2.35,0,0,1-.73.6,4.11,4.11,0,0,1-1,.35V16a3.74,3.74,0,0,1,1,.34,2.29,2.29,0,0,1,.73.58,2.51,2.51,0,0,1,.46.94A5.3,5.3,0,0,1,6,19.23c0,.32-.05,1-.13,1.92a10.43,10.43,0,0,0-.14,1.55,2.33,2.33,0,0,0,.38,1.46,1.52,1.52,0,0,0,1.28.52h.49V27h-1q-4.11,0-4.11-3.75c0-.42,0-1.14.16-2.18,0-.12,0-.35.06-.68s0-.61.06-.83,0-.43,0-.64a2.49,2.49,0,0,0,0-.49A1.69,1.69,0,0,0,2.88,18a1.28,1.28,0,0,0-.34-.45,2,2,0,0,0-.61-.31A3.12,3.12,0,0,0,1,17.05Z"/><path class="cls-1" d="M30.07,17.2a2,2,0,0,0-.61.31,1.28,1.28,0,0,0-.34.45,1.69,1.69,0,0,0-.15.47,2.49,2.49,0,0,0,0,.49c0,.21,0,.42,0,.64s0,.5.06.83l.06.68c.11,1,.16,1.76.16,2.18q0,3.75-4.11,3.75h-1V24.68h.49a1.52,1.52,0,0,0,1.28-.52,2.33,2.33,0,0,0,.38-1.46,10.43,10.43,0,0,0-.14-1.55c-.08-1-.13-1.6-.13-1.92a5.3,5.3,0,0,1,.14-1.34,2.51,2.51,0,0,1,.46-.94,2.29,2.29,0,0,1,.73-.58,3.74,3.74,0,0,1,1-.34V16a4.11,4.11,0,0,1-1-.35,2.35,2.35,0,0,1-.73-.6,2.39,2.39,0,0,1-.46-.93A5.14,5.14,0,0,1,26,12.77c0-.34.05-1,.13-1.89a11.36,11.36,0,0,0,.14-1.58,2.35,2.35,0,0,0-.38-1.44,1.61,1.61,0,0,0-1.28-.52h-.49V5h.95a4.64,4.64,0,0,1,3.06.92,3.48,3.48,0,0,1,1.08,2.8c0,.42-.05,1.15-.16,2.18l-.06.68q0,.51-.06.84c0,.22,0,.43,0,.63a3.38,3.38,0,0,0,.05.51,1.55,1.55,0,0,0,.16.49,1.24,1.24,0,0,0,.34.44,1.86,1.86,0,0,0,.6.31A3.11,3.11,0,0,0,31,15v2.1A3.12,3.12,0,0,0,30.07,17.2Z"/><path class="cls-2" d="M24.46,7.69c-.65-2.58-4.89-3.43-8.91-2a20.09,20.09,0,0,0-6.83,4C6.5,11.75,6.15,13.57,6.3,14.33c.51,2.68,4.15,4.43,5.64,5.73h0c-.44.22-3.67,1.87-4.42,3.55s.13,3.06.74,3.23a4.5,4.5,0,0,0,4.88-2,5,5,0,0,0,.49-4.45,5.47,5.47,0,0,1,2.2-.13c2.53.3,3,1.89,2.93,2.56A1.66,1.66,0,0,1,18,24c-.18.11-.23.15-.22.23s.11.12.26.09a2,2,0,0,0,1.37-1.77c.06-1.57-1.42-3.31-4.05-3.27a6.72,6.72,0,0,0-2.25.31L13,19.43c-1.62-1.74-4.63-3-4.5-5.33,0-.86.34-3.11,5.77-5.84,4.44-2.24,8-1.62,8.62-.26.88,1.95-1.9,5.57-6.52,6.1a3.47,3.47,0,0,1-2.92-.75c-.24-.27-.27-.28-.37-.23s0,.32,0,.46a2.78,2.78,0,0,0,1.67,1.33,8.81,8.81,0,0,0,5.41-.54C22.92,13.27,25.1,10.23,24.46,7.69ZM12.56,20.86a3.74,3.74,0,0,1,0,2.18,1.8,1.8,0,0,1-.08.21l-.09.22a4.44,4.44,0,0,1-.66,1c-.84.92-2,1.27-2.51,1s-.27-1.61.7-2.65a9.81,9.81,0,0,1,2.54-1.83h0Z"/></svg>