<svg id="Bases" xmlns="http://www.w3.org/2000/svg" viewBox="0 0 32 32"><defs><style>.cls-1{fill:#dcdbdd;}</style></defs><path class="cls-1" d="M6,23.27l1.5-.06.07-.05a.14.14,0,0,0,.08-.07Q10.44,15.86,14.14,6c.31,0,1.74,0,4.27,0q.94,2.69,3,8.58l3,8.6,1.59.09V26H17.26V23.27l1.57-.09s0,0,.06,0a.06.06,0,0,0,0-.08,13.43,13.43,0,0,0-.54-1.68.16.16,0,0,0-.18-.12l-5.83,0c-.06.24-.16.58-.28,1s-.2.74-.23.85l1.66.09V26H6Zm9.42-11.39h-.15q-.93,3-2.1,6.53c0,.13,0,.19,0,.19h4.35Q17.22,17.6,15.42,11.88Z"/></svg>