<svg id="Bases" xmlns="http://www.w3.org/2000/svg" viewBox="0 0 32 32"><defs><style>.cls-1{fill:#3f3f40;}.cls-2{fill:#ffb612;}</style></defs><path class="cls-1" d="M6.38,23H8.72c.19,0,.45-.24.75-.7l4.2-6.3-.46-.7L9.47,9.7c-.3-.46-.56-.7-.75-.7H6.38c-.19,0-.13.24.18.7l4.2,6.3-.47.7L6.56,22.3c-.31.46-.37.7-.18.7"/><path class="cls-2" d="M11.17,23H13.5c.19,0,.4-.17.61-.48L17,18.19l.32.48,2.57,3.85c.21.31.42.48.61.48h2.33c.19,0,0-.49-.64-1.4L14.72,10.4c-.6-.91-1-1.4-1.22-1.4H11.17c-.19,0-.13.24.17.7l4.2,6.3-.47.7-3.73,5.6c-.3.46-.36.7-.17.7"/><path class="cls-1" d="M18.29,13.48l1.23,1.86h5.7c.41,0,.63-.07.63-.21V13.48c0-.13-.27-.2-.76-.2H18.15l.14.2"/><path class="cls-1" d="M20.54,16.87l1.24,1.85h3.67c.26,0,.4-.07.4-.2V16.87c0-.14-.19-.21-.54-.21H20.4l.14.21"/></svg>
