<svg xmlns="http://www.w3.org/2000/svg" viewBox="0 0 32 32"><defs><style>.cls-1{fill:#ffb612;}</style></defs><g id="Layer_3" data-name="Layer 3"><path class="cls-1" d="M4,9.1H6.61V22.86H4Z"/><path class="cls-1" d="M8.92,22.82V9.28A16.62,16.62,0,0,1,12.25,9a8.68,8.68,0,0,1,2.62.34,4.87,4.87,0,0,1,1.87,1.06q1.92,1.71,1.92,5.29a10,10,0,0,1-.51,3.37,5.94,5.94,0,0,1-1.41,2.29,7,7,0,0,1-5,1.65A22,22,0,0,1,8.92,22.82Zm2.64-11.39v9.16a4.79,4.79,0,0,0,.79,0,3.29,3.29,0,0,0,1.43-.27,3.07,3.07,0,0,0,1.11-.87A4,4,0,0,0,15.62,18a8.67,8.67,0,0,0,.26-2.22A5.31,5.31,0,0,0,15,12.46a2.91,2.91,0,0,0-2.44-1.13A3.83,3.83,0,0,0,11.56,11.43Z"/><path class="cls-1" d="M20.39,22.86V9.28A17.66,17.66,0,0,1,23.73,9a8.28,8.28,0,0,1,2.2.25,3.58,3.58,0,0,1,1.52.81A3.79,3.79,0,0,1,28.53,13a4,4,0,0,1-.16,1.15,3.28,3.28,0,0,1-.46,1,3.94,3.94,0,0,1-.66.75,3,3,0,0,1-.79.5v.07a2.12,2.12,0,0,1,1,.92A5.78,5.78,0,0,1,28.05,19c.05.23.12.54.2.93s.15.7.21.95.12.52.18.8.13.53.18.72.11.34.15.44H26.26a18.79,18.79,0,0,1-.78-3.23,5.52,5.52,0,0,0-.37-1.35,1.53,1.53,0,0,0-.56-.67,1.75,1.75,0,0,0-.85-.19H23v5.44ZM23,11.35v3.89h.88a1.89,1.89,0,0,0,1.47-.56,2,2,0,0,0,.54-1.48,2,2,0,0,0-.48-1.44A1.89,1.89,0,0,0,24,11.24,3.53,3.53,0,0,0,23,11.35Z"/></g></svg>