<svg id="Bases" xmlns="http://www.w3.org/2000/svg" viewBox="0 0 32 32"><defs><style>.cls-1{fill:#8ac4e6;}.cls-2{fill:#dfdcdb;}.cls-3{fill:#111;}.cls-4{fill:#fff;}.cls-5{fill:#b6927f;}.cls-6{fill:#231815;}.cls-7{fill:#3a88bd;}</style></defs><path class="cls-1" d="M26.83,4.94c-.73-1.59-2.51-.19-3-.68A10.17,10.17,0,0,0,16.6,1H15.4A9.94,9.94,0,0,0,8.13,4.26c-.45.49-2.23-.91-3,.68C4.32,6.8,6.89,7,6.76,7.81a26.7,26.7,0,0,0,.1,5.87C7.19,17.37,4.59,26.2,10,29.75c1,.67,3.76,1.05,6.15,1.1h0c2.4-.05,4.81-.43,5.83-1.1,5.41-3.55,2.81-12.38,3.14-16.07a26.7,26.7,0,0,0,.1-5.87C25.11,7,27.68,6.8,26.83,4.94Z"/><path class="cls-2" d="M19.81,6.07c-3.65.45-3.16,4.51-1.75,5.82,2.63,2.44,5.37,0,5.07-2.48S21,5.93,19.81,6.07Z"/><ellipse class="cls-3" cx="20.05" cy="9.56" rx="1.25" ry="1.33"/><ellipse class="cls-4" cx="19.73" cy="8.99" rx="0.39" ry="0.42"/><path class="cls-5" d="M16,12.2c-1.75.28-2.37.81-2.24,1.66.22,1.37,4.35,1.22,4.47.07C18.35,12.94,16.69,12.09,16,12.2Z"/><path class="cls-6" d="M14.88,12.76c-.3,1.14,2.37,1,2.31.23,0-.43-.4-1-1.35-1A1,1,0,0,0,14.88,12.76Z"/><path class="cls-2" d="M15,14.61c-.09,0-.26,1.18.24,1.24a3.92,3.92,0,0,0,1.49,0,.82.82,0,0,0,.14-1.16A3.58,3.58,0,0,0,15,14.61Z"/><path class="cls-2" d="M12.19,6.07c3.65.45,3.16,4.51,1.75,5.82-2.63,2.44-5.37,0-5.07-2.48S11.05,5.93,12.19,6.07Z"/><ellipse class="cls-3" cx="11.95" cy="9.56" rx="1.25" ry="1.33"/><ellipse class="cls-4" cx="12.27" cy="8.99" rx="0.39" ry="0.42"/><path class="cls-5" d="M25.33,21.47c1.2,0,.6-2.73-.14-2.19a1.78,1.78,0,0,0-.42,1.4C24.77,21,25,21.46,25.33,21.47Z"/><path class="cls-5" d="M6.67,21.47c-1.2,0-.6-2.73.14-2.19a1.78,1.78,0,0,1,.42,1.4C7.23,21,7,21.46,6.67,21.47Z"/><path class="cls-5" d="M23,29.9c-.66-1-1.25-.24-2.21.28-.45.25.74,1.12,2.08.47C23.26,30.47,23.26,30.24,23,29.9Z"/><path class="cls-5" d="M9,30c.66-1,1.25-.23,2.21.29.45.24-.74,1.12-2.08.46C8.74,30.59,8.74,30.36,9,30Z"/><path class="cls-7" d="M24.78,5.22c-.07.25.23.22.34,1,0,.28,1-.4.6-.91S24.84,5,24.78,5.22Z"/><path class="cls-7" d="M7.22,5.22c.07.25-.23.22-.34,1,0,.28-1-.4-.6-.91S7.16,5,7.22,5.22Z"/></svg>