<svg id="Bases" xmlns="http://www.w3.org/2000/svg" viewBox="0 0 32 32"><defs><style>.cls-1{fill:#0078e5;}</style></defs><path class="cls-1" d="M11.38,23H7.8L3.45,9H6.81l1.65,5.92q.87,3.15,1.21,5h.06c.33-1.59.74-3.23,1.23-4.95l1.73-6H16Z"/><path class="cls-1" d="M17.5,22.8V9.28c.45-.07,1.06-.14,1.83-.2S20.87,9,21.64,9a15.14,15.14,0,0,1,2.47.17,5.37,5.37,0,0,1,1.73.6,3.16,3.16,0,0,1,1.22,1.1,2.87,2.87,0,0,1,.46,1.62,2.69,2.69,0,0,1-.25,1.16,2.79,2.79,0,0,1-.78,1,4.26,4.26,0,0,1-1.31.76v0a3.9,3.9,0,0,1,2,1.2A3.15,3.15,0,0,1,28,18.81a3.56,3.56,0,0,1-1.47,2.94C25.46,22.59,23.6,23,21,23A26.47,26.47,0,0,1,17.5,22.8Zm3.17-11.45v3.2h1a3.32,3.32,0,0,0,1.92-.46,1.41,1.41,0,0,0,.66-1.23,1.35,1.35,0,0,0-.58-1.19A3,3,0,0,0,22,11.26,8.53,8.53,0,0,0,20.67,11.35Zm0,5.42v3.88a11.16,11.16,0,0,0,1.24,0,4.31,4.31,0,0,0,1-.11,3,3,0,0,0,.87-.34,1.75,1.75,0,0,0,.82-1.55,1.66,1.66,0,0,0-.22-.87,1.56,1.56,0,0,0-.62-.6,3.18,3.18,0,0,0-.91-.34,5.52,5.52,0,0,0-1.12-.11Z"/></svg>