<svg id="Bases" xmlns="http://www.w3.org/2000/svg" viewBox="0 0 32 32"><defs><style>.cls-1{fill:#0095d7;}</style></defs><path class="cls-1" d="M3,23V9.27A11.53,11.53,0,0,1,5.64,9a7.88,7.88,0,0,1,2.08.24,3.08,3.08,0,0,1,1.44.84A3.19,3.19,0,0,1,10,11.4a5.19,5.19,0,0,1,.28,1.73,4.94,4.94,0,0,1-1.1,3.36,3.63,3.63,0,0,1-1.44,1A4.58,4.58,0,0,1,6,17.83l-.5,0V23ZM5.52,11.3v4.32l.42,0A1.59,1.59,0,0,0,7.31,15a2.72,2.72,0,0,0,.46-1.66,4.86,4.86,0,0,0,0-.69,2.79,2.79,0,0,0-.18-.6,1.77,1.77,0,0,0-.32-.47,1.23,1.23,0,0,0-.46-.3,1.75,1.75,0,0,0-.62-.11A1.71,1.71,0,0,0,5.52,11.3Z"/><path class="cls-1" d="M11.8,9.06h2.52v5.58H17V9.06h2.53V23H17V17.17H14.32V23H11.8Z"/><path class="cls-1" d="M21.72,23V9.27A11.53,11.53,0,0,1,24.36,9a7.88,7.88,0,0,1,2.08.24,3.08,3.08,0,0,1,1.44.84,3.19,3.19,0,0,1,.84,1.32A5.19,5.19,0,0,1,29,13.13a4.94,4.94,0,0,1-1.1,3.36,3.63,3.63,0,0,1-1.44,1,4.58,4.58,0,0,1-1.72.34l-.5,0V23Zm2.52-11.7v4.32l.42,0A1.59,1.59,0,0,0,26,15a2.72,2.72,0,0,0,.46-1.66,4.86,4.86,0,0,0,0-.69,2.79,2.79,0,0,0-.18-.6,1.77,1.77,0,0,0-.32-.47,1.23,1.23,0,0,0-.46-.3,1.75,1.75,0,0,0-.62-.11A1.71,1.71,0,0,0,24.24,11.3Z"/></svg>