<svg id="Bases" xmlns="http://www.w3.org/2000/svg" viewBox="0 0 32 32"><defs><style>.cls-1{fill:#3f3f40;}.cls-2{fill:#1b5eab;}.cls-3{fill:#f77737;}</style></defs><path class="cls-1" d="M24,7H8A2,2,0,0,0,6,9V23a2,2,0,0,0,2,2H19.67L20,23H8V9H24v1h2V9A2,2,0,0,0,24,7Z"/><polygon class="cls-1" points="20 18 20 16 19 17 20 18"/><polygon class="cls-1" points="24 13 24 12 23 13 24 13"/><rect class="cls-1" x="10" y="12" width="6" height="2"/><rect class="cls-1" x="10" y="17" width="10" height="2"/><path class="cls-2" d="M21.68,22.53,20.25,31H21l3-4,3.25,4H28l-1.68-8.47Z"/><path class="cls-3" d="M24,11a6,6,0,1,0,6,6A6,6,0,0,0,24,11Zm0,9a3,3,0,1,1,3-3A3,3,0,0,1,24,20Z"/></svg>
