<svg id="Bases" xmlns="http://www.w3.org/2000/svg" viewBox="0 0 32 32"><defs><style>.cls-1{fill:#dcdbdd;}.cls-2{fill:#41b883;}.cls-3{fill:#35495e;}.cls-4{font-size:25px;fill:#57aa54;font-family:SegoeUI-Bold, Segoe UI;font-weight:700;letter-spacing:0.01em;}</style></defs><polygon class="cls-1" points="7.25 9 9.13 11.1 4.75 16 9.13 20.9 7.25 23 1 16 7.25 9"/><polygon class="cls-1" points="24.75 23 22.88 20.9 27.25 16 22.88 11.1 24.75 9 31 16 24.75 23"/><path class="cls-2" d="M19.6,11H22L16,22,10,11h4.59L16,13.55,17.38,11Z"/><path class="cls-2" d="M10,11l6,11,6-11H19.6L16,17.6,12.37,11Z"/><path class="cls-3" d="M12.37,11,16,17.63,19.6,11H17.38L16,13.55,14.59,11Z"/><text class="cls-4" transform="translate(1.7 -8.75)">C</text></svg>