<svg id="Bases" xmlns="http://www.w3.org/2000/svg" viewBox="0 0 32 32"><defs><style>.cls-1{fill:#cc4e51;}</style></defs><path id="path2242" class="cls-1" d="M6.47,9A.52.52,0,0,0,6,9.5L6,22.4v.06a.14.14,0,0,0,0,.09H6s0,0,0,0H6a.06.06,0,0,0,0,0H6a.08.08,0,0,0,0,0h0l0,0h0l0,0h0l0,0v0l0,0h0l0,0h0l.08.05h0a.05.05,0,0,0,0,0h0l0,0h.22l4.94,0a27.39,27.39,0,0,0,2.92-.1h0a9.75,9.75,0,0,0,1.73-.41A8.67,8.67,0,0,0,19.08,21,7,7,0,0,0,21,18.7,5.89,5.89,0,0,0,21.61,16a6.14,6.14,0,0,0-1.19-3.64A7.48,7.48,0,0,0,17.2,9.83,14,14,0,0,0,11.87,9H6.47Zm2.87,2.65h2.3a19.29,19.29,0,0,1,2.27.09,6.78,6.78,0,0,1,1.43.38,5.13,5.13,0,0,1,1.33.73h0a3.56,3.56,0,0,1,1.53,3,3.88,3.88,0,0,1-1.48,3.16,4.9,4.9,0,0,1-1,.66,6.8,6.8,0,0,1-1.43.44,14,14,0,0,1-2.52.18H9.35V11.66Z"/><path id="path2211" class="cls-1" d="M25.31,13.76a3.5,3.5,0,0,1-3.65,3.36A3.52,3.52,0,0,1,18,13.77h0a3.5,3.5,0,0,1,3.65-3.35,3.52,3.52,0,0,1,3.66,3.35Z"/><path id="path2222" class="cls-1" d="M27,10.08a1.18,1.18,0,0,1-2.35,0h0a1.18,1.18,0,0,1,2.35,0Z"/></svg>