<svg id="Bases" xmlns="http://www.w3.org/2000/svg" viewBox="0 0 32 32"><defs><style>.cls-1{fill:#f77737;}</style></defs><path class="cls-1" d="M13.15,5.05c0,.15-.05.29-.32.42a3.69,3.69,0,0,0-1.76-.23c-.67.06-1.26.26-1.18.73s.78.72,1.94.62c2.85-.25,2.85-2.17,7-2.54C22.15,3.76,24,4.77,24.24,6c.2,1-.59,1.86-3,2.07-2.1.19-3.32-.37-3.45-1-.07-.28.12-.74,1.13-.85.1.45.69.93,2,.82,1-.09,1.82-.44,1.7-1s-1.16-.89-2.8-.76c-3.32.29-4.15,2.13-7,2.38-2,.17-3.66-.55-3.9-1.64-.08-.4-.1-1.37,2-1.56C12.17,4.43,13.06,4.62,13.15,5.05Z"/><path class="cls-1" d="M2.27,16.44A5.64,5.64,0,0,0,1,20.29a4.52,4.52,0,0,0,1.77,3.26,4.33,4.33,0,0,0,3.62.84A14.18,14.18,0,0,0,8,23.89,4.45,4.45,0,0,1,5.06,22.8a4.42,4.42,0,0,1-1.86-3,3.85,3.85,0,0,1,.68-3.18,4.3,4.3,0,0,1,3-1.59,5.25,5.25,0,0,1,3.45,1,10.15,10.15,0,0,0-.93-.92,4.49,4.49,0,0,0-3.72-.75A5.36,5.36,0,0,0,2.27,16.44Z"/><path class="cls-1" d="M16.91,10.19A43.12,43.12,0,0,1,8,9.35C5.55,8.77,4.28,8.1,4.28,7.26a1.2,1.2,0,0,1,.68-1C3.44,6.84,2.6,7.34,2.6,8.1S4,9.77,6.81,10.44a41.43,41.43,0,0,0,10,1,41.07,41.07,0,0,0,10-1C29.62,9.77,31,8.93,31,8.1c0-.59-.59-1.17-1.69-1.59a.87.87,0,0,1,.42.75c0,.84-1.26,1.51-3.79,2.09A44,44,0,0,1,16.91,10.19Z"/><path class="cls-1" d="M26.92,12.53a46.55,46.55,0,0,1-10,1,48.14,48.14,0,0,1-10.1-1c-2.36-.59-3.62-1.26-4-1.92h0A23.9,23.9,0,0,0,5.55,18.7c1,1.51,2,2.84,3,4.27a10.08,10.08,0,0,1,.93,2.51,5,5,0,0,0,2.78,1.84,11.51,11.51,0,0,0,4.47.66h.16a12.64,12.64,0,0,0,4.64-.66,5.11,5.11,0,0,0,2.7-1.84h.08A9.76,9.76,0,0,1,25.18,23c1-1.43,2-2.76,3-4.27A25.66,25.66,0,0,0,31,10.61C30.46,11.36,29.2,12,26.92,12.53Z"/></svg>