<svg id="Bases" xmlns="http://www.w3.org/2000/svg" viewBox="0 0 32 32"><defs><style>.cls-1{fill:#dcdbdd;}.cls-2{fill:#f77737;}</style></defs><path class="cls-1" d="M5,16.76V15.24a2.61,2.61,0,0,0,.68-.11,1.5,1.5,0,0,0,.44-.23.89.89,0,0,0,.25-.32,1.62,1.62,0,0,0,.12-.35,3.67,3.67,0,0,0,0-.38c0-.14,0-.29,0-.45s0-.36,0-.61,0-.41,0-.5c-.08-.75-.12-1.28-.12-1.58a2.47,2.47,0,0,1,.8-2A3.37,3.37,0,0,1,9.34,8H10V9.7H9.68a1.16,1.16,0,0,0-.94.38,1.66,1.66,0,0,0-.28,1.05,8.46,8.46,0,0,0,.1,1.14c.06.67.1,1.13.1,1.38a3.43,3.43,0,0,1-.11,1,1.73,1.73,0,0,1-.33.68,1.61,1.61,0,0,1-.54.43,2.67,2.67,0,0,1-.74.26v0a2.67,2.67,0,0,1,.74.25,1.58,1.58,0,0,1,.54.42,1.77,1.77,0,0,1,.33.69,3.45,3.45,0,0,1,.11,1c0,.23,0,.69-.1,1.4a7.85,7.85,0,0,0-.1,1.12,1.73,1.73,0,0,0,.28,1.07,1.15,1.15,0,0,0,.94.38H10V24H9.32c-2,0-3-.91-3-2.73,0-.3,0-.83.12-1.58,0-.09,0-.25,0-.5s0-.44,0-.6,0-.31,0-.46a1.86,1.86,0,0,0,0-.36,1.08,1.08,0,0,0-.11-.35.87.87,0,0,0-.25-.32,1.38,1.38,0,0,0-.44-.23A2.77,2.77,0,0,0,5,16.76Z"/><path class="cls-1" d="M26.35,16.87a1.38,1.38,0,0,0-.44.23.87.87,0,0,0-.25.32,1.46,1.46,0,0,0-.12.35,3.53,3.53,0,0,0,0,.36c0,.15,0,.3,0,.46s0,.36,0,.6,0,.41,0,.5c.08.75.12,1.28.12,1.58,0,1.82-1,2.73-3,2.73H22V22.32h.36a1.16,1.16,0,0,0,.94-.38,1.73,1.73,0,0,0,.28-1.07,7.85,7.85,0,0,0-.1-1.12c-.07-.71-.1-1.17-.1-1.4a3.91,3.91,0,0,1,.1-1,1.94,1.94,0,0,1,.34-.69,1.58,1.58,0,0,1,.54-.42A2.67,2.67,0,0,1,25.1,16v0a2.67,2.67,0,0,1-.74-.26,1.61,1.61,0,0,1-.54-.43,1.89,1.89,0,0,1-.34-.68,3.88,3.88,0,0,1-.1-1c0-.25,0-.71.1-1.38a8.46,8.46,0,0,0,.1-1.14,1.66,1.66,0,0,0-.28-1.05,1.18,1.18,0,0,0-.94-.38H22V8h.7a3.37,3.37,0,0,1,2.24.67,2.5,2.5,0,0,1,.8,2c0,.3,0,.83-.12,1.58,0,.09,0,.25,0,.5s0,.45,0,.61,0,.31,0,.45a2.09,2.09,0,0,0,0,.38,1.62,1.62,0,0,0,.12.35.89.89,0,0,0,.25.32,1.38,1.38,0,0,0,.44.23,2.61,2.61,0,0,0,.68.11v1.52A2.77,2.77,0,0,0,26.35,16.87Z"/><path class="cls-2" d="M22.24,10c-.48-1.88-3.6-2.5-6.55-1.45a14.71,14.71,0,0,0-5,2.88C9,12.91,8.78,14.23,8.89,14.78c.38,2,3,3.23,4.15,4.17h0c-.33.16-2.7,1.36-3.25,2.58s.09,2.23.54,2.35a3.34,3.34,0,0,0,3.59-1.45,3.65,3.65,0,0,0,.36-3.24,4.32,4.32,0,0,1,1.62-.1c1.85.22,2.22,1.38,2.15,1.86a1.23,1.23,0,0,1-.59.84c-.13.08-.17.11-.16.17s.08.08.19.06a1.46,1.46,0,0,0,1-1.29c0-1.14-1.05-2.41-3-2.37a4.84,4.84,0,0,0-1.65.22l-.08-.09c-1.2-1.27-3.4-2.17-3.31-3.89,0-.62.25-2.25,4.24-4.24,3.26-1.63,5.88-1.18,6.33-.19.64,1.42-1.4,4.05-4.79,4.43a2.52,2.52,0,0,1-2.14-.54c-.18-.19-.21-.2-.27-.17s0,.24,0,.34a2,2,0,0,0,1.22,1,6.46,6.46,0,0,0,4-.39C21.1,14,22.71,11.81,22.24,10Zm-8.75,9.58a2.65,2.65,0,0,1,0,1.58,1.66,1.66,0,0,1-.06.16l-.06.15a3.1,3.1,0,0,1-.49.71c-.62.67-1.48.93-1.85.71s-.19-1.17.52-1.93a7.21,7.21,0,0,1,1.87-1.33h0Z"/></svg>