<svg id="Bases" xmlns="http://www.w3.org/2000/svg" viewBox="0 0 32 32"><defs><style>.cls-1{fill:#dcb67a;}.cls-2{fill:#252526;}.cls-3{fill:#6e5594;fill-rule:evenodd;}</style></defs><path class="cls-1" d="M30,5V25a1,1,0,0,1-1,1H5a1,1,0,0,1-1-1V9A1,1,0,0,1,5,8h7l2-4H29A1,1,0,0,1,30,5ZM28,8V6H16L15,8Z"/><ellipse class="cls-2" cx="22.5" cy="22.73" rx="9.5" ry="9.27"/><path class="cls-3" d="M31.1,22.73a8.4,8.4,0,0,1-5.88,8c-.43.09-.59-.18-.59-.4s0-1.18,0-2.3a2,2,0,0,0-.58-1.56C26,26.22,28,25.51,28,22.29A3.17,3.17,0,0,0,27.1,20,2.94,2.94,0,0,0,27,17.82s-.72-.23-2.36.86a8.11,8.11,0,0,0-4.3,0c-1.64-1.09-2.37-.86-2.37-.86A3,3,0,0,0,17.9,20,3.17,3.17,0,0,0,17,22.29c0,3.22,2,3.94,3.91,4.15a1.76,1.76,0,0,0-.54,1.12,1.85,1.85,0,0,1-2.51-.7A1.79,1.79,0,0,0,16.57,26s-.84,0-.06.51a2.25,2.25,0,0,1,.95,1.23s.51,1.63,2.9,1.12c0,.7,0,1.23,0,1.43s-.16.48-.59.4A8.37,8.37,0,0,1,22.5,14.33,8.5,8.5,0,0,1,31.1,22.73Z"/></svg>