<svg xmlns="http://www.w3.org/2000/svg" viewBox="0 0 32 32"><defs><style>.cls-1{fill:#dcb67a;}.cls-2{fill:#467dcf;}.cls-3{fill:#252526;}</style></defs><g id="Bases"><path class="cls-1" d="M30,5V25a1,1,0,0,1-1,1H5a1,1,0,0,1-1-1V9A1,1,0,0,1,5,8h7l2-4H29A1,1,0,0,1,30,5ZM28,8V6H16L15,8Z"/></g><g id="Overlays"><path class="cls-2" d="M24.13,31a12,12,0,0,1-2.53-.27A8.66,8.66,0,0,1,19.54,30l-.71-.37.88-3.29,1.4-.65a7.17,7.17,0,0,0,1.51.53,6.69,6.69,0,0,0,1.71.22,2.18,2.18,0,0,0,1.16-.23c.15-.1.15-.16.15-.24s0-.13-.15-.25a5.61,5.61,0,0,0-1.6-.7c-3.13-1-4.72-2.72-4.72-5a4.53,4.53,0,0,1,.5-2.08A4.89,4.89,0,0,1,21,16.38a6.14,6.14,0,0,1,2.08-1A9.14,9.14,0,0,1,25.69,15a10,10,0,0,1,4.13.78l.81.35-1,3.3-1.38.62a6.22,6.22,0,0,0-2.61-.55,1.73,1.73,0,0,0-1,.21.39.39,0,0,0-.13.11.5.5,0,0,0,.08.12,2.29,2.29,0,0,0,.32.19c.2.1.43.2.67.3l1,.36a7.8,7.8,0,0,1,3.26,1.91A4.38,4.38,0,0,1,31,25.79a4.81,4.81,0,0,1-.28,1.65,4.53,4.53,0,0,1-.89,1.48A5.39,5.39,0,0,1,28.43,30a7.05,7.05,0,0,1-1.93.72A10.93,10.93,0,0,1,24.13,31ZM10.4,31V19.66H7V15H19v4.66H15.6V31Z"/><path class="cls-3" d="M25.69,16a9.17,9.17,0,0,1,3.73.69l-.74,2.46a7.07,7.07,0,0,0-3-.65,2.78,2.78,0,0,0-1.57.38,1.09,1.09,0,0,0-.55.93,1,1,0,0,0,.1.47,1.37,1.37,0,0,0,.29.39,3,3,0,0,0,.54.35c.24.12.49.23.75.34l1,.37a7.09,7.09,0,0,1,2.86,1.65,3.37,3.37,0,0,1,.91,2.4,3.81,3.81,0,0,1-.22,1.32,3.6,3.6,0,0,1-.69,1.15,4.48,4.48,0,0,1-1.16.93,6.33,6.33,0,0,1-1.65.6,9.54,9.54,0,0,1-2.15.22,10.64,10.64,0,0,1-2.32-.25,7.78,7.78,0,0,1-1.81-.6l.67-2.52a8.52,8.52,0,0,0,1.71.6,7.67,7.67,0,0,0,1.95.25,3,3,0,0,0,1.71-.4,1.22,1.22,0,0,0,.6-1.07A1.27,1.27,0,0,0,26.09,25a6.84,6.84,0,0,0-1.89-.85c-2.69-.89-4-2.24-4-4a3.46,3.46,0,0,1,.39-1.62,3.84,3.84,0,0,1,1.09-1.29,5.06,5.06,0,0,1,1.74-.86,8,8,0,0,1,2.3-.31M18,16v2.66H14.6V30H11.4V18.66H8V16H18m7.69-2a10.11,10.11,0,0,0-2.87.39,7.21,7.21,0,0,0-2.4,1.2A3.62,3.62,0,0,0,20,16V14H6v6.66H9.4V32h7.2V20.66h1.61a5.6,5.6,0,0,0,3,4.31l-2.5,1.15-.67,2.52-.42,1.56,1.44.73a9.26,9.26,0,0,0,2.29.77,12.73,12.73,0,0,0,2.75.3,11.7,11.7,0,0,0,2.59-.27,8.38,8.38,0,0,0,2.2-.81,6.52,6.52,0,0,0,1.67-1.34,5.48,5.48,0,0,0,1.07-1.81,5.74,5.74,0,0,0,.34-2A5.42,5.42,0,0,0,30.55,22a7.4,7.4,0,0,0-1.9-1.41l1.94-.88.74-2.45.51-1.69-1.61-.72A11.18,11.18,0,0,0,25.69,14Z"/></g></svg>