<svg id="Bases" xmlns="http://www.w3.org/2000/svg" viewBox="0 0 32 32"><defs><style>.icon-folder{fill:#dcb67a;}.cls-1{fill:#252526;}.cls-2{fill:#6e5594;fill-rule:evenodd;}</style></defs><path class="icon-folder" d="M28,4a2,2,0,0,1,2,2V24a1.92,1.92,0,0,1-2,2V6H16l-2,4H6v6H22l6,10H6L0,16H4V10C4,8,6.47,8,6,8h7l2-4Z"/><ellipse class="cls-1" cx="21.76" cy="22" rx="10.24" ry="10"/><path class="cls-2" d="M31,22a9.08,9.08,0,0,1-6.34,8.59c-.47.09-.64-.19-.64-.43s0-1.28,0-2.49A2.14,2.14,0,0,0,23.44,26c2.06-.23,4.23-1,4.23-4.47a3.46,3.46,0,0,0-1-2.43,3.21,3.21,0,0,0-.1-2.4s-.77-.24-2.54.93a9.16,9.16,0,0,0-4.65,0c-1.77-1.17-2.54-.93-2.54-.93a3.21,3.21,0,0,0-.1,2.4,3.46,3.46,0,0,0-.95,2.43C15.84,25,18,25.77,20.06,26a2,2,0,0,0-.59,1.21,2,2,0,0,1-2.69-.75,1.93,1.93,0,0,0-1.42-.93s-.91,0-.07.55a2.41,2.41,0,0,1,1,1.32s.55,1.76,3.13,1.22c0,.75,0,1.32,0,1.54s-.17.52-.64.43A9,9,0,0,1,21.75,13,9.17,9.17,0,0,1,31,22Z"/></svg>