<svg xmlns="http://www.w3.org/2000/svg" viewBox="0 0 32 32"><defs><style>.icon-folder{fill:#dcb67a;}.cls-1{fill:#f77737;}.cls-2{fill:#252526;}</style></defs><g id="Bases"><path class="icon-folder" d="M28,4a2,2,0,0,1,2,2V24a1.92,1.92,0,0,1-2,2V6H16l-2,4H6v6H22l6,10H6L0,16H4V10C4,8,6.47,8,6,8h7l2-4Z"/></g><g id="Overlays"><path class="cls-1" d="M13.24,31a8.75,8.75,0,0,1-1.32-.1,6.33,6.33,0,0,1-1.24-.28l-.78-.26L10.35,27l1.32-.81a3.92,3.92,0,0,0,1.23.19,2,2,0,0,0,.46-.05.66.66,0,0,0,.24-.11.61.61,0,0,0,.14-.17,1.49,1.49,0,0,0,.16-.5,4.44,4.44,0,0,0,.08-.89V15h5v9.71A10,10,0,0,1,18.78,27,6.24,6.24,0,0,1,18,28.81a4.41,4.41,0,0,1-1.29,1.29,5.12,5.12,0,0,1-1.64.7A8.22,8.22,0,0,1,13.24,31Z"/><path class="cls-2" d="M18,16v8.71a8.48,8.48,0,0,1-.22,2.05,4.7,4.7,0,0,1-.61,1.5,3.4,3.4,0,0,1-1,1,4.1,4.1,0,0,1-1.32.57,7.35,7.35,0,0,1-1.63.17,8.33,8.33,0,0,1-1.18-.09A6.05,6.05,0,0,1,11,29.68l.34-2.52a4.81,4.81,0,0,0,1.56.25,3,3,0,0,0,.71-.08,1.5,1.5,0,0,0,.57-.27,1.53,1.53,0,0,0,.44-.5,2.63,2.63,0,0,0,.26-.78,5,5,0,0,0,.1-1.09V16h3m2-2H13V24.69a3.21,3.21,0,0,1-.06.7v0h0a2.81,2.81,0,0,1-.91-.14L9.36,26.89,9,29.41,8.8,31l1.56.53a7.23,7.23,0,0,0,1.43.32,10.45,10.45,0,0,0,1.45.11,9.1,9.1,0,0,0,2.09-.23,6.1,6.1,0,0,0,2-.83,5.37,5.37,0,0,0,1.57-1.58,6.87,6.87,0,0,0,.89-2.13A10.88,10.88,0,0,0,20,24.71V14Z"/><path class="cls-1" d="M24.58,31a10.06,10.06,0,0,1-2.38-.28A7.57,7.57,0,0,1,20.28,30l-.67-.37.8-3.26,1.44-.65a6.54,6.54,0,0,0,1.37.52,5.83,5.83,0,0,0,1.54.21,1.79,1.79,0,0,0,1-.21A.26.26,0,0,0,25.9,26a.31.31,0,0,0-.14-.27A5.41,5.41,0,0,0,24.31,25c-2.91-1.05-4.39-2.72-4.39-5a4.72,4.72,0,0,1,.46-2,4.77,4.77,0,0,1,1.26-1.63,5.51,5.51,0,0,1,1.95-1A7.89,7.89,0,0,1,26,15a8.84,8.84,0,0,1,3.88.79l.75.36-.91,3.26L28.33,20A5,5,0,0,0,26,19.5a1.57,1.57,0,0,0-.86.18c-.1.08-.1.11-.1.13a.24.24,0,0,0,.08.15.85.85,0,0,0,.26.17,5.92,5.92,0,0,0,.62.3l.89.36a7.27,7.27,0,0,1,3,1.92A4.57,4.57,0,0,1,31,25.77a5.15,5.15,0,0,1-.26,1.63,4.62,4.62,0,0,1-.81,1.47A5.22,5.22,0,0,1,28.61,30a6.22,6.22,0,0,1-1.81.72A9.09,9.09,0,0,1,24.58,31Z"/><path class="cls-2" d="M26,16a7.84,7.84,0,0,1,3.44.69l-.68,2.45A6.13,6.13,0,0,0,26,18.5a2.36,2.36,0,0,0-1.45.38,1.12,1.12,0,0,0-.51.93,1,1,0,0,0,.1.47,1.22,1.22,0,0,0,.26.38,2.24,2.24,0,0,0,.51.35,7.37,7.37,0,0,0,.69.34c.24.1.55.23.94.37a6.51,6.51,0,0,1,2.64,1.65,3.55,3.55,0,0,1,.84,2.4,4,4,0,0,1-.21,1.31,3.46,3.46,0,0,1-.63,1.16,4.37,4.37,0,0,1-1.07.92,5.37,5.37,0,0,1-1.53.6,8.17,8.17,0,0,1-2,.22,9,9,0,0,1-2.14-.25,6.84,6.84,0,0,1-1.68-.6l.62-2.51a8.7,8.7,0,0,0,1.58.6,7,7,0,0,0,1.8.24,2.75,2.75,0,0,0,1.59-.39,1.33,1.33,0,0,0,0-2.12,6,6,0,0,0-1.75-.85c-2.48-.89-3.72-2.24-3.72-4a3.65,3.65,0,0,1,.36-1.61,3.81,3.81,0,0,1,1-1.29,4.66,4.66,0,0,1,1.61-.86A6.9,6.9,0,0,1,26,16m0-2a8.94,8.94,0,0,0-2.74.41A6.62,6.62,0,0,0,21,15.64a5.83,5.83,0,0,0-1.52,2,5.76,5.76,0,0,0-.55,2.47,5.63,5.63,0,0,0,3,4.95l-2.48,1.12-.62,2.52-.37,1.48,1.34.74a8.68,8.68,0,0,0,2.18.8,11.49,11.49,0,0,0,2.61.3A10.07,10.07,0,0,0,27,31.7a7.21,7.21,0,0,0,2.1-.84,6.07,6.07,0,0,0,1.57-1.36,5.5,5.5,0,0,0,1-1.79A5.93,5.93,0,0,0,32,25.77a5.52,5.52,0,0,0-1.33-3.71,7.09,7.09,0,0,0-1.92-1.52l2-.86.68-2.45.45-1.62-1.51-.73A10,10,0,0,0,26,14Z"/></g></svg>