<svg xmlns="http://www.w3.org/2000/svg" viewBox="0 0 32 32"><defs><style>.icon-folder{fill:#dcb67a;}.cls-1{fill:#018fd4;}.cls-2{fill:#252526;}.cls-3{fill:#1b9ad9;}.cls-4{fill:#007cb9;}.cls-5{fill:#34a3dd;}</style></defs><g id="Bases"><path class="icon-folder" d="M28,4a2,2,0,0,1,2,2V24a1.92,1.92,0,0,1-2,2V6H16l-2,4H6v6H22l6,10H6L0,16H4V10C4,8,6.47,8,6,8h7l2-4Z"/></g><g id="Overlays"><path class="cls-1" d="M17.06,31a1.53,1.53,0,0,1-.67-.16l-1.59-.74-.93-.42a1.15,1.15,0,0,1-.8-.78,1,1,0,0,1,.28-1l.28-.26,2.84-2.73,2.19-2.08a.65.65,0,0,1,.12-.11,1.13,1.13,0,0,1,.24-.3l.15-.11.21-.18,1.9-1.84L26,15.72a1.19,1.19,0,0,1,1.4-.27l2.18,1,.77.36a1,1,0,0,1,.58.93v10.8a1,1,0,0,1-.76,1,1,1,0,0,1-.24,0A1,1,0,0,1,29,29a1.63,1.63,0,0,1-.18-.88V20.19l-3.57,3.42a.76.76,0,0,1-.15.26,1,1,0,0,1-.42.31l-1.83,1.74a.94.94,0,0,1-.41.38l-.56.53-3.85,3.69A1.43,1.43,0,0,1,17.06,31Z"/><path class="cls-2" d="M26.89,16.33l.1,0,3,1.36c0,.15,0,.3,0,.44V28.55a.72.72,0,0,1-.07-.43V18.17c0-.06,0-.14-.05-.18h0c-.05,0-.09.05-.13.09L26.8,20.78,24.5,23c-.07.07-.19.13-.14.27h0a.27.27,0,0,0-.19.1c-.7.66-1.4,1.32-2.09,2,0,0,0,0,0,.06s-.21.14-.29.22q-2.19,2.09-4.37,4.18a.45.45,0,0,1-.32.16.64.64,0,0,1-.24-.06c-.83-.4-1.68-.78-2.53-1.16-.09,0-.23,0-.27-.18l.3-.27c.95-.91,1.9-1.82,2.84-2.74l2.19-2.08c.11-.11.26-.19.31-.35s.28-.22.41-.34L22,20.93l3.66-3.48,1.06-1c.06-.05.11-.11.19-.11m0-2a2.19,2.19,0,0,0-1.57.66l-.24.24-.82.77L21.6,18.54l-1,.94-.51.5-1.41,1.35-.13.11-.16.13A1.69,1.69,0,0,0,18,22L18,22l-1.64,1.56-.54.52-.67.64-2.17,2.09-.15.14-.11.09a2,2,0,0,0-.57,2.09,2.21,2.21,0,0,0,1.43,1.43l.85.39c.53.24,1,.47,1.57.72a2.46,2.46,0,0,0,1.1.26,2.41,2.41,0,0,0,1.71-.72q1.95-1.87,3.91-3.74l.41-.4a1.91,1.91,0,0,0,.57-.53L25.29,25a2.16,2.16,0,0,0,.64-.53,2.9,2.9,0,0,0,.19-.29l1.55-1.48.19-.19v5.56a2.61,2.61,0,0,0,.3,1.4,2,2,0,0,0,1.77,1.06,2,2,0,0,0,.48-.06,2,2,0,0,0,1.52-1.94V17.78a2,2,0,0,0-1.16-1.87l-.73-.34-2.21-1a2.16,2.16,0,0,0-.95-.22Zm-.65,8.25Zm-3.88,4.79Z"/><path class="cls-3" d="M26.9,31a1.12,1.12,0,0,1-.86-.4,1,1,0,0,1-.17-1.06l0-5.21V21.09a1.12,1.12,0,0,1-.05-.31,1,1,0,0,1,.31-.72l3-2.83a1.05,1.05,0,0,1,.51-.44,1.1,1.1,0,0,1,.36-.07,1,1,0,0,1,.71.3,1.23,1.23,0,0,1,.34,1v3.3q0,3.48,0,6.94a1.39,1.39,0,0,1-.88,1.35c-.56.24-1.13.5-1.69.76l-.93.42A1.15,1.15,0,0,1,26.9,31Z"/><path class="cls-2" d="M29.94,17.72c.09.1,0,.22,0,.33q0,5.11,0,10.25a.41.41,0,0,1-.28.43l-2.63,1.19a.46.46,0,0,1-.19.08.15.15,0,0,1-.11-.06.7.7,0,0,0,.08-.29c0-1.37,0-2.74,0-4.11s0-3,0-4.44c0-.1,0-.22-.05-.32l2.84-2.71s.08-.09.13-.09h0c.07,0,.05.12.05.18v10a.72.72,0,0,0,.07.43V18.16c0-.14,0-.29,0-.44m0-2a2,2,0,0,0-1.65.87l-.06.06-2.34,2.24-.47.45a2,2,0,0,0-.62,1.43,2.4,2.4,0,0,0,.05.46v8.15a2,2,0,0,0,.42,1.88A2.15,2.15,0,0,0,26.9,32,2.25,2.25,0,0,0,28,31.71l.87-.4,1.66-.75A2.38,2.38,0,0,0,32,28.3q0-3.48,0-6.94V18.11a2.22,2.22,0,0,0-.62-1.79,2,2,0,0,0-1.43-.6Z"/><path class="cls-4" d="M14,29.56a1.21,1.21,0,0,1-.37-.07,1,1,0,0,1-.62-.85l1-.08-1,0a2.83,2.83,0,0,1,0-.29V18.05c0-.11,0-.21,0-.32a1.05,1.05,0,0,1,1.07-.94.87.87,0,0,1,.63.24l.58.55.59.57c.27.27.54.54.82.79a10.28,10.28,0,0,1,1.22,1.24,1,1,0,0,1,.21.62v2.14l0,2.61a1,1,0,0,1-.3.72L15,29l-.32.29A1,1,0,0,1,14,29.56Z"/><path class="cls-2" d="M14,17.75l.58.56c.49.45.94.94,1.44,1.38a8.17,8.17,0,0,1,1.09,1.11v2.14c0,.87,0,1.74,0,2.61-.94.92-1.89,1.83-2.84,2.74l-.3.27a2.45,2.45,0,0,1,0-.27V18.05c0-.1,0-.2,0-.3m0-2a1.84,1.84,0,0,0-.69.13A2,2,0,0,0,12,17.56v0a3.4,3.4,0,0,0,0,.45V28.29a2.8,2.8,0,0,0,0,.4,2,2,0,0,0,1.26,1.71A2,2,0,0,0,15.36,30l.09-.07.26-.24,2.2-2.12.64-.61a2,2,0,0,0,.61-1.46v-.79c0-.61,0-1.21,0-1.82V20.81a2,2,0,0,0-.43-1.25,10.33,10.33,0,0,0-1.34-1.37c-.25-.22-.51-.48-.78-.75l-.6-.59-.39-.37-.19-.18A2,2,0,0,0,14,15.75Z"/><path class="cls-5" d="M19.66,24.12a1,1,0,0,1-.69-.28L16.7,21.7a1,1,0,0,1-.34-.28,8.18,8.18,0,0,0-1-1c-.31-.27-.61-.57-.91-.87L13.93,19l-.59-.57a1,1,0,0,1-.31-.75,1,1,0,0,1,.35-.73,2.89,2.89,0,0,1,.87-.49l.22-.09,1.13-.52.88-.4a1.36,1.36,0,0,1,.61-.15,1.3,1.3,0,0,1,.9.38l3.57,3.43,1.11,1.06a1,1,0,0,1,.31.72,1,1,0,0,1-.31.72L20.76,23.5l-.36.3-.11.09A1,1,0,0,1,19.66,24.12Z"/><path class="cls-2" d="M17.09,16.34a.28.28,0,0,1,.2.1q2.34,2.25,4.69,4.49l-1.91,1.85c-.13.12-.28.22-.41.34L17.43,21c-.08-.08-.15-.21-.29-.22a8.17,8.17,0,0,0-1.09-1.11c-.5-.44-1-.93-1.44-1.38L14,17.75a3.56,3.56,0,0,1,.87-.44l2-.92a.45.45,0,0,1,.18-.05m0-2a2.42,2.42,0,0,0-1,.24l-.87.4L14,15.51l-.16.06a4.19,4.19,0,0,0-1.14.65,2,2,0,0,0-.09,3l.18.17.41.39.53.52c.3.3.61.61,1,.92a6.06,6.06,0,0,1,.84.84,2.16,2.16,0,0,0,.53.47l1.67,1.57.51.49a2,2,0,0,0,1.38.55,2,2,0,0,0,1.27-.46l.1-.08a4.71,4.71,0,0,0,.42-.36c.48-.45.95-.91,1.42-1.37l.5-.48a2,2,0,0,0,0-2.88l-1-.94L18.68,15a2.22,2.22,0,0,0-1.59-.66Z"/><path class="cls-5" d="M26.79,30.94a1,1,0,0,1-.69-.27l-.5-.47-1.06-1-3.2-3.08a1,1,0,0,1-.27-1,.93.93,0,0,1,.29-.52l2.1-2a1.27,1.27,0,0,1,.88-.37h.13a.94.94,0,0,1,.53.23c.53.44,1,.92,1.5,1.38l.75.72a.23.23,0,0,0,.05.05,1,1,0,0,1,.56.89v4.12a1.6,1.6,0,0,1-.19.74,1,1,0,0,1-.72.54Z"/><path class="cls-2" d="M24.34,23.25h0c.77.65,1.47,1.38,2.21,2.07.08.08.14.21.29.22,0,1.37,0,2.74,0,4.11a.7.7,0,0,1-.08.29l-1.56-1.46L22,25.4s0,0,0-.06c.69-.67,1.39-1.33,2.09-2a.27.27,0,0,1,.19-.1m0-2a2.23,2.23,0,0,0-1.57.65c-.7.66-1.4,1.32-2.09,2a2.09,2.09,0,0,0-.6,1.12,2,2,0,0,0,.57,1.83l.93.9,2.27,2.18,1.09,1,.48.45a2,2,0,0,0,1.37.54l.35,0a2,2,0,0,0,1.43-1.07,2.61,2.61,0,0,0,.3-1.2V25.53a2,2,0,0,0-1-1.7l-.7-.67c-.49-.48-1-1-1.56-1.44a2,2,0,0,0-1.07-.46Z"/><path class="cls-1" d="M22,25.4c-.14,0-.21.14-.29.22q-2.19,2.09-4.37,4.18a.42.42,0,0,1-.56.1c-.83-.4-1.68-.78-2.53-1.16-.09,0-.23,0-.27-.18l.3-.27c.95-.91,1.9-1.82,2.84-2.74l2.19-2.08c.11-.11.26-.19.31-.35s.28-.22.41-.34L22,20.93l3.66-3.48,1.06-1c.08-.07.14-.15.29-.08l3,1.36c0,.15,0,.3,0,.44V28.55a.72.72,0,0,1-.07-.43V18.17c0-.06,0-.14-.05-.18s-.12,0-.17.08L26.8,20.78,24.5,23c-.07.07-.19.13-.14.27a.25.25,0,0,0-.21.1c-.7.66-1.4,1.32-2.09,2C22,25.35,22,25.38,22,25.4Z"/><path class="cls-3" d="M26.8,20.78l2.84-2.71c.05-.05.09-.12.17-.08s.05.12.05.18v10a.72.72,0,0,0,.07.43V18.16c0-.14,0-.29,0-.44.09.1,0,.22,0,.33q0,5.11,0,10.25a.41.41,0,0,1-.28.43l-2.63,1.19c-.09,0-.19.15-.3,0a.7.7,0,0,0,.08-.29c0-1.37,0-2.74,0-4.11s0-3,0-4.44C26.85,21,26.9,20.88,26.8,20.78Z"/><path class="cls-4" d="M17.16,25.55c-.94.92-1.89,1.83-2.84,2.74l-.3.27a2.45,2.45,0,0,1,0-.27V18.05c0-.1,0-.2,0-.3l.58.56c.49.45.94.94,1.44,1.38a8.17,8.17,0,0,1,1.09,1.11v2.14C17.14,23.81,17.15,24.68,17.16,25.55Z"/><path class="cls-5" d="M17.14,20.8a8.17,8.17,0,0,0-1.09-1.11c-.5-.44-1-.93-1.44-1.38L14,17.75a3.56,3.56,0,0,1,.87-.44l2-.92a.28.28,0,0,1,.38.05q2.34,2.25,4.69,4.49l-1.91,1.85c-.13.12-.28.22-.41.34L17.43,21C17.35,20.94,17.28,20.81,17.14,20.8Z"/><path class="cls-5" d="M26.86,25.54c0,1.37,0,2.74,0,4.11a.7.7,0,0,1-.08.29l-1.56-1.46L22,25.4s0,0,0-.06c.69-.67,1.39-1.33,2.09-2a.25.25,0,0,1,.21-.1c.77.65,1.47,1.38,2.21,2.07C26.65,25.4,26.71,25.53,26.86,25.54Z"/></g></svg>