<svg xmlns="http://www.w3.org/2000/svg" viewBox="0 0 32 32"><defs><style>.icon-folder{fill:#dcb67a;}.cls-1{fill:#252526;}.cls-2{fill:#ffc01a;}</style></defs><g id="Bases"><path class="icon-folder" d="M28,4a2,2,0,0,1,2,2V24a1.92,1.92,0,0,1-2,2V6H16l-2,4H6v6H22l6,10H6L0,16H4V10C4,8,6.47,8,6,8h7l2-4Z"/></g><g id="Overlays"><path class="cls-1" d="M20,32a3.92,3.92,0,0,1-4-4V18a3.92,3.92,0,0,1,4-4h8.75L32,18.12V28a3.92,3.92,0,0,1-4,4Z"/><path class="cls-2" d="M26.62,16H19.93A1.91,1.91,0,0,0,18,18V28a1.91,1.91,0,0,0,1.93,2h8A2,2,0,0,0,30,28V20.27ZM28,24h0v4H20V18h6v2h2Z"/><rect class="cls-2" x="21.99" y="19.99" width="3.99" height="2.09"/><rect class="cls-2" x="22" y="24" width="4" height="2"/></g></svg>