<svg id="Bases" xmlns="http://www.w3.org/2000/svg" viewBox="0 0 32 32"><defs><style>.cls-1{fill:#018fd4;}.cls-2{fill:#1b9ad9;}.cls-3{fill:#007cb9;}.cls-4{fill:#34a3dd;}</style></defs><path class="cls-1" d="M16.07,20.25c-.25,0-.38.26-.55.42-2.73,2.65-5.47,5.29-8.19,8a.77.77,0,0,1-1,.17C4.72,28,3.13,27.33,1.55,26.59c-.18-.08-.43-.08-.51-.33.19-.18.38-.34.56-.52l5.33-5.2,4.1-4c.21-.21.49-.36.57-.67.26-.22.54-.42.78-.65L16,11.75l6.87-6.62,2-1.92c.15-.15.27-.29.54-.16,1.84.88,3.69,1.73,5.54,2.6,0,.28,0,.56,0,.84V26.24a1.48,1.48,0,0,1-.12-.81V6.5c0-.12,0-.28-.09-.35s-.23.07-.32.15L25,11.47l-4.3,4.17c-.15.14-.38.25-.28.52a.5.5,0,0,0-.39.18l-3.92,3.79S16.08,20.21,16.07,20.25Z"/><path class="cls-2" d="M25,11.47,30.33,6.3c.09-.08.17-.22.32-.15s.09.23.09.35V25.43a1.48,1.48,0,0,0,.12.81V6.49c0-.28,0-.56,0-.84.17.18.09.41.09.61,0,6.5,0,13,0,19.51a.75.75,0,0,1-.53.81c-1.65.74-3.28,1.51-4.93,2.26-.17.08-.36.29-.57.05a1.21,1.21,0,0,0,.16-.55l0-7.83q0-4.22,0-8.43C25.09,11.87,25.18,11.65,25,11.47Z"/><path class="cls-3" d="M6.93,20.54,1.6,25.74c-.18.18-.37.34-.56.52,0-.17,0-.34,0-.51V6.27c0-.19,0-.38.05-.57l1.1,1.06c.91.87,1.76,1.8,2.7,2.63a16.27,16.27,0,0,1,2,2.11c0,1.36,0,2.72,0,4.07C6.9,17.23,6.92,18.89,6.93,20.54Z"/><path class="cls-4" d="M6.89,11.5a16.27,16.27,0,0,0-2-2.11c-.94-.83-1.79-1.76-2.7-2.63L1.05,5.7a6.84,6.84,0,0,1,1.64-.83c1.24-.6,2.51-1.16,3.76-1.75a.52.52,0,0,1,.72.08C10.09,6.06,13,8.9,16,11.75l-3.58,3.51c-.24.23-.52.43-.78.65-1.38-1.33-2.77-2.67-4.16-4C7.27,11.76,7.16,11.53,6.89,11.5Z"/><path class="cls-4" d="M25.1,20.51l0,7.83a1.21,1.21,0,0,1-.16.55C24,28,23,27,22.06,26.11l-6-5.86s0-.09,0-.12L20,16.34a.5.5,0,0,1,.39-.18c1.45,1.24,2.76,2.63,4.14,3.94C24.72,20.26,24.84,20.49,25.1,20.51Z"/></svg>