<svg id="Bases" xmlns="http://www.w3.org/2000/svg" viewBox="0 0 32 32"><defs><style>.cls-1{fill:#018fd4;}.cls-2{fill:#1b9ad9;}.cls-3{fill:#007cb9;}.cls-4{fill:#34a3dd;}</style></defs><path class="cls-1" d="M16.06,19.35c-.21,0-.31.21-.44.33-2.19,2.09-4.38,4.17-6.55,6.28a.63.63,0,0,1-.83.14C7,25.49,5.7,24.94,4.44,24.35c-.15-.06-.34-.06-.41-.26.15-.14.31-.27.45-.41l4.26-4.1L12,16.45c.17-.16.39-.28.46-.52a7.75,7.75,0,0,0,.62-.52c1-.91,1.91-1.84,2.86-2.76l5.5-5.22,1.59-1.51c.12-.12.22-.23.43-.13l4.43,2.05c0,.22,0,.44,0,.66V24.07a1.08,1.08,0,0,1-.09-.63q0-5.84,0-11.67V8.51c0-.1,0-.22-.07-.27s-.19,0-.26.11L23.2,12.43l-3.44,3.29c-.12.11-.3.19-.22.41a.37.37,0,0,0-.31.14l-3.14,3S16.07,19.32,16.06,19.35Z"/><path class="cls-2" d="M23.2,12.43l4.26-4.08c.07-.06.14-.17.26-.11s.07.17.07.27v3.26q0,5.84,0,11.67a1.08,1.08,0,0,0,.09.63V8.5c0-.22,0-.44,0-.66.14.14.07.32.08.48,0,5.13,0,10.26,0,15.38a.6.6,0,0,1-.42.65c-1.32.58-2.63,1.18-3.95,1.78-.14.06-.28.22-.45,0a.9.9,0,0,0,.13-.43l0-6.17V12.91C23.27,12.75,23.35,12.57,23.2,12.43Z"/><path class="cls-3" d="M8.74,19.58l-4.26,4.1c-.14.14-.3.27-.45.41,0-.14,0-.27,0-.4V8.33c0-.15,0-.3,0-.45.3.27.59.56.88.83.73.69,1.41,1.42,2.16,2.08a12.26,12.26,0,0,1,1.63,1.67v3.2Z"/><path class="cls-4" d="M8.71,12.46a12.26,12.26,0,0,0-1.63-1.67c-.75-.66-1.43-1.39-2.16-2.08-.29-.27-.58-.56-.88-.83a5.56,5.56,0,0,1,1.31-.66c1-.47,2-.91,3-1.38a.44.44,0,0,1,.58.07c2.33,2.25,4.68,4.5,7,6.74-1,.92-1.9,1.85-2.86,2.76a7.75,7.75,0,0,1-.62.52L9.15,12.78C9,12.66,8.93,12.47,8.71,12.46Z"/><path class="cls-4" d="M23.28,19.56l0,6.17a.9.9,0,0,1-.13.43c-.78-.73-1.56-1.45-2.33-2.19-1.6-1.53-3.19-3.08-4.79-4.62,0,0,0-.07,0-.09l3.14-3a.37.37,0,0,1,.31-.14c1.16,1,2.2,2.07,3.31,3.1C23,19.36,23.07,19.54,23.28,19.56Z"/></svg>